SplineFontDB: 3.0
FontName: ZXSpectrum
FullName: ZX Spectrum Unicode
FamilyName: Untitled1
Weight: Regular
Copyright: Copyright (c) 2016, Jorge Ferrer,,,
UComments: "2016-8-21: Created with FontForge (http://fontforge.org)"
Version: 001.000
ItalicAngle: 0
UnderlinePosition: -100
UnderlineWidth: 50
Ascent: 700
Descent: 100
InvalidEm: 0
LayerCount: 2
Layer: 0 0 "Back" 1
Layer: 1 0 "Fore" 0
XUID: [1021 324 -1152774598 7662232]
OS2Version: 0
OS2_WeightWidthSlopeOnly: 0
OS2_UseTypoMetrics: 1
CreationTime: 1471801166
ModificationTime: 1471801166
OS2TypoAscent: 0
OS2TypoAOffset: 1
OS2TypoDescent: 0
OS2TypoDOffset: 1
OS2TypoLinegap: 0
OS2WinAscent: 0
OS2WinAOffset: 1
OS2WinDescent: 0
OS2WinDOffset: 1
HheadAscent: 0
HheadAOffset: 1
HheadDescent: 0
HheadDOffset: 1
OS2Vendor: 'PfEd'
DEI: 91125
Encoding: UnicodeBmp
UnicodeInterp: none
NameList: AGL For New Fonts
DisplaySize: -48
AntiAlias: 1
FitToEm: 0
BeginChars: 65536 667

StartChar: A
Encoding: 65 65 0
Width: 800
VWidth: 0
Flags: H
LayerCount: 2
Fore
SplineSet
201 500 m 1
 200 501 l 1
 200 599 l 1
 201 600 l 1
 599 600 l 1
 600 599 l 1
 600 501 l 1
 599 500 l 1
 201 500 l 1
100 499 m 1
 101 500 l 1
 199 500 l 1
 200 499 l 1
 200 301 l 1
 201 300 l 1
 599 300 l 1
 600 301 l 1
 600 499 l 1
 601 500 l 1
 699 500 l 1
 700 499 l 1
 700 1 l 1
 699 0 l 1
 601 0 l 1
 600 1 l 1
 600 199 l 1
 599 200 l 1
 201 200 l 1
 200 199 l 1
 200 1 l 1
 199 0 l 1
 101 0 l 1
 100 1 l 1
 100 499 l 1
EndSplineSet
EndChar

StartChar: AE
Encoding: 198 198 1
Width: 800
VWidth: 0
Flags: H
LayerCount: 2
Fore
SplineSet
200 1 m 1
 199 0 l 1
 101 0 l 1
 100 1 l 1
 100 499 l 1
 101 500 l 1
 199 500 l 1
 200 499 l 1
 200 401 l 1
 201 400 l 1
 399 400 l 1
 400 401 l 1
 400 499 l 1
 399 500 l 1
 201 500 l 1
 200 501 l 1
 200 599 l 1
 201 600 l 1
 699 600 l 1
 700 599 l 1
 700 501 l 1
 699 500 l 1
 501 500 l 1
 500 499 l 1
 500 401 l 1
 501 400 l 1
 599 400 l 1
 600 399 l 1
 600 301 l 1
 599 300 l 1
 501 300 l 1
 500 299 l 1
 500 101 l 1
 501 100 l 1
 699 100 l 1
 700 99 l 1
 700 1 l 1
 699 0 l 1
 401 0 l 1
 400 1 l 1
 400 299 l 1
 399 300 l 1
 201 300 l 1
 200 299 l 1
 200 1 l 1
EndSplineSet
EndChar

StartChar: AEacute
Encoding: 508 508 2
Width: 800
VWidth: 0
Flags: H
LayerCount: 2
Fore
SplineSet
200 1 m 1
 199 0 l 1
 101 0 l 1
 100 1 l 1
 100 399 l 1
 101 400 l 1
 199 400 l 1
 200 399 l 1
 200 301 l 1
 201 300 l 1
 399 300 l 1
 400 301 l 1
 400 399 l 1
 399 400 l 1
 201 400 l 1
 200 401 l 1
 200 499 l 1
 201 500 l 1
 299 500 l 1
 300 501 l 1
 300 599 l 1
 301 600 l 1
 399 600 l 1
 400 599 l 1
 400 501 l 1
 401 500 l 1
 699 500 l 1
 700 499 l 1
 700 401 l 1
 699 400 l 1
 501 400 l 1
 500 399 l 1
 500 301 l 1
 501 300 l 1
 599 300 l 1
 600 299 l 1
 600 201 l 1
 599 200 l 1
 501 200 l 1
 500 199 l 1
 500 101 l 1
 501 100 l 1
 699 100 l 1
 700 99 l 1
 700 1 l 1
 699 0 l 1
 401 0 l 1
 400 1 l 1
 400 199 l 1
 399 200 l 1
 201 200 l 1
 200 199 l 1
 200 1 l 1
401 600 m 1
 400 601 l 1
 400 699 l 1
 401 700 l 1
 499 700 l 1
 500 699 l 1
 500 601 l 1
 499 600 l 1
 401 600 l 1
EndSplineSet
EndChar

StartChar: Aacute
Encoding: 193 193 3
Width: 800
VWidth: 0
Flags: H
LayerCount: 2
Fore
SplineSet
201 400 m 1
 200 401 l 1
 200 499 l 1
 201 500 l 1
 299 500 l 1
 300 501 l 1
 300 599 l 1
 301 600 l 1
 399 600 l 1
 400 599 l 1
 400 501 l 1
 401 500 l 1
 599 500 l 1
 600 499 l 1
 600 401 l 1
 599 400 l 1
 201 400 l 1
100 399 m 1
 101 400 l 1
 199 400 l 1
 200 399 l 1
 200 301 l 1
 201 300 l 1
 599 300 l 1
 600 301 l 1
 600 399 l 1
 601 400 l 1
 699 400 l 1
 700 399 l 1
 700 1 l 1
 699 0 l 1
 601 0 l 1
 600 1 l 1
 600 199 l 1
 599 200 l 1
 201 200 l 1
 200 199 l 1
 200 1 l 1
 199 0 l 1
 101 0 l 1
 100 1 l 1
 100 399 l 1
401 600 m 1
 400 601 l 1
 400 699 l 1
 401 700 l 1
 499 700 l 1
 500 699 l 1
 500 601 l 1
 499 600 l 1
 401 600 l 1
EndSplineSet
EndChar

StartChar: Abreve
Encoding: 258 258 4
Width: 800
VWidth: 0
Flags: H
LayerCount: 2
Fore
SplineSet
100 399 m 1
 101 400 l 1
 199 400 l 1
 200 399 l 1
 200 301 l 1
 201 300 l 1
 599 300 l 1
 600 301 l 1
 600 399 l 1
 601 400 l 1
 699 400 l 1
 700 399 l 1
 700 1 l 1
 699 0 l 1
 601 0 l 1
 600 1 l 1
 600 199 l 1
 599 200 l 1
 201 200 l 1
 200 199 l 1
 200 1 l 1
 199 0 l 1
 101 0 l 1
 100 1 l 1
 100 399 l 1
300 599 m 1
 301 600 l 1
 499 600 l 1
 500 599 l 1
 500 501 l 1
 501 500 l 1
 599 500 l 1
 600 499 l 1
 600 401 l 1
 599 400 l 1
 201 400 l 1
 200 401 l 1
 200 499 l 1
 201 500 l 1
 299 500 l 1
 300 501 l 1
 300 599 l 1
201 600 m 1
 200 601 l 1
 200 699 l 1
 201 700 l 1
 299 700 l 1
 300 699 l 1
 300 601 l 1
 299 600 l 1
 201 600 l 1
501 600 m 1
 500 601 l 1
 500 699 l 1
 501 700 l 1
 599 700 l 1
 600 699 l 1
 600 601 l 1
 599 600 l 1
 501 600 l 1
EndSplineSet
EndChar

StartChar: Acircumflex
Encoding: 194 194 5
Width: 800
VWidth: 0
Flags: H
LayerCount: 2
Fore
SplineSet
100 399 m 1
 101 400 l 1
 199 400 l 1
 200 399 l 1
 200 301 l 1
 201 300 l 1
 499 300 l 1
 500 301 l 1
 500 399 l 1
 501 400 l 1
 599 400 l 1
 600 399 l 1
 600 1 l 1
 599 0 l 1
 501 0 l 1
 500 1 l 1
 500 199 l 1
 499 200 l 1
 201 200 l 1
 200 199 l 1
 200 1 l 1
 199 0 l 1
 101 0 l 1
 100 1 l 1
 100 399 l 1
400 599 m 1
 401 600 l 1
 499 600 l 1
 500 599 l 1
 500 401 l 1
 499 400 l 1
 201 400 l 1
 200 401 l 1
 200 599 l 1
 201 600 l 1
 299 600 l 1
 300 599 l 1
 300 501 l 1
 301 500 l 1
 400 500 l 1
 401 501 l 1
 400 599 l 1
301 600 m 1
 300 601 l 1
 300 699 l 1
 301 700 l 1
 399 700 l 1
 400 699 l 1
 400 601 l 1
 399 600 l 1
 301 600 l 1
EndSplineSet
EndChar

StartChar: Adieresis
Encoding: 196 196 6
Width: 800
VWidth: 0
Flags: H
LayerCount: 2
Fore
SplineSet
201 400 m 1
 200 401 l 1
 200 499 l 1
 201 500 l 1
 599 500 l 1
 600 499 l 1
 600 401 l 1
 599 400 l 1
 201 400 l 1
100 399 m 1
 101 400 l 1
 199 400 l 1
 200 399 l 1
 200 301 l 1
 201 300 l 1
 599 300 l 1
 600 301 l 1
 600 399 l 1
 601 400 l 1
 699 400 l 1
 700 399 l 1
 700 1 l 1
 699 0 l 1
 601 0 l 1
 600 1 l 1
 600 199 l 1
 599 200 l 1
 201 200 l 1
 200 199 l 1
 200 1 l 1
 199 0 l 1
 101 0 l 1
 100 1 l 1
 100 399 l 1
201 600 m 1
 200 601 l 1
 200 699 l 1
 201 700 l 1
 299 700 l 1
 300 699 l 1
 300 601 l 1
 299 600 l 1
 201 600 l 1
501 600 m 1
 500 601 l 1
 500 699 l 1
 501 700 l 1
 599 700 l 1
 600 699 l 1
 600 601 l 1
 599 600 l 1
 501 600 l 1
EndSplineSet
EndChar

StartChar: Agrave
Encoding: 192 192 7
Width: 800
VWidth: 0
Flags: H
LayerCount: 2
Fore
SplineSet
201 400 m 1
 200 401 l 1
 200 499 l 1
 201 500 l 1
 299 500 l 1
 300 501 l 1
 300 599 l 1
 301 600 l 1
 399 600 l 1
 400 599 l 1
 400 501 l 1
 401 500 l 1
 599 500 l 1
 600 499 l 1
 600 401 l 1
 599 400 l 1
 201 400 l 1
100 399 m 1
 101 400 l 1
 199 400 l 1
 200 399 l 1
 200 301 l 1
 201 300 l 1
 599 300 l 1
 600 301 l 1
 600 399 l 1
 601 400 l 1
 699 400 l 1
 700 399 l 1
 700 1 l 1
 699 0 l 1
 601 0 l 1
 600 1 l 1
 600 199 l 1
 599 200 l 1
 201 200 l 1
 200 199 l 1
 200 1 l 1
 199 0 l 1
 101 0 l 1
 100 1 l 1
 100 399 l 1
201 600 m 1
 200 601 l 1
 200 699 l 1
 201 700 l 1
 299 700 l 1
 300 699 l 1
 300 601 l 1
 299 600 l 1
 201 600 l 1
EndSplineSet
EndChar

StartChar: Alpha
Encoding: 913 913 8
Width: 800
VWidth: 0
Flags: H
LayerCount: 2
Fore
SplineSet
201 500 m 1
 200 501 l 1
 200 599 l 1
 201 600 l 1
 599 600 l 1
 600 599 l 1
 600 501 l 1
 599 500 l 1
 201 500 l 1
100 499 m 1
 101 500 l 1
 199 500 l 1
 200 499 l 1
 200 301 l 1
 201 300 l 1
 599 300 l 1
 600 301 l 1
 600 499 l 1
 601 500 l 1
 699 500 l 1
 700 499 l 1
 700 1 l 1
 699 0 l 1
 601 0 l 1
 600 1 l 1
 600 199 l 1
 599 200 l 1
 201 200 l 1
 200 199 l 1
 200 1 l 1
 199 0 l 1
 101 0 l 1
 100 1 l 1
 100 499 l 1
EndSplineSet
EndChar

StartChar: Alphatonos
Encoding: 902 902 9
Width: 800
VWidth: 0
Flags: H
LayerCount: 2
Fore
SplineSet
201 400 m 1
 200 401 l 1
 200 499 l 1
 201 500 l 1
 599 500 l 1
 600 499 l 1
 600 401 l 1
 599 400 l 1
 201 400 l 1
100 399 m 1
 101 400 l 1
 199 400 l 1
 200 399 l 1
 200 301 l 1
 201 300 l 1
 599 300 l 1
 600 301 l 1
 600 399 l 1
 601 400 l 1
 699 400 l 1
 700 399 l 1
 700 1 l 1
 699 0 l 1
 601 0 l 1
 600 1 l 1
 600 199 l 1
 599 200 l 1
 201 200 l 1
 200 199 l 1
 200 1 l 1
 199 0 l 1
 101 0 l 1
 100 1 l 1
 100 399 l 1
101 600 m 1
 100 601 l 1
 100 699 l 1
 101 700 l 1
 199 700 l 1
 200 699 l 1
 200 601 l 1
 199 600 l 1
 101 600 l 1
1 500 m 1
 0 501 l 1
 0 599 l 1
 1 600 l 1
 99 600 l 1
 100 599 l 1
 100 501 l 1
 99 500 l 1
 1 500 l 1
EndSplineSet
EndChar

StartChar: Amacron
Encoding: 256 256 10
Width: 800
VWidth: 0
Flags: H
LayerCount: 2
Fore
SplineSet
201 400 m 1
 200 401 l 1
 200 499 l 1
 201 500 l 1
 599 500 l 1
 600 499 l 1
 600 401 l 1
 599 400 l 1
 201 400 l 1
100 399 m 1
 101 400 l 1
 199 400 l 1
 200 399 l 1
 200 301 l 1
 201 300 l 1
 599 300 l 1
 600 301 l 1
 600 399 l 1
 601 400 l 1
 699 400 l 1
 700 399 l 1
 700 1 l 1
 699 0 l 1
 601 0 l 1
 600 1 l 1
 600 199 l 1
 599 200 l 1
 201 200 l 1
 200 199 l 1
 200 1 l 1
 199 0 l 1
 101 0 l 1
 100 1 l 1
 100 399 l 1
201 600 m 1
 200 601 l 1
 200 699 l 1
 201 700 l 1
 599 700 l 1
 600 699 l 1
 600 601 l 1
 599 600 l 1
 201 600 l 1
EndSplineSet
EndChar

StartChar: Aogonek
Encoding: 260 260 11
Width: 800
VWidth: 0
Flags: H
LayerCount: 2
Fore
SplineSet
201 500 m 1
 200 501 l 1
 200 599 l 1
 201 600 l 1
 599 600 l 1
 600 599 l 1
 600 501 l 1
 599 500 l 1
 201 500 l 1
100 499 m 1
 101 500 l 1
 199 500 l 1
 200 499 l 1
 200 301 l 1
 201 300 l 1
 599 300 l 1
 600 301 l 1
 600 499 l 1
 601 500 l 1
 699 500 l 1
 700 499 l 1
 700 101 l 1
 699 100 l 1
 601 100 l 1
 600 101 l 1
 600 199 l 1
 599 200 l 1
 201 200 l 1
 200 199 l 1
 200 1 l 1
 199 0 l 1
 101 0 l 1
 100 1 l 1
 100 499 l 1
501 0 m 1
 500 1 l 1
 500 99 l 1
 501 100 l 1
 599 100 l 1
 600 99 l 1
 600 1 l 1
 599 0 l 1
 501 0 l 1
601 -100 m 1
 600 -99 l 1
 600 -1 l 1
 601 0 l 1
 699 0 l 1
 700 -1 l 1
 700 -99 l 1
 699 -100 l 1
 601 -100 l 1
EndSplineSet
EndChar

StartChar: Aring
Encoding: 197 197 12
Width: 800
VWidth: 0
Flags: H
LayerCount: 2
Fore
SplineSet
100 299 m 1
 101 300 l 1
 199 300 l 1
 200 299 l 1
 200 201 l 1
 201 200 l 1
 499 200 l 1
 500 201 l 1
 500 299 l 1
 501 300 l 1
 599 300 l 1
 600 299 l 1
 600 1 l 1
 599 0 l 1
 501 0 l 1
 500 1 l 1
 500 99 l 1
 499 100 l 1
 201 100 l 1
 200 99 l 1
 200 1 l 1
 199 0 l 1
 101 0 l 1
 100 1 l 1
 100 299 l 1
201 500 m 1
 200 501 l 1
 200 599 l 1
 201 600 l 1
 299 600 l 1
 300 599 l 1
 300 501 l 1
 299 500 l 1
 201 500 l 1
401 500 m 1
 400 501 l 1
 400 599 l 1
 401 600 l 1
 499 600 l 1
 500 599 l 1
 500 501 l 1
 499 500 l 1
 401 500 l 1
300 499 m 1
 301 500 l 1
 399 500 l 1
 400 499 l 1
 400 401 l 1
 401 400 l 1
 499 400 l 1
 500 399 l 1
 500 301 l 1
 499 300 l 1
 201 300 l 1
 200 301 l 1
 200 399 l 1
 201 400 l 1
 299 400 l 1
 300 401 l 1
 300 499 l 1
301 600 m 1
 300 601 l 1
 300 699 l 1
 301 700 l 1
 399 700 l 1
 400 699 l 1
 400 601 l 1
 399 600 l 1
 301 600 l 1
EndSplineSet
EndChar

StartChar: Aringacute
Encoding: 506 506 13
Width: 800
VWidth: 0
Flags: H
LayerCount: 2
Fore
SplineSet
200 299 m 1
 201 300 l 1
 299 300 l 1
 300 299 l 1
 300 201 l 1
 301 200 l 1
 599 200 l 1
 600 201 l 1
 600 299 l 1
 601 300 l 1
 699 300 l 1
 700 299 l 1
 700 1 l 1
 699 0 l 1
 601 0 l 1
 600 1 l 1
 600 99 l 1
 599 100 l 1
 301 100 l 1
 300 99 l 1
 300 1 l 1
 299 0 l 1
 201 0 l 1
 200 1 l 1
 200 299 l 1
301 500 m 1
 300 501 l 1
 300 599 l 1
 301 600 l 1
 399 600 l 1
 400 599 l 1
 400 501 l 1
 399 500 l 1
 301 500 l 1
501 500 m 1
 500 501 l 1
 500 599 l 1
 501 600 l 1
 599 600 l 1
 600 599 l 1
 600 501 l 1
 599 500 l 1
 501 500 l 1
400 499 m 1
 401 500 l 1
 499 500 l 1
 500 499 l 1
 500 401 l 1
 501 400 l 1
 599 400 l 1
 600 399 l 1
 600 301 l 1
 599 300 l 1
 301 300 l 1
 300 301 l 1
 300 399 l 1
 301 400 l 1
 399 400 l 1
 400 401 l 1
 400 499 l 1
401 600 m 1
 400 601 l 1
 400 699 l 1
 401 700 l 1
 499 700 l 1
 500 699 l 1
 500 601 l 1
 499 600 l 1
 401 600 l 1
101 600 m 1
 100 601 l 1
 100 699 l 1
 101 700 l 1
 199 700 l 1
 200 699 l 1
 200 601 l 1
 199 600 l 1
 101 600 l 1
1 500 m 1
 0 501 l 1
 0 599 l 1
 1 600 l 1
 99 600 l 1
 100 599 l 1
 100 501 l 1
 99 500 l 1
 1 500 l 1
EndSplineSet
EndChar

StartChar: Atilde
Encoding: 195 195 14
Width: 800
VWidth: 0
Flags: H
LayerCount: 2
Fore
SplineSet
100 399 m 1
 101 400 l 1
 199 400 l 1
 200 399 l 1
 200 301 l 1
 201 300 l 1
 499 300 l 1
 500 301 l 1
 500 399 l 1
 501 400 l 1
 599 400 l 1
 600 399 l 1
 600 1 l 1
 599 0 l 1
 501 0 l 1
 500 1 l 1
 500 199 l 1
 499 200 l 1
 201 200 l 1
 200 199 l 1
 200 1 l 1
 199 0 l 1
 101 0 l 1
 100 1 l 1
 100 399 l 1
400 599 m 1
 401 600 l 1
 499 600 l 1
 500 599 l 1
 500 401 l 1
 499 400 l 1
 201 400 l 1
 200 401 l 1
 200 599 l 1
 201 600 l 1
 299 600 l 1
 300 599 l 1
 300 501 l 1
 301 500 l 1
 400 500 l 1
 401 501 l 1
 400 599 l 1
301 600 m 1
 300 601 l 1
 300 699 l 1
 301 700 l 1
 399 700 l 1
 400 699 l 1
 400 601 l 1
 399 600 l 1
 301 600 l 1
501 600 m 1
 500 601 l 1
 500 699 l 1
 501 700 l 1
 599 700 l 1
 600 699 l 1
 600 601 l 1
 599 600 l 1
 501 600 l 1
EndSplineSet
EndChar

StartChar: B
Encoding: 66 66 15
Width: 800
VWidth: 0
Flags: H
LayerCount: 2
Fore
SplineSet
601 400 m 1
 600 401 l 1
 600 499 l 1
 601 500 l 1
 699 500 l 1
 700 499 l 1
 700 401 l 1
 699 400 l 1
 601 400 l 1
600 299 m 1
 601 300 l 1
 699 300 l 1
 700 299 l 1
 700 101 l 1
 699 100 l 1
 601 100 l 1
 600 101 l 1
 600 299 l 1
599 600 m 1
 600 599 l 1
 600 501 l 1
 599 500 l 1
 201 500 l 1
 200 499 l 1
 200 401 l 1
 201 400 l 1
 599 400 l 1
 600 399 l 1
 600 301 l 1
 599 300 l 1
 201 300 l 1
 200 299 l 1
 200 101 l 1
 201 100 l 1
 599 100 l 1
 600 99 l 1
 600 1 l 1
 599 0 l 1
 101 0 l 1
 100 1 l 1
 100 599 l 1
 101 600 l 1
 599 600 l 1
EndSplineSet
EndChar

StartChar: Beta
Encoding: 914 914 16
Width: 800
VWidth: 0
Flags: H
LayerCount: 2
Fore
SplineSet
601 400 m 1
 600 401 l 1
 600 499 l 1
 601 500 l 1
 699 500 l 1
 700 499 l 1
 700 401 l 1
 699 400 l 1
 601 400 l 1
600 299 m 1
 601 300 l 1
 699 300 l 1
 700 299 l 1
 700 101 l 1
 699 100 l 1
 601 100 l 1
 600 101 l 1
 600 299 l 1
599 600 m 1
 600 599 l 1
 600 501 l 1
 599 500 l 1
 201 500 l 1
 200 499 l 1
 200 401 l 1
 201 400 l 1
 599 400 l 1
 600 399 l 1
 600 301 l 1
 599 300 l 1
 201 300 l 1
 200 299 l 1
 200 101 l 1
 201 100 l 1
 599 100 l 1
 600 99 l 1
 600 1 l 1
 599 0 l 1
 101 0 l 1
 100 1 l 1
 100 599 l 1
 101 600 l 1
 599 600 l 1
EndSplineSet
EndChar

StartChar: C
Encoding: 67 67 17
Width: 800
VWidth: 0
Flags: H
LayerCount: 2
Fore
SplineSet
601 400 m 1
 600 401 l 1
 600 499 l 1
 601 500 l 1
 699 500 l 1
 700 499 l 1
 700 401 l 1
 699 400 l 1
 601 400 l 1
601 100 m 1
 600 101 l 1
 600 199 l 1
 601 200 l 1
 699 200 l 1
 700 199 l 1
 700 101 l 1
 699 100 l 1
 601 100 l 1
201 500 m 1
 200 501 l 1
 200 599 l 1
 201 600 l 1
 599 600 l 1
 600 599 l 1
 600 501 l 1
 599 500 l 1
 201 500 l 1
201 0 m 1
 200 1 l 1
 200 99 l 1
 201 100 l 1
 599 100 l 1
 600 99 l 1
 600 1 l 1
 599 0 l 1
 201 0 l 1
100 499 m 1
 101 500 l 1
 199 500 l 1
 200 499 l 1
 200 101 l 1
 199 100 l 1
 101 100 l 1
 100 101 l 1
 100 499 l 1
EndSplineSet
EndChar

StartChar: Cacute
Encoding: 262 262 18
Width: 800
VWidth: 0
Flags: H
LayerCount: 2
Fore
SplineSet
601 300 m 1
 600 301 l 1
 600 399 l 1
 601 400 l 1
 699 400 l 1
 700 399 l 1
 700 301 l 1
 699 300 l 1
 601 300 l 1
601 100 m 1
 600 101 l 1
 600 199 l 1
 601 200 l 1
 699 200 l 1
 700 199 l 1
 700 101 l 1
 699 100 l 1
 601 100 l 1
201 0 m 1
 200 1 l 1
 200 99 l 1
 201 100 l 1
 599 100 l 1
 600 99 l 1
 600 1 l 1
 599 0 l 1
 201 0 l 1
100 399 m 1
 101 400 l 1
 199 400 l 1
 200 399 l 1
 200 101 l 1
 199 100 l 1
 101 100 l 1
 100 101 l 1
 100 399 l 1
300 599 m 1
 301 600 l 1
 399 600 l 1
 400 599 l 1
 400 501 l 1
 401 500 l 1
 599 500 l 1
 600 499 l 1
 600 401 l 1
 599 400 l 1
 201 400 l 1
 200 401 l 1
 200 499 l 1
 201 500 l 1
 299 500 l 1
 300 501 l 1
 300 599 l 1
401 600 m 1
 400 601 l 1
 400 699 l 1
 401 700 l 1
 499 700 l 1
 500 699 l 1
 500 601 l 1
 499 600 l 1
 401 600 l 1
EndSplineSet
EndChar

StartChar: Ccaron
Encoding: 268 268 19
Width: 800
VWidth: 0
Flags: H
LayerCount: 2
Fore
SplineSet
601 300 m 1
 600 301 l 1
 600 399 l 1
 601 400 l 1
 699 400 l 1
 700 399 l 1
 700 301 l 1
 699 300 l 1
 601 300 l 1
601 100 m 1
 600 101 l 1
 600 199 l 1
 601 200 l 1
 699 200 l 1
 700 199 l 1
 700 101 l 1
 699 100 l 1
 601 100 l 1
201 0 m 1
 200 1 l 1
 200 99 l 1
 201 100 l 1
 599 100 l 1
 600 99 l 1
 600 1 l 1
 599 0 l 1
 201 0 l 1
100 399 m 1
 101 400 l 1
 199 400 l 1
 200 399 l 1
 200 101 l 1
 199 100 l 1
 101 100 l 1
 100 101 l 1
 100 399 l 1
501 600 m 1
 500 601 l 1
 500 699 l 1
 501 700 l 1
 599 700 l 1
 600 699 l 1
 600 601 l 1
 599 600 l 1
 501 600 l 1
300 599 m 1
 301 600 l 1
 499 600 l 1
 500 599 l 1
 500 501 l 1
 501 500 l 1
 599 500 l 1
 600 499 l 1
 600 401 l 1
 599 400 l 1
 201 400 l 1
 200 401 l 1
 200 499 l 1
 201 500 l 1
 299 500 l 1
 300 501 l 1
 300 599 l 1
201 600 m 1
 200 601 l 1
 200 699 l 1
 201 700 l 1
 299 700 l 1
 300 699 l 1
 300 601 l 1
 299 600 l 1
 201 600 l 1
EndSplineSet
EndChar

StartChar: Ccedilla
Encoding: 199 199 20
Width: 800
VWidth: 0
Flags: H
LayerCount: 2
Fore
SplineSet
601 400 m 1
 600 401 l 1
 600 499 l 1
 601 500 l 1
 699 500 l 1
 700 499 l 1
 700 401 l 1
 699 400 l 1
 601 400 l 1
601 100 m 1
 600 101 l 1
 600 199 l 1
 601 200 l 1
 699 200 l 1
 700 199 l 1
 700 101 l 1
 699 100 l 1
 601 100 l 1
201 500 m 1
 200 501 l 1
 200 599 l 1
 201 600 l 1
 599 600 l 1
 600 599 l 1
 600 501 l 1
 599 500 l 1
 201 500 l 1
100 499 m 1
 101 500 l 1
 199 500 l 1
 200 499 l 1
 200 101 l 1
 199 100 l 1
 101 100 l 1
 100 101 l 1
 100 499 l 1
400 -99 m 1
 400 -1 l 1
 399 0 l 1
 201 0 l 1
 200 1 l 1
 200 99 l 1
 201 100 l 1
 599 100 l 1
 600 99 l 1
 600 1 l 1
 599 0 l 1
 501 0 l 1
 500 -1 l 1
 500 -99 l 1
 499 -100 l 1
 401 -100 l 1
 400 -99 l 1
EndSplineSet
EndChar

StartChar: Ccircumflex
Encoding: 264 264 21
Width: 800
VWidth: 0
Flags: H
LayerCount: 2
Fore
SplineSet
601 300 m 1
 600 301 l 1
 600 399 l 1
 601 400 l 1
 699 400 l 1
 700 399 l 1
 700 301 l 1
 699 300 l 1
 601 300 l 1
601 100 m 1
 600 101 l 1
 600 199 l 1
 601 200 l 1
 699 200 l 1
 700 199 l 1
 700 101 l 1
 699 100 l 1
 601 100 l 1
201 0 m 1
 200 1 l 1
 200 99 l 1
 201 100 l 1
 599 100 l 1
 600 99 l 1
 600 1 l 1
 599 0 l 1
 201 0 l 1
100 399 m 1
 101 400 l 1
 199 400 l 1
 200 399 l 1
 200 101 l 1
 199 100 l 1
 101 100 l 1
 100 101 l 1
 100 399 l 1
401 600 m 1
 400 601 l 1
 400 699 l 1
 401 700 l 1
 499 700 l 1
 500 699 l 1
 500 601 l 1
 499 600 l 1
 401 600 l 1
600 599 m 1
 600 401 l 1
 599 400 l 1
 201 400 l 1
 200 401 l 1
 200 499 l 1
 201 500 l 1
 299 500 l 1
 300 501 l 1
 300 599 l 1
 301 600 l 1
 399 600 l 1
 400 599 l 1
 400 501 l 1
 401 500 l 1
 499 500 l 1
 500 501 l 1
 500 599 l 1
 501 600 l 1
 599 600 l 1
 600 599 l 1
EndSplineSet
EndChar

StartChar: Cdotaccent
Encoding: 266 266 22
Width: 800
VWidth: 0
Flags: H
LayerCount: 2
Fore
SplineSet
601 300 m 1
 600 301 l 1
 600 399 l 1
 601 400 l 1
 699 400 l 1
 700 399 l 1
 700 301 l 1
 699 300 l 1
 601 300 l 1
601 100 m 1
 600 101 l 1
 600 199 l 1
 601 200 l 1
 699 200 l 1
 700 199 l 1
 700 101 l 1
 699 100 l 1
 601 100 l 1
201 400 m 1
 200 401 l 1
 200 499 l 1
 201 500 l 1
 599 500 l 1
 600 499 l 1
 600 401 l 1
 599 400 l 1
 201 400 l 1
201 0 m 1
 200 1 l 1
 200 99 l 1
 201 100 l 1
 599 100 l 1
 600 99 l 1
 600 1 l 1
 599 0 l 1
 201 0 l 1
100 399 m 1
 101 400 l 1
 199 400 l 1
 200 399 l 1
 200 101 l 1
 199 100 l 1
 101 100 l 1
 100 101 l 1
 100 399 l 1
401 600 m 1
 400 601 l 1
 400 699 l 1
 401 700 l 1
 499 700 l 1
 500 699 l 1
 500 601 l 1
 499 600 l 1
 401 600 l 1
EndSplineSet
EndChar

StartChar: Chi
Encoding: 935 935 23
Width: 800
VWidth: 0
Flags: H
LayerCount: 2
Fore
SplineSet
201 100 m 1
 200 101 l 1
 200 199 l 1
 201 200 l 1
 299 200 l 1
 300 199 l 1
 300 101 l 1
 299 100 l 1
 201 100 l 1
501 100 m 1
 500 101 l 1
 500 199 l 1
 501 200 l 1
 599 200 l 1
 600 199 l 1
 600 101 l 1
 599 100 l 1
 501 100 l 1
300 399 m 1
 301 400 l 1
 499 400 l 1
 500 399 l 1
 500 201 l 1
 499 200 l 1
 301 200 l 1
 300 201 l 1
 300 399 l 1
201 400 m 1
 200 401 l 1
 200 499 l 1
 201 500 l 1
 299 500 l 1
 300 499 l 1
 300 401 l 1
 299 400 l 1
 201 400 l 1
501 400 m 1
 500 401 l 1
 500 499 l 1
 501 500 l 1
 599 500 l 1
 600 499 l 1
 600 401 l 1
 599 400 l 1
 501 400 l 1
101 0 m 1
 100 1 l 1
 100 99 l 1
 101 100 l 1
 199 100 l 1
 200 99 l 1
 200 1 l 1
 199 0 l 1
 101 0 l 1
601 0 m 1
 600 1 l 1
 600 99 l 1
 601 100 l 1
 699 100 l 1
 700 99 l 1
 700 1 l 1
 699 0 l 1
 601 0 l 1
101 500 m 1
 100 501 l 1
 100 599 l 1
 101 600 l 1
 199 600 l 1
 200 599 l 1
 200 501 l 1
 199 500 l 1
 101 500 l 1
601 500 m 1
 600 501 l 1
 600 599 l 1
 601 600 l 1
 699 600 l 1
 700 599 l 1
 700 501 l 1
 699 500 l 1
 601 500 l 1
EndSplineSet
EndChar

StartChar: D
Encoding: 68 68 24
Width: 800
VWidth: 0
Flags: H
LayerCount: 2
Fore
SplineSet
501 400 m 1
 500 401 l 1
 500 499 l 1
 501 500 l 1
 599 500 l 1
 600 499 l 1
 600 401 l 1
 599 400 l 1
 501 400 l 1
501 100 m 1
 500 101 l 1
 500 199 l 1
 501 200 l 1
 599 200 l 1
 600 199 l 1
 600 101 l 1
 599 100 l 1
 501 100 l 1
600 399 m 1
 601 400 l 1
 699 400 l 1
 700 399 l 1
 700 201 l 1
 699 200 l 1
 601 200 l 1
 600 201 l 1
 600 399 l 1
499 100 m 1
 500 99 l 1
 500 1 l 1
 499 0 l 1
 101 0 l 1
 100 1 l 1
 100 599 l 1
 101 600 l 1
 499 600 l 1
 500 599 l 1
 500 501 l 1
 499 500 l 1
 201 500 l 1
 200 499 l 1
 200 100 l 1
 201 99 l 1
 499 100 l 1
EndSplineSet
EndChar

StartChar: Dcaron
Encoding: 270 270 25
Width: 800
VWidth: 0
Flags: H
LayerCount: 2
Fore
SplineSet
501 300 m 1
 500 301 l 1
 500 399 l 1
 501 400 l 1
 599 400 l 1
 600 399 l 1
 600 301 l 1
 599 300 l 1
 501 300 l 1
501 100 m 1
 500 101 l 1
 500 199 l 1
 501 200 l 1
 599 200 l 1
 600 199 l 1
 600 101 l 1
 599 100 l 1
 501 100 l 1
499 100 m 1
 500 99 l 1
 500 1 l 1
 499 0 l 1
 101 0 l 1
 100 1 l 1
 100 499 l 1
 101 500 l 1
 299 500 l 1
 300 501 l 1
 300 599 l 1
 301 600 l 1
 399 600 l 1
 400 599 l 1
 400 501 l 1
 401 500 l 1
 499 500 l 1
 500 499 l 1
 500 401 l 1
 499 400 l 1
 201 400 l 1
 200 399 l 1
 200 100 l 1
 201 99 l 1
 499 100 l 1
201 600 m 1
 200 601 l 1
 200 699 l 1
 201 700 l 1
 299 700 l 1
 300 699 l 1
 300 601 l 1
 299 600 l 1
 201 600 l 1
601 200 m 1
 600 201 l 1
 600 299 l 1
 601 300 l 1
 699 300 l 1
 700 299 l 1
 700 201 l 1
 699 200 l 1
 601 200 l 1
401 600 m 1
 400 601 l 1
 400 699 l 1
 401 700 l 1
 499 700 l 1
 500 699 l 1
 500 601 l 1
 499 600 l 1
 401 600 l 1
EndSplineSet
EndChar

StartChar: uni0394
Encoding: 916 916 26
Width: 800
VWidth: 0
Flags: H
LayerCount: 2
Fore
SplineSet
500 199 m 1
 501 200 l 1
 599 200 l 1
 600 199 l 1
 600 1 l 1
 599 0 l 1
 101 0 l 1
 100 1 l 1
 100 199 l 1
 101 200 l 1
 199 200 l 1
 200 199 l 1
 200 101 l 1
 201 100 l 1
 500 100 l 1
 501 101 l 1
 500 199 l 1
400 499 m 1
 401 500 l 1
 499 500 l 1
 500 499 l 1
 500 201 l 1
 499 200 l 1
 401 200 l 1
 400 201 l 1
 400 499 l 1
200 499 m 1
 201 500 l 1
 299 500 l 1
 300 499 l 1
 300 201 l 1
 299 200 l 1
 201 200 l 1
 200 201 l 1
 200 499 l 1
301 500 m 1
 300 501 l 1
 300 599 l 1
 301 600 l 1
 399 600 l 1
 400 599 l 1
 400 501 l 1
 399 500 l 1
 301 500 l 1
EndSplineSet
EndChar

StartChar: Dcroat
Encoding: 272 272 27
Width: 800
VWidth: 0
Flags: H
LayerCount: 2
Fore
SplineSet
501 400 m 1
 500 401 l 1
 500 499 l 1
 501 500 l 1
 599 500 l 1
 600 499 l 1
 600 401 l 1
 599 400 l 1
 501 400 l 1
501 100 m 1
 500 101 l 1
 500 199 l 1
 501 200 l 1
 599 200 l 1
 600 199 l 1
 600 101 l 1
 599 100 l 1
 501 100 l 1
600 399 m 1
 601 400 l 1
 699 400 l 1
 700 399 l 1
 700 201 l 1
 699 200 l 1
 601 200 l 1
 600 201 l 1
 600 399 l 1
499 600 m 1
 500 599 l 1
 500 501 l 1
 499 500 l 1
 201 500 l 1
 200 499 l 1
 200 401 l 1
 201 400 l 1
 399 400 l 1
 400 399 l 1
 400 301 l 1
 399 300 l 1
 201 300 l 1
 200 299 l 1
 200 101 l 1
 201 100 l 1
 499 100 l 1
 500 99 l 1
 500 1 l 1
 499 0 l 1
 101 0 l 1
 100 1 l 1
 100 299 l 1
 99 300 l 1
 1 300 l 1
 0 301 l 1
 0 399 l 1
 1 400 l 1
 99 400 l 1
 100 401 l 1
 100 599 l 1
 101 600 l 1
 499 600 l 1
EndSplineSet
EndChar

StartChar: E
Encoding: 69 69 28
Width: 800
VWidth: 0
Flags: H
LayerCount: 2
Fore
SplineSet
699 600 m 1
 700 599 l 1
 700 501 l 1
 699 500 l 1
 201 500 l 1
 200 499 l 1
 200 401 l 1
 201 400 l 1
 599 400 l 1
 600 399 l 1
 600 301 l 1
 599 300 l 1
 201 300 l 1
 200 299 l 1
 200 101 l 1
 201 100 l 1
 699 100 l 1
 700 99 l 1
 700 1 l 1
 699 0 l 1
 101 0 l 1
 100 1 l 1
 100 599 l 1
 101 600 l 1
 699 600 l 1
EndSplineSet
EndChar

StartChar: Eacute
Encoding: 201 201 29
Width: 800
VWidth: 0
Flags: H
LayerCount: 2
Fore
SplineSet
401 500 m 1
 699 500 l 1
 700 499 l 1
 700 401 l 1
 699 400 l 1
 201 400 l 1
 200 399 l 1
 200 301 l 1
 201 300 l 1
 599 300 l 1
 600 299 l 1
 600 201 l 1
 599 200 l 1
 201 200 l 1
 200 199 l 1
 200 101 l 1
 201 100 l 1
 699 100 l 1
 700 99 l 1
 700 1 l 1
 699 0 l 1
 101 0 l 1
 100 1 l 1
 100 499 l 1
 101 500 l 1
 299 500 l 1
 300 501 l 1
 300 599 l 1
 301 600 l 1
 399 600 l 1
 400 599 l 1
 400 501 l 1
 401 500 l 1
401 600 m 1
 400 601 l 1
 400 699 l 1
 401 700 l 1
 499 700 l 1
 500 699 l 1
 500 601 l 1
 499 600 l 1
 401 600 l 1
EndSplineSet
EndChar

StartChar: Ebreve
Encoding: 276 276 30
Width: 800
VWidth: 0
Flags: H
LayerCount: 2
Fore
SplineSet
501 500 m 1
 699 500 l 1
 700 499 l 1
 700 401 l 1
 699 400 l 1
 201 400 l 1
 200 399 l 1
 200 301 l 1
 201 300 l 1
 599 300 l 1
 600 299 l 1
 600 201 l 1
 599 200 l 1
 201 200 l 1
 200 199 l 1
 200 101 l 1
 201 100 l 1
 699 100 l 1
 700 99 l 1
 700 1 l 1
 699 0 l 1
 101 0 l 1
 100 1 l 1
 100 499 l 1
 101 500 l 1
 299 500 l 1
 300 501 l 1
 300 599 l 1
 301 600 l 1
 499 600 l 1
 500 599 l 1
 500 501 l 1
 501 500 l 1
501 600 m 1
 500 601 l 1
 500 699 l 1
 501 700 l 1
 599 700 l 1
 600 699 l 1
 600 601 l 1
 599 600 l 1
 501 600 l 1
201 600 m 1
 200 601 l 1
 200 699 l 1
 201 700 l 1
 299 700 l 1
 300 699 l 1
 300 601 l 1
 299 600 l 1
 201 600 l 1
EndSplineSet
EndChar

StartChar: Ecaron
Encoding: 282 282 31
Width: 800
VWidth: 0
Flags: H
LayerCount: 2
Fore
SplineSet
401 500 m 1
 699 500 l 1
 700 499 l 1
 700 401 l 1
 699 400 l 1
 201 400 l 1
 200 399 l 1
 200 301 l 1
 201 300 l 1
 599 300 l 1
 600 299 l 1
 600 201 l 1
 599 200 l 1
 201 200 l 1
 200 199 l 1
 200 101 l 1
 201 100 l 1
 699 100 l 1
 700 99 l 1
 700 1 l 1
 699 0 l 1
 101 0 l 1
 100 1 l 1
 100 499 l 1
 101 500 l 1
 299 500 l 1
 300 501 l 1
 300 599 l 1
 301 600 l 1
 399 600 l 1
 400 599 l 1
 400 501 l 1
 401 500 l 1
401 600 m 1
 400 601 l 1
 400 699 l 1
 401 700 l 1
 499 700 l 1
 500 699 l 1
 500 601 l 1
 499 600 l 1
 401 600 l 1
201 600 m 1
 200 601 l 1
 200 699 l 1
 201 700 l 1
 299 700 l 1
 300 699 l 1
 300 601 l 1
 299 600 l 1
 201 600 l 1
EndSplineSet
EndChar

StartChar: Ecircumflex
Encoding: 202 202 32
Width: 800
VWidth: 0
Flags: H
LayerCount: 2
Fore
SplineSet
301 500 m 1
 399 500 l 1
 400 501 l 1
 400 599 l 1
 401 600 l 1
 499 600 l 1
 500 599 l 1
 500 501 l 1
 501 500 l 1
 699 500 l 1
 700 499 l 1
 700 401 l 1
 699 400 l 1
 201 400 l 1
 200 399 l 1
 200 301 l 1
 201 300 l 1
 599 300 l 1
 600 299 l 1
 600 201 l 1
 599 200 l 1
 201 200 l 1
 200 199 l 1
 200 101 l 1
 201 100 l 1
 699 100 l 1
 700 99 l 1
 700 1 l 1
 699 0 l 1
 101 0 l 1
 100 1 l 1
 100 499 l 1
 101 500 l 1
 199 500 l 1
 200 501 l 1
 200 599 l 1
 201 600 l 1
 299 600 l 1
 300 599 l 1
 300 501 l 1
 301 500 l 1
301 600 m 1
 300 601 l 1
 300 699 l 1
 301 700 l 1
 399 700 l 1
 400 699 l 1
 400 601 l 1
 399 600 l 1
 301 600 l 1
EndSplineSet
EndChar

StartChar: Edieresis
Encoding: 203 203 33
Width: 800
VWidth: 0
Flags: H
LayerCount: 2
Fore
SplineSet
699 500 m 1
 700 499 l 1
 700 401 l 1
 699 400 l 1
 201 400 l 1
 200 399 l 1
 200 301 l 1
 201 300 l 1
 599 300 l 1
 600 299 l 1
 600 201 l 1
 599 200 l 1
 201 200 l 1
 200 199 l 1
 200 101 l 1
 201 100 l 1
 699 100 l 1
 700 99 l 1
 700 1 l 1
 699 0 l 1
 101 0 l 1
 100 1 l 1
 100 499 l 1
 101 500 l 1
 699 500 l 1
201 600 m 1
 200 601 l 1
 200 699 l 1
 201 700 l 1
 299 700 l 1
 300 699 l 1
 300 601 l 1
 299 600 l 1
 201 600 l 1
501 600 m 1
 500 601 l 1
 500 699 l 1
 501 700 l 1
 599 700 l 1
 600 699 l 1
 600 601 l 1
 599 600 l 1
 501 600 l 1
EndSplineSet
EndChar

StartChar: Edotaccent
Encoding: 278 278 34
Width: 800
VWidth: 0
Flags: H
LayerCount: 2
Fore
SplineSet
599 500 m 1
 600 499 l 1
 600 401 l 1
 599 400 l 1
 201 400 l 1
 200 399 l 1
 200 301 l 1
 201 300 l 1
 499 300 l 1
 500 299 l 1
 500 201 l 1
 499 200 l 1
 201 200 l 1
 200 199 l 1
 200 101 l 1
 201 100 l 1
 599 100 l 1
 600 99 l 1
 600 1 l 1
 599 0 l 1
 101 0 l 1
 100 1 l 1
 100 499 l 1
 101 500 l 1
 599 500 l 1
301 600 m 1
 300 601 l 1
 300 699 l 1
 301 700 l 1
 399 700 l 1
 400 699 l 1
 400 601 l 1
 399 600 l 1
 301 600 l 1
EndSplineSet
EndChar

StartChar: Egrave
Encoding: 200 200 35
Width: 800
VWidth: 0
Flags: H
LayerCount: 2
Fore
SplineSet
501 500 m 1
 699 500 l 1
 700 499 l 1
 700 401 l 1
 699 400 l 1
 201 400 l 1
 200 399 l 1
 200 301 l 1
 201 300 l 1
 599 300 l 1
 600 299 l 1
 600 201 l 1
 599 200 l 1
 201 200 l 1
 200 199 l 1
 200 101 l 1
 201 100 l 1
 699 100 l 1
 700 99 l 1
 700 1 l 1
 699 0 l 1
 101 0 l 1
 100 1 l 1
 100 499 l 1
 101 500 l 1
 399 500 l 1
 400 501 l 1
 400 599 l 1
 401 600 l 1
 499 600 l 1
 500 599 l 1
 500 501 l 1
 501 500 l 1
301 600 m 1
 300 601 l 1
 300 699 l 1
 301 700 l 1
 399 700 l 1
 400 699 l 1
 400 601 l 1
 399 600 l 1
 301 600 l 1
EndSplineSet
EndChar

StartChar: Emacron
Encoding: 274 274 36
Width: 800
VWidth: 0
Flags: H
LayerCount: 2
Fore
SplineSet
699 500 m 1
 700 499 l 1
 700 401 l 1
 699 400 l 1
 201 400 l 1
 200 399 l 1
 200 301 l 1
 201 300 l 1
 599 300 l 1
 600 299 l 1
 600 201 l 1
 599 200 l 1
 201 200 l 1
 200 199 l 1
 200 101 l 1
 201 100 l 1
 699 100 l 1
 700 99 l 1
 700 1 l 1
 699 0 l 1
 101 0 l 1
 100 1 l 1
 100 499 l 1
 101 500 l 1
 699 500 l 1
201 600 m 1
 200 601 l 1
 200 699 l 1
 201 700 l 1
 599 700 l 1
 600 699 l 1
 600 601 l 1
 599 600 l 1
 201 600 l 1
EndSplineSet
EndChar

StartChar: Eng
Encoding: 330 330 37
Width: 800
VWidth: 0
Flags: H
LayerCount: 2
Fore
SplineSet
299 500 m 1
 300 499 l 1
 300 401 l 1
 299 400 l 1
 201 400 l 1
 200 399 l 1
 200 1 l 1
 199 0 l 1
 101 0 l 1
 100 1 l 1
 100 599 l 1
 101 600 l 1
 199 600 l 1
 200 599 l 1
 200 501 l 1
 201 500 l 1
 299 500 l 1
301 300 m 1
 300 301 l 1
 300 399 l 1
 301 400 l 1
 399 400 l 1
 400 399 l 1
 400 301 l 1
 399 300 l 1
 301 300 l 1
401 200 m 1
 400 201 l 1
 400 299 l 1
 401 300 l 1
 499 300 l 1
 500 299 l 1
 500 201 l 1
 499 200 l 1
 401 200 l 1
501 -100 m 1
 500 -99 l 1
 500 -1 l 1
 501 0 l 1
 599 0 l 1
 600 1 l 1
 600 99 l 1
 599 100 l 1
 501 100 l 1
 500 101 l 1
 500 199 l 1
 501 200 l 1
 599 200 l 1
 600 201 l 1
 600 599 l 1
 601 600 l 1
 699 600 l 1
 700 599 l 1
 700 -99 l 1
 699 -100 l 1
 501 -100 l 1
EndSplineSet
EndChar

StartChar: Eogonek
Encoding: 280 280 38
Width: 800
VWidth: 0
Flags: H
LayerCount: 2
Fore
SplineSet
501 0 m 1
 500 -1 l 1
 500 -99 l 1
 499 -100 l 1
 401 -100 l 1
 400 -99 l 1
 400 -1 l 1
 399 0 l 1
 101 0 l 1
 100 1 l 1
 100 499 l 1
 101 500 l 1
 699 500 l 1
 700 499 l 1
 700 401 l 1
 699 400 l 1
 201 400 l 1
 200 399 l 1
 200 301 l 1
 201 300 l 1
 599 300 l 1
 600 299 l 1
 600 201 l 1
 599 200 l 1
 201 200 l 1
 200 199 l 1
 200 101 l 1
 201 100 l 1
 699 100 l 1
 700 99 l 1
 700 1 l 1
 699 0 l 1
 501 0 l 1
EndSplineSet
EndChar

StartChar: Epsilon
Encoding: 917 917 39
Width: 800
VWidth: 0
Flags: H
LayerCount: 2
Fore
SplineSet
699 600 m 1
 700 599 l 1
 700 501 l 1
 699 500 l 1
 201 500 l 1
 200 499 l 1
 200 401 l 1
 201 400 l 1
 599 400 l 1
 600 399 l 1
 600 301 l 1
 599 300 l 1
 201 300 l 1
 200 299 l 1
 200 101 l 1
 201 100 l 1
 699 100 l 1
 700 99 l 1
 700 1 l 1
 699 0 l 1
 101 0 l 1
 100 1 l 1
 100 599 l 1
 101 600 l 1
 699 600 l 1
EndSplineSet
EndChar

StartChar: Epsilontonos
Encoding: 904 904 40
Width: 800
VWidth: 0
Flags: H
LayerCount: 2
Fore
SplineSet
699 500 m 1
 700 499 l 1
 700 401 l 1
 699 400 l 1
 201 400 l 1
 200 399 l 1
 200 301 l 1
 201 300 l 1
 599 300 l 1
 600 299 l 1
 600 201 l 1
 599 200 l 1
 201 200 l 1
 200 199 l 1
 200 101 l 1
 201 100 l 1
 699 100 l 1
 700 99 l 1
 700 1 l 1
 699 0 l 1
 101 0 l 1
 100 1 l 1
 100 499 l 1
 101 500 l 1
 699 500 l 1
101 600 m 1
 100 601 l 1
 100 699 l 1
 101 700 l 1
 199 700 l 1
 200 699 l 1
 200 601 l 1
 199 600 l 1
 101 600 l 1
1 500 m 1
 0 501 l 1
 0 599 l 1
 1 600 l 1
 99 600 l 1
 100 599 l 1
 100 501 l 1
 99 500 l 1
 1 500 l 1
EndSplineSet
EndChar

StartChar: Eta
Encoding: 919 919 41
Width: 800
VWidth: 0
Flags: H
LayerCount: 2
Fore
SplineSet
100 599 m 1
 101 600 l 1
 199 600 l 1
 200 599 l 1
 200 301 l 1
 201 300 l 1
 599 300 l 1
 600 301 l 1
 600 599 l 1
 601 600 l 1
 699 600 l 1
 700 599 l 1
 700 1 l 1
 699 0 l 1
 601 0 l 1
 600 1 l 1
 600 199 l 1
 599 200 l 1
 201 200 l 1
 200 199 l 1
 200 1 l 1
 199 0 l 1
 101 0 l 1
 100 1 l 1
 100 599 l 1
EndSplineSet
EndChar

StartChar: Etatonos
Encoding: 905 905 42
Width: 800
VWidth: 0
Flags: H
LayerCount: 2
Fore
SplineSet
200 499 m 1
 201 500 l 1
 299 500 l 1
 300 499 l 1
 300 301 l 1
 301 300 l 1
 599 300 l 1
 600 301 l 1
 600 499 l 1
 601 500 l 1
 699 500 l 1
 700 499 l 1
 700 1 l 1
 699 0 l 1
 601 0 l 1
 600 1 l 1
 600 199 l 1
 599 200 l 1
 301 200 l 1
 300 199 l 1
 300 1 l 1
 299 0 l 1
 201 0 l 1
 200 1 l 1
 200 499 l 1
101 600 m 1
 100 601 l 1
 100 699 l 1
 101 700 l 1
 199 700 l 1
 200 699 l 1
 200 601 l 1
 199 600 l 1
 101 600 l 1
1 500 m 1
 0 501 l 1
 0 599 l 1
 1 600 l 1
 99 600 l 1
 100 599 l 1
 100 501 l 1
 99 500 l 1
 1 500 l 1
EndSplineSet
EndChar

StartChar: Eth
Encoding: 208 208 43
Width: 800
VWidth: 0
Flags: H
LayerCount: 2
Fore
SplineSet
499 600 m 1
 500 599 l 1
 500 501 l 1
 499 500 l 1
 201 500 l 1
 200 499 l 1
 200 401 l 1
 201 400 l 1
 399 400 l 1
 400 399 l 1
 400 301 l 1
 399 300 l 1
 201 300 l 1
 200 299 l 1
 200 101 l 1
 201 100 l 1
 499 100 l 1
 500 99 l 1
 500 1 l 1
 499 0 l 1
 101 0 l 1
 100 1 l 1
 100 299 l 1
 99 300 l 1
 1 300 l 1
 0 301 l 1
 0 399 l 1
 1 400 l 1
 99 400 l 1
 100 401 l 1
 100 599 l 1
 101 600 l 1
 499 600 l 1
501 400 m 1
 500 401 l 1
 500 499 l 1
 501 500 l 1
 599 500 l 1
 600 499 l 1
 600 401 l 1
 599 400 l 1
 501 400 l 1
600 399 m 1
 601 400 l 1
 699 400 l 1
 700 399 l 1
 700 201 l 1
 699 200 l 1
 601 200 l 1
 600 201 l 1
 600 399 l 1
501 100 m 1
 500 101 l 1
 500 199 l 1
 501 200 l 1
 599 200 l 1
 600 199 l 1
 600 101 l 1
 599 100 l 1
 501 100 l 1
EndSplineSet
EndChar

StartChar: Euro
Encoding: 8364 8364 44
Width: 800
VWidth: 0
Flags: H
LayerCount: 2
Fore
SplineSet
601 100 m 1
 600 101 l 1
 600 199 l 1
 601 200 l 1
 699 200 l 1
 700 199 l 1
 700 101 l 1
 699 100 l 1
 601 100 l 1
399 300 m 1
 400 299 l 1
 400 201 l 1
 399 200 l 1
 301 200 l 1
 300 199 l 1
 300 101 l 1
 299 100 l 1
 201 100 l 1
 200 101 l 1
 200 199 l 1
 199 200 l 1
 101 200 l 1
 100 201 l 1
 100 299 l 1
 101 300 l 1
 199 300 l 1
 200 301 l 1
 200 399 l 1
 199 400 l 1
 101 400 l 1
 100 401 l 1
 100 499 l 1
 101 500 l 1
 199 500 l 1
 200 501 l 1
 200 599 l 1
 201 600 l 1
 299 600 l 1
 300 599 l 1
 300 501 l 1
 301 500 l 1
 499 500 l 1
 500 499 l 1
 500 401 l 1
 499 400 l 1
 301 400 l 1
 300 399 l 1
 300 301 l 1
 301 300 l 1
 399 300 l 1
599 100 m 1
 600 99 l 1
 600 1 l 1
 599 0 l 1
 301 0 l 1
 300 1 l 1
 300 99 l 1
 301 100 l 1
 599 100 l 1
599 700 m 1
 600 699 l 1
 600 601 l 1
 599 600 l 1
 301 600 l 1
 300 601 l 1
 300 699 l 1
 301 700 l 1
 599 700 l 1
601 500 m 1
 600 501 l 1
 600 599 l 1
 601 600 l 1
 699 600 l 1
 700 599 l 1
 700 501 l 1
 699 500 l 1
 601 500 l 1
EndSplineSet
EndChar

StartChar: F
Encoding: 70 70 45
Width: 800
VWidth: 0
Flags: H
LayerCount: 2
Fore
SplineSet
699 600 m 1
 700 599 l 1
 700 501 l 1
 699 500 l 1
 201 500 l 1
 200 499 l 1
 200 401 l 1
 201 400 l 1
 599 400 l 1
 600 399 l 1
 600 301 l 1
 599 300 l 1
 201 300 l 1
 200 299 l 1
 200 1 l 1
 199 0 l 1
 101 0 l 1
 100 1 l 1
 100 599 l 1
 101 600 l 1
 699 600 l 1
EndSplineSet
EndChar

StartChar: G
Encoding: 71 71 46
Width: 800
VWidth: 0
Flags: H
LayerCount: 2
Fore
SplineSet
601 400 m 1
 600 401 l 1
 600 499 l 1
 601 500 l 1
 699 500 l 1
 700 499 l 1
 700 401 l 1
 699 400 l 1
 601 400 l 1
201 500 m 1
 200 501 l 1
 200 599 l 1
 201 600 l 1
 599 600 l 1
 600 599 l 1
 600 501 l 1
 599 500 l 1
 201 500 l 1
201 0 m 1
 200 1 l 1
 200 99 l 1
 201 100 l 1
 599 100 l 1
 600 99 l 1
 600 1 l 1
 599 0 l 1
 201 0 l 1
100 499 m 1
 101 500 l 1
 199 500 l 1
 200 499 l 1
 200 101 l 1
 199 100 l 1
 101 100 l 1
 100 101 l 1
 100 499 l 1
601 100 m 1
 600 101 l 1
 600 199 l 1
 599 200 l 1
 401 200 l 1
 400 201 l 1
 400 299 l 1
 401 300 l 1
 699 300 l 1
 700 299 l 1
 700 101 l 1
 699 100 l 1
 601 100 l 1
EndSplineSet
EndChar

StartChar: Gamma
Encoding: 915 915 47
Width: 800
VWidth: 0
Flags: H
LayerCount: 2
Fore
SplineSet
101 600 m 1
 699 600 l 1
 700 599 l 1
 700 501 l 1
 699 500 l 1
 201 500 l 1
 200 499 l 1
 200 1 l 1
 199 0 l 1
 101 0 l 1
 100 1 l 1
 100 599 l 1
 101 600 l 1
EndSplineSet
EndChar

StartChar: Gbreve
Encoding: 286 286 48
Width: 800
VWidth: 0
Flags: H
LayerCount: 2
Fore
SplineSet
201 0 m 1
 200 1 l 1
 200 99 l 1
 201 100 l 1
 599 100 l 1
 600 99 l 1
 600 1 l 1
 599 0 l 1
 201 0 l 1
100 399 m 1
 101 400 l 1
 199 400 l 1
 200 399 l 1
 200 101 l 1
 199 100 l 1
 101 100 l 1
 100 101 l 1
 100 399 l 1
601 100 m 1
 600 101 l 1
 600 199 l 1
 599 200 l 1
 401 200 l 1
 400 201 l 1
 400 299 l 1
 401 300 l 1
 699 300 l 1
 700 299 l 1
 700 101 l 1
 699 100 l 1
 601 100 l 1
201 400 m 1
 200 401 l 1
 200 499 l 1
 201 500 l 1
 299 500 l 1
 300 501 l 1
 300 599 l 1
 301 600 l 1
 499 600 l 1
 500 599 l 1
 500 501 l 1
 501 500 l 1
 699 500 l 1
 700 499 l 1
 700 401 l 1
 699 400 l 1
 201 400 l 1
201 600 m 1
 200 601 l 1
 200 699 l 1
 201 700 l 1
 299 700 l 1
 300 699 l 1
 300 601 l 1
 299 600 l 1
 201 600 l 1
501 600 m 1
 500 601 l 1
 500 699 l 1
 501 700 l 1
 599 700 l 1
 600 699 l 1
 600 601 l 1
 599 600 l 1
 501 600 l 1
EndSplineSet
EndChar

StartChar: uni0122
Encoding: 290 290 49
Width: 800
VWidth: 0
Flags: H
LayerCount: 2
Fore
SplineSet
601 400 m 1
 600 401 l 1
 600 499 l 1
 601 500 l 1
 699 500 l 1
 700 499 l 1
 700 401 l 1
 699 400 l 1
 601 400 l 1
201 500 m 1
 200 501 l 1
 200 599 l 1
 201 600 l 1
 599 600 l 1
 600 599 l 1
 600 501 l 1
 599 500 l 1
 201 500 l 1
100 499 m 1
 101 500 l 1
 199 500 l 1
 200 499 l 1
 200 101 l 1
 199 100 l 1
 101 100 l 1
 100 101 l 1
 100 499 l 1
601 100 m 1
 600 101 l 1
 600 199 l 1
 599 200 l 1
 401 200 l 1
 400 201 l 1
 400 299 l 1
 401 300 l 1
 699 300 l 1
 700 299 l 1
 700 101 l 1
 699 100 l 1
 601 100 l 1
400 -99 m 1
 400 -1 l 1
 399 0 l 1
 201 0 l 1
 200 1 l 1
 200 99 l 1
 201 100 l 1
 599 100 l 1
 600 99 l 1
 600 1 l 1
 599 0 l 1
 501 0 l 1
 500 -1 l 1
 500 -99 l 1
 499 -100 l 1
 401 -100 l 1
 400 -99 l 1
EndSplineSet
EndChar

StartChar: Gcircumflex
Encoding: 284 284 50
Width: 800
VWidth: 0
Flags: H
LayerCount: 2
Fore
SplineSet
201 0 m 1
 200 1 l 1
 200 99 l 1
 201 100 l 1
 599 100 l 1
 600 99 l 1
 600 1 l 1
 599 0 l 1
 201 0 l 1
100 399 m 1
 101 400 l 1
 199 400 l 1
 200 399 l 1
 200 101 l 1
 199 100 l 1
 101 100 l 1
 100 101 l 1
 100 399 l 1
601 100 m 1
 600 101 l 1
 600 199 l 1
 599 200 l 1
 401 200 l 1
 400 201 l 1
 400 299 l 1
 401 300 l 1
 699 300 l 1
 700 299 l 1
 700 101 l 1
 699 100 l 1
 601 100 l 1
201 400 m 1
 200 401 l 1
 200 499 l 1
 201 500 l 1
 299 500 l 1
 300 501 l 1
 300 599 l 1
 301 600 l 1
 399 600 l 1
 400 599 l 1
 400 501 l 1
 401 500 l 1
 499 500 l 1
 500 501 l 1
 500 599 l 1
 501 600 l 1
 599 600 l 1
 600 599 l 1
 600 501 l 1
 601 500 l 1
 699 500 l 1
 700 499 l 1
 700 401 l 1
 699 400 l 1
 201 400 l 1
401 600 m 1
 400 601 l 1
 400 699 l 1
 401 700 l 1
 499 700 l 1
 500 699 l 1
 500 601 l 1
 499 600 l 1
 401 600 l 1
EndSplineSet
EndChar

StartChar: Gdotaccent
Encoding: 288 288 51
Width: 800
VWidth: 0
Flags: H
LayerCount: 2
Fore
SplineSet
201 400 m 1
 200 401 l 1
 200 499 l 1
 201 500 l 1
 599 500 l 1
 600 499 l 1
 600 401 l 1
 599 400 l 1
 201 400 l 1
201 0 m 1
 200 1 l 1
 200 99 l 1
 201 100 l 1
 599 100 l 1
 600 99 l 1
 600 1 l 1
 599 0 l 1
 201 0 l 1
100 399 m 1
 101 400 l 1
 199 400 l 1
 200 399 l 1
 200 101 l 1
 199 100 l 1
 101 100 l 1
 100 101 l 1
 100 399 l 1
601 100 m 1
 600 101 l 1
 600 199 l 1
 599 200 l 1
 401 200 l 1
 400 201 l 1
 400 299 l 1
 401 300 l 1
 699 300 l 1
 700 299 l 1
 700 101 l 1
 699 100 l 1
 601 100 l 1
401 600 m 1
 400 601 l 1
 400 699 l 1
 401 700 l 1
 499 700 l 1
 500 699 l 1
 500 601 l 1
 499 600 l 1
 401 600 l 1
EndSplineSet
EndChar

StartChar: H
Encoding: 72 72 52
Width: 800
VWidth: 0
Flags: H
LayerCount: 2
Fore
SplineSet
100 599 m 1
 101 600 l 1
 199 600 l 1
 200 599 l 1
 200 301 l 1
 201 300 l 1
 599 300 l 1
 600 301 l 1
 600 599 l 1
 601 600 l 1
 699 600 l 1
 700 599 l 1
 700 1 l 1
 699 0 l 1
 601 0 l 1
 600 1 l 1
 600 199 l 1
 599 200 l 1
 201 200 l 1
 200 199 l 1
 200 1 l 1
 199 0 l 1
 101 0 l 1
 100 1 l 1
 100 599 l 1
EndSplineSet
EndChar

StartChar: H18533
Encoding: 9679 9679 53
Width: 800
VWidth: 0
Flags: H
LayerCount: 2
Fore
SplineSet
599 400 m 1
 600 399 l 1
 600 201 l 1
 599 200 l 1
 501 200 l 1
 500 199 l 1
 500 101 l 1
 499 100 l 1
 301 100 l 1
 300 101 l 1
 300 199 l 1
 299 200 l 1
 201 200 l 1
 200 201 l 1
 200 399 l 1
 201 400 l 1
 299 400 l 1
 300 401 l 1
 300 499 l 1
 301 500 l 1
 499 500 l 1
 500 499 l 1
 500 401 l 1
 501 400 l 1
 599 400 l 1
EndSplineSet
EndChar

StartChar: H18543
Encoding: 9642 9642 54
Width: 800
VWidth: 0
Flags: H
LayerCount: 2
Fore
SplineSet
200 500 m 1
 600 500 l 1
 600 100 l 1
 200 100 l 1
 200 500 l 1
EndSplineSet
EndChar

StartChar: H18551
Encoding: 9643 9643 55
Width: 800
VWidth: 0
Flags: H
LayerCount: 2
Fore
SplineSet
200 500 m 1
 600 500 l 1
 600 100 l 1
 200 100 l 1
 200 500 l 1
300 400 m 1
 300 200 l 1
 500 200 l 1
 500 400 l 1
 300 400 l 1
EndSplineSet
EndChar

StartChar: H22073
Encoding: 9633 9633 56
Width: 800
VWidth: 0
Flags: H
LayerCount: 2
Fore
SplineSet
100 600 m 1
 700 600 l 1
 700 0 l 1
 100 0 l 1
 100 600 l 1
200 500 m 1
 200 100 l 1
 600 100 l 1
 600 500 l 1
 200 500 l 1
EndSplineSet
EndChar

StartChar: Hbar
Encoding: 294 294 57
Width: 800
VWidth: 0
Flags: H
LayerCount: 2
Fore
SplineSet
201 0 m 1
 200 1 l 1
 200 499 l 1
 199 500 l 1
 101 500 l 1
 100 501 l 1
 100 599 l 1
 101 600 l 1
 199 600 l 1
 200 601 l 1
 200 699 l 1
 201 700 l 1
 299 700 l 1
 300 699 l 1
 300 601 l 1
 301 600 l 1
 499 600 l 1
 500 601 l 1
 500 699 l 1
 501 700 l 1
 599 700 l 1
 600 699 l 1
 600 601 l 1
 601 600 l 1
 699 600 l 1
 700 599 l 1
 700 501 l 1
 699 500 l 1
 601 500 l 1
 600 499 l 1
 600 1 l 1
 599 0 l 1
 501 0 l 1
 500 1 l 1
 500 299 l 1
 499 300 l 1
 301 300 l 1
 300 299 l 1
 300 1 l 1
 299 0 l 1
 201 0 l 1
500 499 m 1
 499 500 l 1
 301 500 l 1
 300 499 l 1
 300 401 l 1
 301 400 l 1
 499 400 l 1
 500 401 l 1
 500 499 l 1
EndSplineSet
EndChar

StartChar: Hcircumflex
Encoding: 292 292 58
Width: 800
VWidth: 0
Flags: H
LayerCount: 2
Fore
SplineSet
100 599 m 1
 101 600 l 1
 199 600 l 1
 200 599 l 1
 200 301 l 1
 201 300 l 1
 599 300 l 1
 600 301 l 1
 600 499 l 1
 599 500 l 1
 501 500 l 1
 500 501 l 1
 500 599 l 1
 501 600 l 1
 699 600 l 1
 700 599 l 1
 700 1 l 1
 699 0 l 1
 601 0 l 1
 600 1 l 1
 600 199 l 1
 599 200 l 1
 201 200 l 1
 200 199 l 1
 200 1 l 1
 199 0 l 1
 101 0 l 1
 100 1 l 1
 100 599 l 1
301 500 m 1
 300 501 l 1
 300 599 l 1
 301 600 l 1
 399 600 l 1
 400 599 l 1
 400 501 l 1
 399 500 l 1
 301 500 l 1
401 600 m 1
 400 601 l 1
 400 699 l 1
 401 700 l 1
 499 700 l 1
 500 699 l 1
 500 601 l 1
 499 600 l 1
 401 600 l 1
EndSplineSet
EndChar

StartChar: I
Encoding: 73 73 59
Width: 800
VWidth: 0
Flags: H
LayerCount: 2
Fore
SplineSet
201 0 m 1
 200 1 l 1
 200 99 l 1
 201 100 l 1
 399 100 l 1
 400 101 l 1
 400 499 l 1
 399 500 l 1
 201 500 l 1
 200 501 l 1
 200 599 l 1
 201 600 l 1
 699 600 l 1
 700 599 l 1
 700 501 l 1
 699 500 l 1
 501 500 l 1
 500 499 l 1
 500 101 l 1
 501 100 l 1
 699 100 l 1
 700 99 l 1
 700 1 l 1
 699 0 l 1
 201 0 l 1
EndSplineSet
EndChar

StartChar: IJ
Encoding: 306 306 60
Width: 800
VWidth: 0
Flags: H
LayerCount: 2
Fore
SplineSet
600 599 m 1
 601 600 l 1
 699 600 l 1
 700 599 l 1
 700 101 l 1
 699 100 l 1
 601 100 l 1
 600 101 l 1
 600 599 l 1
400 299 m 1
 401 300 l 1
 499 300 l 1
 500 299 l 1
 500 101 l 1
 499 100 l 1
 401 100 l 1
 400 101 l 1
 400 299 l 1
501 0 m 1
 500 1 l 1
 500 99 l 1
 501 100 l 1
 599 100 l 1
 600 99 l 1
 600 1 l 1
 599 0 l 1
 501 0 l 1
1 0 m 1
 0 1 l 1
 0 99 l 1
 1 100 l 1
 99 100 l 1
 100 101 l 1
 100 499 l 1
 99 500 l 1
 1 500 l 1
 0 501 l 1
 0 599 l 1
 1 600 l 1
 299 600 l 1
 300 599 l 1
 300 501 l 1
 299 500 l 1
 201 500 l 1
 200 499 l 1
 200 101 l 1
 201 100 l 1
 299 100 l 1
 300 99 l 1
 300 1 l 1
 299 0 l 1
 1 0 l 1
EndSplineSet
EndChar

StartChar: Iacute
Encoding: 205 205 61
Width: 800
VWidth: 0
Flags: H
LayerCount: 2
Fore
SplineSet
401 600 m 1
 400 601 l 1
 400 699 l 1
 401 700 l 1
 499 700 l 1
 500 699 l 1
 500 601 l 1
 499 600 l 1
 401 600 l 1
599 100 m 1
 600 99 l 1
 600 1 l 1
 599 0 l 1
 101 0 l 1
 100 1 l 1
 100 99 l 1
 101 100 l 1
 299 100 l 1
 300 101 l 1
 300 399 l 1
 299 400 l 1
 101 400 l 1
 100 401 l 1
 100 499 l 1
 101 500 l 1
 299 500 l 1
 300 501 l 1
 300 599 l 1
 301 600 l 1
 399 600 l 1
 400 599 l 1
 400 501 l 1
 401 500 l 1
 599 500 l 1
 600 499 l 1
 600 401 l 1
 599 400 l 1
 401 400 l 1
 400 399 l 1
 400 101 l 1
 401 100 l 1
 599 100 l 1
EndSplineSet
EndChar

StartChar: Ibreve
Encoding: 300 300 62
Width: 800
VWidth: 0
Flags: H
LayerCount: 2
Fore
SplineSet
499 600 m 1
 500 599 l 1
 500 501 l 1
 499 500 l 1
 201 500 l 1
 200 501 l 1
 200 599 l 1
 201 600 l 1
 499 600 l 1
101 600 m 1
 100 601 l 1
 100 699 l 1
 101 700 l 1
 199 700 l 1
 200 699 l 1
 200 601 l 1
 199 600 l 1
 101 600 l 1
501 600 m 1
 500 601 l 1
 500 699 l 1
 501 700 l 1
 599 700 l 1
 600 699 l 1
 600 601 l 1
 599 600 l 1
 501 600 l 1
101 0 m 1
 100 1 l 1
 100 99 l 1
 101 100 l 1
 299 100 l 1
 300 101 l 1
 300 299 l 1
 299 300 l 1
 101 300 l 1
 100 301 l 1
 100 399 l 1
 101 400 l 1
 599 400 l 1
 600 399 l 1
 600 301 l 1
 599 300 l 1
 401 300 l 1
 400 299 l 1
 400 101 l 1
 401 100 l 1
 599 100 l 1
 600 99 l 1
 600 1 l 1
 599 0 l 1
 101 0 l 1
EndSplineSet
EndChar

StartChar: Icircumflex
Encoding: 206 206 63
Width: 800
VWidth: 0
Flags: H
LayerCount: 2
Fore
SplineSet
301 600 m 1
 300 601 l 1
 300 699 l 1
 301 700 l 1
 399 700 l 1
 400 699 l 1
 400 601 l 1
 399 600 l 1
 301 600 l 1
599 100 m 1
 600 99 l 1
 600 1 l 1
 599 0 l 1
 101 0 l 1
 100 1 l 1
 100 99 l 1
 101 100 l 1
 299 100 l 1
 300 101 l 1
 300 399 l 1
 299 400 l 1
 101 400 l 1
 100 401 l 1
 100 499 l 1
 101 500 l 1
 199 500 l 1
 200 501 l 1
 200 599 l 1
 201 600 l 1
 299 600 l 1
 300 599 l 1
 300 501 l 1
 301 500 l 1
 399 500 l 1
 400 501 l 1
 400 599 l 1
 401 600 l 1
 499 600 l 1
 500 599 l 1
 500 501 l 1
 501 500 l 1
 599 500 l 1
 600 499 l 1
 600 401 l 1
 599 400 l 1
 401 400 l 1
 400 399 l 1
 400 101 l 1
 401 100 l 1
 599 100 l 1
EndSplineSet
EndChar

StartChar: Idieresis
Encoding: 207 207 64
Width: 800
VWidth: 0
Flags: H
LayerCount: 2
Fore
SplineSet
101 0 m 1
 100 1 l 1
 100 99 l 1
 101 100 l 1
 299 100 l 1
 300 101 l 1
 300 399 l 1
 299 400 l 1
 101 400 l 1
 100 401 l 1
 100 499 l 1
 101 500 l 1
 599 500 l 1
 600 499 l 1
 600 401 l 1
 599 400 l 1
 401 400 l 1
 400 399 l 1
 400 101 l 1
 401 100 l 1
 599 100 l 1
 600 99 l 1
 600 1 l 1
 599 0 l 1
 101 0 l 1
201 600 m 1
 200 601 l 1
 200 699 l 1
 201 700 l 1
 299 700 l 1
 300 699 l 1
 300 601 l 1
 299 600 l 1
 201 600 l 1
401 600 m 1
 400 601 l 1
 400 699 l 1
 401 700 l 1
 499 700 l 1
 500 699 l 1
 500 601 l 1
 499 600 l 1
 401 600 l 1
EndSplineSet
EndChar

StartChar: Idotaccent
Encoding: 304 304 65
Width: 800
VWidth: 0
Flags: H
LayerCount: 2
Fore
SplineSet
201 0 m 1
 200 1 l 1
 200 99 l 1
 201 100 l 1
 399 100 l 1
 400 101 l 1
 400 399 l 1
 399 400 l 1
 201 400 l 1
 200 401 l 1
 200 499 l 1
 201 500 l 1
 699 500 l 1
 700 499 l 1
 700 401 l 1
 699 400 l 1
 501 400 l 1
 500 399 l 1
 500 101 l 1
 501 100 l 1
 699 100 l 1
 700 99 l 1
 700 1 l 1
 699 0 l 1
 201 0 l 1
401 600 m 1
 400 601 l 1
 400 699 l 1
 401 700 l 1
 499 700 l 1
 500 699 l 1
 500 601 l 1
 499 600 l 1
 401 600 l 1
EndSplineSet
EndChar

StartChar: Igrave
Encoding: 204 204 66
Width: 800
VWidth: 0
Flags: H
LayerCount: 2
Fore
SplineSet
201 600 m 1
 200 601 l 1
 200 699 l 1
 201 700 l 1
 299 700 l 1
 300 699 l 1
 300 601 l 1
 299 600 l 1
 201 600 l 1
599 100 m 1
 600 99 l 1
 600 1 l 1
 599 0 l 1
 101 0 l 1
 100 1 l 1
 100 99 l 1
 101 100 l 1
 299 100 l 1
 300 101 l 1
 300 399 l 1
 299 400 l 1
 101 400 l 1
 100 401 l 1
 100 499 l 1
 101 500 l 1
 299 500 l 1
 300 501 l 1
 300 599 l 1
 301 600 l 1
 399 600 l 1
 400 599 l 1
 400 501 l 1
 401 500 l 1
 599 500 l 1
 600 499 l 1
 600 401 l 1
 599 400 l 1
 401 400 l 1
 400 399 l 1
 400 101 l 1
 401 100 l 1
 599 100 l 1
EndSplineSet
EndChar

StartChar: Imacron
Encoding: 298 298 67
Width: 800
VWidth: 0
Flags: H
LayerCount: 2
Fore
SplineSet
101 0 m 1
 100 1 l 1
 100 99 l 1
 101 100 l 1
 299 100 l 1
 300 101 l 1
 300 399 l 1
 299 400 l 1
 101 400 l 1
 100 401 l 1
 100 499 l 1
 101 500 l 1
 599 500 l 1
 600 499 l 1
 600 401 l 1
 599 400 l 1
 401 400 l 1
 400 399 l 1
 400 101 l 1
 401 100 l 1
 599 100 l 1
 600 99 l 1
 600 1 l 1
 599 0 l 1
 101 0 l 1
101 600 m 1
 100 601 l 1
 100 699 l 1
 101 700 l 1
 599 700 l 1
 600 699 l 1
 600 601 l 1
 599 600 l 1
 101 600 l 1
EndSplineSet
EndChar

StartChar: Iogonek
Encoding: 302 302 68
Width: 800
VWidth: 0
Flags: H
LayerCount: 2
Fore
SplineSet
201 0 m 1
 200 1 l 1
 200 99 l 1
 201 100 l 1
 399 100 l 1
 400 101 l 1
 400 499 l 1
 399 500 l 1
 201 500 l 1
 200 501 l 1
 200 599 l 1
 201 600 l 1
 699 600 l 1
 700 599 l 1
 700 501 l 1
 699 500 l 1
 501 500 l 1
 500 499 l 1
 500 101 l 1
 501 100 l 1
 699 100 l 1
 700 99 l 1
 700 1 l 1
 699.75 0.75 l 1
 699.5 0.5 l 1
 699.25 0.25 l 1
 699 0 l 1
 401 0 l 1
 400 -1 l 1
 400 -99 l 1
 399 -100 l 1
 301 -100 l 1
 300 -99 l 1
 300 -1 l 1
 299 0 l 1
 201 0 l 1
EndSplineSet
EndChar

StartChar: Iota
Encoding: 921 921 69
Width: 800
VWidth: 0
Flags: H
LayerCount: 2
Fore
SplineSet
201 0 m 1
 200 1 l 1
 200 99 l 1
 201 100 l 1
 399 100 l 1
 400 101 l 1
 400 499 l 1
 399 500 l 1
 201 500 l 1
 200 501 l 1
 200 599 l 1
 201 600 l 1
 699 600 l 1
 700 599 l 1
 700 501 l 1
 699 500 l 1
 501 500 l 1
 500 499 l 1
 500 101 l 1
 501 100 l 1
 699 100 l 1
 700 99 l 1
 700 1 l 1
 699 0 l 1
 201 0 l 1
EndSplineSet
EndChar

StartChar: Iotadieresis
Encoding: 938 938 70
Width: 800
VWidth: 0
Flags: H
LayerCount: 2
Fore
SplineSet
101 0 m 1
 100 1 l 1
 100 99 l 1
 101 100 l 1
 299 100 l 1
 300 101 l 1
 300 399 l 1
 299 400 l 1
 101 400 l 1
 100 401 l 1
 100 499 l 1
 101 500 l 1
 599 500 l 1
 600 499 l 1
 600 401 l 1
 599 400 l 1
 401 400 l 1
 400 399 l 1
 400 101 l 1
 401 100 l 1
 599 100 l 1
 600 99 l 1
 600 1 l 1
 599 0 l 1
 101 0 l 1
201 600 m 1
 200 601 l 1
 200 699 l 1
 201 700 l 1
 299 700 l 1
 300 699 l 1
 300 601 l 1
 299 600 l 1
 201 600 l 1
401 600 m 1
 400 601 l 1
 400 699 l 1
 401 700 l 1
 499 700 l 1
 500 699 l 1
 500 601 l 1
 499 600 l 1
 401 600 l 1
EndSplineSet
EndChar

StartChar: Iotatonos
Encoding: 906 906 71
Width: 800
VWidth: 0
Flags: H
LayerCount: 2
Fore
SplineSet
201 0 m 1
 200 1 l 1
 200 99 l 1
 201 100 l 1
 399 100 l 1
 400 101 l 1
 400 399 l 1
 399 400 l 1
 201 400 l 1
 200 401 l 1
 200 499 l 1
 201 500 l 1
 699 500 l 1
 700 499 l 1
 700 401 l 1
 699 400 l 1
 501 400 l 1
 500 399 l 1
 500 101 l 1
 501 100 l 1
 699 100 l 1
 700 99 l 1
 700 1 l 1
 699 0 l 1
 201 0 l 1
101 600 m 1
 100 601 l 1
 100 699 l 1
 101 700 l 1
 199 700 l 1
 200 699 l 1
 200 601 l 1
 199 600 l 1
 101 600 l 1
1 500 m 1
 0 501 l 1
 0 599 l 1
 1 600 l 1
 99 600 l 1
 100 599 l 1
 100 501 l 1
 99 500 l 1
 1 500 l 1
EndSplineSet
EndChar

StartChar: Itilde
Encoding: 296 296 72
Width: 800
VWidth: 0
Flags: H
LayerCount: 2
Fore
SplineSet
301 600 m 1
 300 601 l 1
 300 699 l 1
 301 700 l 1
 399 700 l 1
 400 699 l 1
 400 601 l 1
 399 600 l 1
 301 600 l 1
599 100 m 1
 600 99 l 1
 600 1 l 1
 599 0 l 1
 101 0 l 1
 100 1 l 1
 100 99 l 1
 101 100 l 1
 299 100 l 1
 300 101 l 1
 300 399 l 1
 299 400 l 1
 101 400 l 1
 100 401 l 1
 100 499 l 1
 101 500 l 1
 199 500 l 1
 200 501 l 1
 200 599 l 1
 201 600 l 1
 299 600 l 1
 300 599 l 1
 300 501 l 1
 301 500 l 1
 399 500 l 1
 400 501 l 1
 400 599 l 1
 401 600 l 1
 499 600 l 1
 500 599 l 1
 500 501 l 1
 501 500 l 1
 599 500 l 1
 600 499 l 1
 600 401 l 1
 599 400 l 1
 401 400 l 1
 400 399 l 1
 400 101 l 1
 401 100 l 1
 599 100 l 1
501 600 m 1
 500 601 l 1
 500 699 l 1
 501 700 l 1
 599 700 l 1
 600 699 l 1
 600 601 l 1
 599 600 l 1
 501 600 l 1
EndSplineSet
EndChar

StartChar: J
Encoding: 74 74 73
Width: 800
VWidth: 0
Flags: H
LayerCount: 2
Fore
SplineSet
600 599 m 1
 601 600 l 1
 699 600 l 1
 700 599 l 1
 700 101 l 1
 699 100 l 1
 601 100 l 1
 600 101 l 1
 600 599 l 1
201 0 m 1
 200 1 l 1
 200 99 l 1
 201 100 l 1
 599 100 l 1
 600 99 l 1
 600 1 l 1
 599 0 l 1
 201 0 l 1
100 299 m 1
 101 300 l 1
 199 300 l 1
 200 299 l 1
 200 101 l 1
 199 100 l 1
 101 100 l 1
 100 101 l 1
 100 299 l 1
EndSplineSet
EndChar

StartChar: Jcircumflex
Encoding: 308 308 74
Width: 800
VWidth: 0
Flags: H
LayerCount: 2
Fore
SplineSet
600 599 m 1
 601 600 l 1
 699 600 l 1
 700 599 l 1
 700 101 l 1
 699 100 l 1
 601 100 l 1
 600 101 l 1
 600 599 l 1
201 0 m 1
 200 1 l 1
 200 99 l 1
 201 100 l 1
 599 100 l 1
 600 99 l 1
 600 1 l 1
 599 0 l 1
 201 0 l 1
100 299 m 1
 101 300 l 1
 199 300 l 1
 200 299 l 1
 200 101 l 1
 199 100 l 1
 101 100 l 1
 100 101 l 1
 100 299 l 1
201 500 m 1
 200 501 l 1
 200 599 l 1
 201 600 l 1
 299 600 l 1
 300 599 l 1
 300 501 l 1
 299 500 l 1
 201 500 l 1
401 500 m 1
 400 501 l 1
 400 599 l 1
 401 600 l 1
 499 600 l 1
 500 599 l 1
 500 501 l 1
 499 500 l 1
 401 500 l 1
301 600 m 1
 300 601 l 1
 300 699 l 1
 301 700 l 1
 399 700 l 1
 400 699 l 1
 400 601 l 1
 399 600 l 1
 301 600 l 1
EndSplineSet
EndChar

StartChar: K
Encoding: 75 75 75
Width: 800
VWidth: 0
Flags: H
LayerCount: 2
Fore
SplineSet
501 500 m 1
 500 501 l 1
 500 599 l 1
 501 600 l 1
 599 600 l 1
 600 599 l 1
 600 501 l 1
 599 500 l 1
 501 500 l 1
401 400 m 1
 400 401 l 1
 400 499 l 1
 401 500 l 1
 499 500 l 1
 500 499 l 1
 500 401 l 1
 499 400 l 1
 401 400 l 1
401 200 m 1
 400 201 l 1
 400 299 l 1
 401 300 l 1
 499 300 l 1
 500 299 l 1
 500 201 l 1
 499 200 l 1
 401 200 l 1
501 100 m 1
 500 101 l 1
 500 199 l 1
 501 200 l 1
 599 200 l 1
 600 199 l 1
 600 101 l 1
 599 100 l 1
 501 100 l 1
601 0 m 1
 600 1 l 1
 600 99 l 1
 601 100 l 1
 699 100 l 1
 700 99 l 1
 700 1 l 1
 699 0 l 1
 601 0 l 1
399 400 m 1
 400 399 l 1
 400 301 l 1
 399 300 l 1
 201 300 l 1
 200 299 l 1
 200 1 l 1
 199 0 l 1
 101 0 l 1
 100 1 l 1
 100 599 l 1
 101 600 l 1
 199 600 l 1
 200 599 l 1
 200 401 l 1
 201 400 l 1
 399 400 l 1
EndSplineSet
EndChar

StartChar: Kappa
Encoding: 922 922 76
Width: 800
VWidth: 0
Flags: H
LayerCount: 2
Fore
SplineSet
501 500 m 1
 500 501 l 1
 500 599 l 1
 501 600 l 1
 599 600 l 1
 600 599 l 1
 600 501 l 1
 599 500 l 1
 501 500 l 1
401 400 m 1
 400 401 l 1
 400 499 l 1
 401 500 l 1
 499 500 l 1
 500 499 l 1
 500 401 l 1
 499 400 l 1
 401 400 l 1
401 200 m 1
 400 201 l 1
 400 299 l 1
 401 300 l 1
 499 300 l 1
 500 299 l 1
 500 201 l 1
 499 200 l 1
 401 200 l 1
501 100 m 1
 500 101 l 1
 500 199 l 1
 501 200 l 1
 599 200 l 1
 600 199 l 1
 600 101 l 1
 599 100 l 1
 501 100 l 1
601 0 m 1
 600 1 l 1
 600 99 l 1
 601 100 l 1
 699 100 l 1
 700 99 l 1
 700 1 l 1
 699 0 l 1
 601 0 l 1
399 400 m 1
 400 399 l 1
 400 301 l 1
 399 300 l 1
 201 300 l 1
 200 299 l 1
 200 1 l 1
 199 0 l 1
 101 0 l 1
 100 1 l 1
 100 599 l 1
 101 600 l 1
 199 600 l 1
 200 599 l 1
 200 401 l 1
 201 400 l 1
 399 400 l 1
EndSplineSet
EndChar

StartChar: uni0136
Encoding: 310 310 77
Width: 800
VWidth: 0
Flags: H
LayerCount: 2
Fore
SplineSet
501 500 m 1
 500 501 l 1
 500 599 l 1
 501 600 l 1
 599 600 l 1
 600 599 l 1
 600 501 l 1
 599 500 l 1
 501 500 l 1
401 400 m 1
 400 401 l 1
 400 499 l 1
 401 500 l 1
 499 500 l 1
 500 499 l 1
 500 401 l 1
 499 400 l 1
 401 400 l 1
401 200 m 1
 400 201 l 1
 400 299 l 1
 401 300 l 1
 499 300 l 1
 500 299 l 1
 500 201 l 1
 499 200 l 1
 401 200 l 1
501 100 m 1
 500 101 l 1
 500 199 l 1
 501 200 l 1
 599 200 l 1
 600 199 l 1
 600 101 l 1
 599 100 l 1
 501 100 l 1
601 0 m 1
 600 1 l 1
 600 99 l 1
 601 100 l 1
 699 100 l 1
 700 99 l 1
 700 1 l 1
 699 0 l 1
 601 0 l 1
399 400 m 1
 400 399 l 1
 400 301 l 1
 399 300 l 1
 201 300 l 1
 200 299 l 1
 200 1 l 1
 199 0 l 1
 101 0 l 1
 100 1 l 1
 100 599 l 1
 101 600 l 1
 199 600 l 1
 200 599 l 1
 200 401 l 1
 201 400 l 1
 399 400 l 1
499 -100 m 1
 301 -100 l 1
 300 -99 l 1
 300 -1 l 1
 301 0 l 1
 399 0 l 1
 400 1 l 1
 400 99 l 1
 401 100 l 1
 499 100 l 1
 500 99 l 1
 500 -99 l 1
 499 -100 l 1
EndSplineSet
EndChar

StartChar: L
Encoding: 76 76 78
Width: 800
VWidth: 0
Flags: H
LayerCount: 2
Fore
SplineSet
101 0 m 1
 100 1 l 1
 100 599 l 1
 101 600 l 1
 199 600 l 1
 200 599 l 1
 200 101 l 1
 201 100 l 1
 699 100 l 1
 700 99 l 1
 700 1 l 1
 699 0 l 1
 101 0 l 1
EndSplineSet
EndChar

StartChar: Lacute
Encoding: 313 313 79
Width: 800
VWidth: 0
Flags: H
LayerCount: 2
Fore
SplineSet
101 0 m 1
 100 1 l 1
 100 599 l 1
 101 600 l 1
 199 600 l 1
 200 599 l 1
 200 101 l 1
 201 100 l 1
 699 100 l 1
 700 99 l 1
 700 1 l 1
 699 0 l 1
 101 0 l 1
301 500 m 1
 300 501 l 1
 300 599 l 1
 301 600 l 1
 399 600 l 1
 400 599 l 1
 400 501 l 1
 399 500 l 1
 301 500 l 1
401 600 m 1
 400 601 l 1
 400 699 l 1
 401 700 l 1
 499 700 l 1
 500 699 l 1
 500 601 l 1
 499 600 l 1
 401 600 l 1
EndSplineSet
EndChar

StartChar: Lambda
Encoding: 923 923 80
Width: 800
VWidth: 0
Flags: H
LayerCount: 2
Fore
SplineSet
400 499 m 1
 401 500 l 1
 499 500 l 1
 500 499 l 1
 500 201 l 1
 499 200 l 1
 401 200 l 1
 400 201 l 1
 400 499 l 1
200 499 m 1
 201 500 l 1
 299 500 l 1
 300 499 l 1
 300 201 l 1
 299 200 l 1
 201 200 l 1
 200 201 l 1
 200 499 l 1
301 500 m 1
 300 501 l 1
 300 599 l 1
 301 600 l 1
 399 600 l 1
 400 599 l 1
 400 501 l 1
 399 500 l 1
 301 500 l 1
100 199 m 1
 101 200 l 1
 199 200 l 1
 200 199 l 1
 200 1 l 1
 199 0 l 1
 101 0 l 1
 100 1 l 1
 100 199 l 1
500 199 m 1
 501 200 l 1
 599 200 l 1
 600 199 l 1
 600 1 l 1
 599 0 l 1
 501 0 l 1
 500 1 l 1
 500 199 l 1
EndSplineSet
EndChar

StartChar: Lcaron
Encoding: 317 317 81
Width: 800
VWidth: 0
Flags: H
LayerCount: 2
Fore
SplineSet
101 0 m 1
 100 1 l 1
 100 599 l 1
 101 600 l 1
 199 600 l 1
 200 599 l 1
 200 101 l 1
 201 100 l 1
 699 100 l 1
 700 99 l 1
 700 1 l 1
 699 0 l 1
 101 0 l 1
401 400 m 1
 400 401 l 1
 400 499 l 1
 401 500 l 1
 499 500 l 1
 500 499 l 1
 500 401 l 1
 499 400 l 1
 401 400 l 1
500 699 m 1
 501 700 l 1
 599 700 l 1
 600 699 l 1
 600 501 l 1
 599 500 l 1
 501 500 l 1
 500 501 l 1
 500 699 l 1
EndSplineSet
EndChar

StartChar: uni013B
Encoding: 315 315 82
Width: 800
VWidth: 0
Flags: H
LayerCount: 2
Fore
SplineSet
501 0 m 1
 500 -1 l 1
 500 -99 l 1
 499 -100 l 1
 401 -100 l 1
 400 -99 l 1
 400 -1 l 1
 399 0 l 1
 101 0 l 1
 100 1 l 1
 100 599 l 1
 101 600 l 1
 199 600 l 1
 200 599 l 1
 200 101 l 1
 201 100 l 1
 699 100 l 1
 700 99 l 1
 700 1 l 1
 699 0 l 1
 501 0 l 1
EndSplineSet
EndChar

StartChar: Ldot
Encoding: 319 319 83
Width: 800
VWidth: 0
Flags: H
LayerCount: 2
Fore
SplineSet
101 0 m 1
 100 1 l 1
 100 599 l 1
 101 600 l 1
 199 600 l 1
 200 599 l 1
 200 101 l 1
 201 100 l 1
 699 100 l 1
 700 99 l 1
 700 1 l 1
 699 0 l 1
 101 0 l 1
401 300 m 1
 400 301 l 1
 400 399 l 1
 401 400 l 1
 499 400 l 1
 500 399 l 1
 500 301 l 1
 499 300 l 1
 401 300 l 1
EndSplineSet
EndChar

StartChar: Lslash
Encoding: 321 321 84
Width: 800
VWidth: 0
Flags: H
LayerCount: 2
Fore
SplineSet
501 400 m 1
 500 401 l 1
 500 499 l 1
 501 500 l 1
 599 500 l 1
 600 499 l 1
 600 401 l 1
 599 400 l 1
 501 400 l 1
101 100 m 1
 100 101 l 1
 100 199 l 1
 101 200 l 1
 199 200 l 1
 200 199 l 1
 200 101 l 1
 199 100 l 1
 101 100 l 1
699 100 m 1
 700 99 l 1
 700 1 l 1
 699 0 l 1
 301 0 l 1
 300 1 l 1
 300 199 l 1
 299 200 l 1
 201 200 l 1
 200 201 l 1
 200 299 l 1
 201 300 l 1
 299 300 l 1
 300 301 l 1
 300 599 l 1
 301 600 l 1
 399 600 l 1
 400 599 l 1
 400 401 l 1
 401 400 l 1
 499 400 l 1
 500 399 l 1
 500 301 l 1
 499 300 l 1
 401 300 l 1
 400 299 l 1
 400 101 l 1
 401 100 l 1
 699 100 l 1
EndSplineSet
EndChar

StartChar: M
Encoding: 77 77 85
Width: 800
VWidth: 0
Flags: H
LayerCount: 2
Fore
SplineSet
299 500 m 1
 300 499 l 1
 300 401 l 1
 299 400 l 1
 201 400 l 1
 200 399 l 1
 200 1 l 1
 199 0 l 1
 101 0 l 1
 100 1 l 1
 100 599 l 1
 101 600 l 1
 199 600 l 1
 200 599 l 1
 200 501 l 1
 201 500 l 1
 299 500 l 1
501 500 m 1
 599 500 l 1
 600 501 l 1
 600 599 l 1
 601 600 l 1
 699 600 l 1
 700 599 l 1
 700 1 l 1
 699 0 l 1
 601 0 l 1
 600 1 l 1
 600 399 l 1
 599 400 l 1
 501 400 l 1
 500 401 l 1
 500 499 l 1
 501 500 l 1
499 400 m 1
 500 399 l 1
 500 301 l 1
 499 300 l 1
 301 300 l 1
 300 301 l 1
 300 399 l 1
 301 400 l 1
 499 400 l 1
EndSplineSet
EndChar

StartChar: Mu
Encoding: 924 924 86
Width: 800
VWidth: 0
Flags: H
LayerCount: 2
Fore
SplineSet
299 500 m 1
 300 499 l 1
 300 401 l 1
 299 400 l 1
 201 400 l 1
 200 399 l 1
 200 1 l 1
 199 0 l 1
 101 0 l 1
 100 1 l 1
 100 599 l 1
 101 600 l 1
 199 600 l 1
 200 599 l 1
 200 501 l 1
 201 500 l 1
 299 500 l 1
501 500 m 1
 599 500 l 1
 600 501 l 1
 600 599 l 1
 601 600 l 1
 699 600 l 1
 700 599 l 1
 700 1 l 1
 699 0 l 1
 601 0 l 1
 600 1 l 1
 600 399 l 1
 599 400 l 1
 501 400 l 1
 500 401 l 1
 500 499 l 1
 501 500 l 1
499 400 m 1
 500 399 l 1
 500 301 l 1
 499 300 l 1
 301 300 l 1
 300 301 l 1
 300 399 l 1
 301 400 l 1
 499 400 l 1
EndSplineSet
EndChar

StartChar: N
Encoding: 78 78 87
Width: 800
VWidth: 0
Flags: H
LayerCount: 2
Fore
SplineSet
299 500 m 1
 300 499 l 1
 300 401 l 1
 299 400 l 1
 201 400 l 1
 200 399 l 1
 200 1 l 1
 199 0 l 1
 101 0 l 1
 100 1 l 1
 100 599 l 1
 101 600 l 1
 199 600 l 1
 200 599 l 1
 200 501 l 1
 201 500 l 1
 299 500 l 1
501 100 m 1
 500 101 l 1
 500 199 l 1
 501 200 l 1
 599 200 l 1
 600 201 l 1
 600 599 l 1
 601 600 l 1
 699 600 l 1
 700 599 l 1
 700 1 l 1
 699 0 l 1
 601 0 l 1
 600 1 l 1
 600 99 l 1
 599 100 l 1
 501 100 l 1
301 300 m 1
 300 301 l 1
 300 399 l 1
 301 400 l 1
 399 400 l 1
 400 399 l 1
 400 301 l 1
 399 300 l 1
 301 300 l 1
401 200 m 1
 400 201 l 1
 400 299 l 1
 401 300 l 1
 499 300 l 1
 500 299 l 1
 500 201 l 1
 499 200 l 1
 401 200 l 1
EndSplineSet
EndChar

StartChar: Nacute
Encoding: 323 323 88
Width: 800
VWidth: 0
Flags: H
LayerCount: 2
Fore
SplineSet
299 500 m 1
 300 499 l 1
 300 401 l 1
 299 400 l 1
 201 400 l 1
 200 399 l 1
 200 1 l 1
 199 0 l 1
 101 0 l 1
 100 1 l 1
 100 599 l 1
 101 600 l 1
 199 600 l 1
 200 599 l 1
 200 501 l 1
 201 500 l 1
 299 500 l 1
501 100 m 1
 500 101 l 1
 500 199 l 1
 501 200 l 1
 599 200 l 1
 600 201 l 1
 600 599 l 1
 601 600 l 1
 699 600 l 1
 700 599 l 1
 700 1 l 1
 699 0 l 1
 601 0 l 1
 600 1 l 1
 600 99 l 1
 599 100 l 1
 501 100 l 1
301 300 m 1
 300 301 l 1
 300 399 l 1
 301 400 l 1
 399 400 l 1
 400 399 l 1
 400 301 l 1
 399 300 l 1
 301 300 l 1
401 200 m 1
 400 201 l 1
 400 299 l 1
 401 300 l 1
 499 300 l 1
 500 299 l 1
 500 201 l 1
 499 200 l 1
 401 200 l 1
501 600 m 1
 500 601 l 1
 500 699 l 1
 501 700 l 1
 599 700 l 1
 600 699 l 1
 600 601 l 1
 599 600 l 1
 501 600 l 1
401 500 m 1
 400 501 l 1
 400 599 l 1
 401 600 l 1
 499 600 l 1
 500 599 l 1
 500 501 l 1
 499 500 l 1
 401 500 l 1
EndSplineSet
EndChar

StartChar: Ncaron
Encoding: 327 327 89
Width: 800
VWidth: 0
Flags: H
LayerCount: 2
Fore
SplineSet
299 500 m 1
 300 499 l 1
 300 401 l 1
 299 400 l 1
 201 400 l 1
 200 399 l 1
 200 1 l 1
 199 0 l 1
 101 0 l 1
 100 1 l 1
 100 599 l 1
 101 600 l 1
 199 600 l 1
 200 599 l 1
 200 501 l 1
 201 500 l 1
 299 500 l 1
501 100 m 1
 500 101 l 1
 500 199 l 1
 501 200 l 1
 599 200 l 1
 600 201 l 1
 600 599 l 1
 601 600 l 1
 699 600 l 1
 700 599 l 1
 700 1 l 1
 699 0 l 1
 601 0 l 1
 600 1 l 1
 600 99 l 1
 599 100 l 1
 501 100 l 1
301 300 m 1
 300 301 l 1
 300 399 l 1
 301 400 l 1
 399 400 l 1
 400 399 l 1
 400 301 l 1
 399 300 l 1
 301 300 l 1
401 200 m 1
 400 201 l 1
 400 299 l 1
 401 300 l 1
 499 300 l 1
 500 299 l 1
 500 201 l 1
 499 200 l 1
 401 200 l 1
401 500 m 1
 400 501 l 1
 400 599 l 1
 401 600 l 1
 499 600 l 1
 500 599 l 1
 500 501 l 1
 499 500 l 1
 401 500 l 1
301 600 m 1
 300 601 l 1
 300 699 l 1
 301 700 l 1
 399 700 l 1
 400 699 l 1
 400 601 l 1
 399 600 l 1
 301 600 l 1
501 600 m 1
 500 601 l 1
 500 699 l 1
 501 700 l 1
 599 700 l 1
 600 699 l 1
 600 601 l 1
 599 600 l 1
 501 600 l 1
EndSplineSet
EndChar

StartChar: uni0145
Encoding: 325 325 90
Width: 800
VWidth: 0
Flags: H
LayerCount: 2
Fore
SplineSet
299 500 m 1
 300 499 l 1
 300 401 l 1
 299 400 l 1
 201 400 l 1
 200 399 l 1
 200 1 l 1
 199 0 l 1
 101 0 l 1
 100 1 l 1
 100 599 l 1
 101 600 l 1
 199 600 l 1
 200 599 l 1
 200 501 l 1
 201 500 l 1
 299 500 l 1
501 100 m 1
 500 101 l 1
 500 199 l 1
 501 200 l 1
 599 200 l 1
 600 201 l 1
 600 599 l 1
 601 600 l 1
 699 600 l 1
 700 599 l 1
 700 1 l 1
 699 0 l 1
 601 0 l 1
 600 1 l 1
 600 99 l 1
 599 100 l 1
 501 100 l 1
301 300 m 1
 300 301 l 1
 300 399 l 1
 301 400 l 1
 399 400 l 1
 400 399 l 1
 400 301 l 1
 399 300 l 1
 301 300 l 1
401 200 m 1
 400 201 l 1
 400 299 l 1
 401 300 l 1
 499 300 l 1
 500 299 l 1
 500 201 l 1
 499 200 l 1
 401 200 l 1
499 -100 m 1
 301 -100 l 1
 300 -99 l 1
 300 -1 l 1
 301 0 l 1
 399 0 l 1
 400 1 l 1
 400 99 l 1
 401 100 l 1
 499 100 l 1
 500 99 l 1
 500 -99 l 1
 499 -100 l 1
EndSplineSet
EndChar

StartChar: Ntilde
Encoding: 209 209 91
Width: 800
VWidth: 0
Flags: H
LayerCount: 2
Fore
SplineSet
299 400 m 1
 300 399 l 1
 300 301 l 1
 299 300 l 1
 201 300 l 1
 200 299 l 1
 200 1 l 1
 199 0 l 1
 101 0 l 1
 100 1 l 1
 100 499 l 1
 101 500 l 1
 199 500 l 1
 200 499 l 1
 200 401 l 1
 201 400 l 1
 299 400 l 1
401 100 m 1
 400 101 l 1
 400 199 l 1
 401 200 l 1
 499 200 l 1
 500 201 l 1
 500 499 l 1
 501 500 l 1
 599 500 l 1
 600 499 l 1
 600 1 l 1
 599 0 l 1
 501 0 l 1
 500 1 l 1
 500 99 l 1
 499 100 l 1
 401 100 l 1
301 200 m 1
 300 201 l 1
 300 299 l 1
 301 300 l 1
 399 300 l 1
 400 299 l 1
 400 201 l 1
 399 200 l 1
 301 200 l 1
201 500 m 1
 200 501 l 1
 200 599 l 1
 201 600 l 1
 299 600 l 1
 300 599 l 1
 300 501 l 1
 299 500 l 1
 201 500 l 1
301 600 m 1
 300 601 l 1
 300 699 l 1
 301 700 l 1
 399 700 l 1
 400 699 l 1
 400 601 l 1
 399 600 l 1
 301 600 l 1
401 500 m 1
 400 501 l 1
 400 599 l 1
 401 600 l 1
 499 600 l 1
 500 599 l 1
 500 501 l 1
 499 500 l 1
 401 500 l 1
501 600 m 1
 500 601 l 1
 500 699 l 1
 501 700 l 1
 599 700 l 1
 600 699 l 1
 600 601 l 1
 599 600 l 1
 501 600 l 1
EndSplineSet
EndChar

StartChar: Nu
Encoding: 925 925 92
Width: 800
VWidth: 0
Flags: H
LayerCount: 2
Fore
SplineSet
299 500 m 1
 300 499 l 1
 300 401 l 1
 299 400 l 1
 201 400 l 1
 200 399 l 1
 200 1 l 1
 199 0 l 1
 101 0 l 1
 100 1 l 1
 100 599 l 1
 101 600 l 1
 199 600 l 1
 200 599 l 1
 200 501 l 1
 201 500 l 1
 299 500 l 1
501 100 m 1
 500 101 l 1
 500 199 l 1
 501 200 l 1
 599 200 l 1
 600 201 l 1
 600 599 l 1
 601 600 l 1
 699 600 l 1
 700 599 l 1
 700 1 l 1
 699 0 l 1
 601 0 l 1
 600 1 l 1
 600 99 l 1
 599 100 l 1
 501 100 l 1
301 300 m 1
 300 301 l 1
 300 399 l 1
 301 400 l 1
 399 400 l 1
 400 399 l 1
 400 301 l 1
 399 300 l 1
 301 300 l 1
401 200 m 1
 400 201 l 1
 400 299 l 1
 401 300 l 1
 499 300 l 1
 500 299 l 1
 500 201 l 1
 499 200 l 1
 401 200 l 1
EndSplineSet
EndChar

StartChar: O
Encoding: 79 79 93
Width: 800
VWidth: 0
Flags: H
LayerCount: 2
Fore
SplineSet
201 0 m 1
 200 1 l 1
 200 99 l 1
 201 100 l 1
 599 100 l 1
 600 99 l 1
 600 1 l 1
 599 0 l 1
 201 0 l 1
100 499 m 1
 101 500 l 1
 199 500 l 1
 200 499 l 1
 200 101 l 1
 199 100 l 1
 101 100 l 1
 100 101 l 1
 100 499 l 1
600 499 m 1
 601 500 l 1
 699 500 l 1
 700 499 l 1
 700 101 l 1
 699 100 l 1
 601 100 l 1
 600 101 l 1
 600 499 l 1
201 500 m 1
 200 501 l 1
 200 599 l 1
 201 600 l 1
 599 600 l 1
 600 599 l 1
 600 501 l 1
 599 500 l 1
 201 500 l 1
EndSplineSet
EndChar

StartChar: OE
Encoding: 338 338 94
Width: 800
VWidth: 0
Flags: H
LayerCount: 2
Fore
SplineSet
201 0 m 1
 200 1 l 1
 200 99 l 1
 201 100 l 1
 399 100 l 1
 400 101 l 1
 400 499 l 1
 399 500 l 1
 201 500 l 1
 200 501 l 1
 200 599 l 1
 201 600 l 1
 699 600 l 1
 700 599 l 1
 700 501 l 1
 699 500 l 1
 501 500 l 1
 500 499 l 1
 500 401 l 1
 501 400 l 1
 599 400 l 1
 600 399 l 1
 600 301 l 1
 599 300 l 1
 501 300 l 1
 500 299 l 1
 500 101 l 1
 501 100 l 1
 699 100 l 1
 700 99 l 1
 700 1 l 1
 699 0 l 1
 201 0 l 1
100 499 m 1
 101 500 l 1
 199 500 l 1
 200 499 l 1
 200 101 l 1
 199 100 l 1
 101 100 l 1
 100 101 l 1
 100 499 l 1
EndSplineSet
EndChar

StartChar: Oacute
Encoding: 211 211 95
Width: 800
VWidth: 0
Flags: H
LayerCount: 2
Fore
SplineSet
400 599 m 1
 400 501 l 1
 401 500 l 1
 599 500 l 1
 600 499 l 1
 600 401 l 1
 599 400 l 1
 201 400 l 1
 200 401 l 1
 200 499 l 1
 201 500 l 1
 299 500 l 1
 300 501 l 1
 300 599 l 1
 301 600 l 1
 399 600 l 1
 400 599 l 1
201 0 m 1
 200 1 l 1
 200 99 l 1
 201 100 l 1
 599 100 l 1
 600 99 l 1
 600 1 l 1
 599 0 l 1
 201 0 l 1
100 399 m 1
 101 400 l 1
 199 400 l 1
 200 399 l 1
 200 101 l 1
 199 100 l 1
 101 100 l 1
 100 101 l 1
 100 399 l 1
600 399 m 1
 601 400 l 1
 699 400 l 1
 700 399 l 1
 700 101 l 1
 699 100 l 1
 601 100 l 1
 600 101 l 1
 600 399 l 1
401 600 m 1
 400 601 l 1
 400 699 l 1
 401 700 l 1
 499 700 l 1
 500 699 l 1
 500 601 l 1
 499 600 l 1
 401 600 l 1
EndSplineSet
EndChar

StartChar: Obreve
Encoding: 334 334 96
Width: 800
VWidth: 0
Flags: H
LayerCount: 2
Fore
SplineSet
201 0 m 1
 200 1 l 1
 200 99 l 1
 201 100 l 1
 599 100 l 1
 600 99 l 1
 600 1 l 1
 599 0 l 1
 201 0 l 1
100 399 m 1
 101 400 l 1
 199 400 l 1
 200 399 l 1
 200 101 l 1
 199 100 l 1
 101 100 l 1
 100 101 l 1
 100 399 l 1
600 399 m 1
 601 400 l 1
 699 400 l 1
 700 399 l 1
 700 101 l 1
 699 100 l 1
 601 100 l 1
 600 101 l 1
 600 399 l 1
300 599 m 1
 301 600 l 1
 499 600 l 1
 500 599 l 1
 500 501 l 1
 501 500 l 1
 599 500 l 1
 600 499 l 1
 600 401 l 1
 599 400 l 1
 201 400 l 1
 200 401 l 1
 200 499 l 1
 201 500 l 1
 299 500 l 1
 300 501 l 1
 300 599 l 1
501 600 m 1
 500 601 l 1
 500 699 l 1
 501 700 l 1
 599 700 l 1
 600 699 l 1
 600 601 l 1
 599 600 l 1
 501 600 l 1
201 600 m 1
 200 601 l 1
 200 699 l 1
 201 700 l 1
 299 700 l 1
 300 699 l 1
 300 601 l 1
 299 600 l 1
 201 600 l 1
EndSplineSet
EndChar

StartChar: Ocircumflex
Encoding: 212 212 97
Width: 800
VWidth: 0
Flags: H
LayerCount: 2
Fore
SplineSet
201 0 m 1
 200 1 l 1
 200 99 l 1
 201 100 l 1
 499 100 l 1
 500 99 l 1
 500 1 l 1
 499 0 l 1
 201 0 l 1
100 399 m 1
 101 400 l 1
 199 400 l 1
 200 399 l 1
 200 101 l 1
 199 100 l 1
 101 100 l 1
 100 101 l 1
 100 399 l 1
500 399 m 1
 501 400 l 1
 599 400 l 1
 600 399 l 1
 600 101 l 1
 599 100 l 1
 501 100 l 1
 500 101 l 1
 500 399 l 1
301 600 m 1
 300 601 l 1
 300 699 l 1
 301 700 l 1
 399 700 l 1
 400 699 l 1
 400 601 l 1
 399 600 l 1
 301 600 l 1
400 599 m 1
 401 600 l 1
 499 600 l 1
 500 599 l 1
 500 401 l 1
 499 400 l 1
 201 400 l 1
 200 401 l 1
 200 599 l 1
 201 600 l 1
 299 600 l 1
 300 599 l 1
 300 501 l 1
 301 500 l 1
 400 500 l 1
 401 501 l 1
 400 599 l 1
EndSplineSet
EndChar

StartChar: Ohungarumlaut
Encoding: 336 336 98
Width: 800
VWidth: 0
Flags: H
LayerCount: 2
Fore
SplineSet
201 0 m 1
 200 1 l 1
 200 99 l 1
 201 100 l 1
 599 100 l 1
 600 99 l 1
 600 1 l 1
 599 0 l 1
 201 0 l 1
100 399 m 1
 101 400 l 1
 199 400 l 1
 200 399 l 1
 200 101 l 1
 199 100 l 1
 101 100 l 1
 100 101 l 1
 100 399 l 1
600 399 m 1
 601 400 l 1
 699 400 l 1
 700 399 l 1
 700 101 l 1
 699 100 l 1
 601 100 l 1
 600 101 l 1
 600 399 l 1
500 599 m 1
 501 600 l 1
 599 600 l 1
 600 599 l 1
 600 401 l 1
 599 400 l 1
 201 400 l 1
 200 401 l 1
 200 599 l 1
 201 600 l 1
 299 600 l 1
 300 599 l 1
 300 501 l 1
 301 500 l 1
 500 500 l 1
 501 501 l 1
 500 599 l 1
601 600 m 1
 600 601 l 1
 600 699 l 1
 601 700 l 1
 699 700 l 1
 700 699 l 1
 700 601 l 1
 699 600 l 1
 601 600 l 1
301 600 m 1
 300 601 l 1
 300 699 l 1
 301 700 l 1
 399 700 l 1
 400 699 l 1
 400 601 l 1
 399 600 l 1
 301 600 l 1
EndSplineSet
EndChar

StartChar: Odieresis
Encoding: 214 214 99
Width: 800
VWidth: 0
Flags: H
LayerCount: 2
Fore
SplineSet
201 0 m 1
 200 1 l 1
 200 99 l 1
 201 100 l 1
 599 100 l 1
 600 99 l 1
 600 1 l 1
 599 0 l 1
 201 0 l 1
100 399 m 1
 101 400 l 1
 199 400 l 1
 200 399 l 1
 200 101 l 1
 199 100 l 1
 101 100 l 1
 100 101 l 1
 100 399 l 1
600 399 m 1
 601 400 l 1
 699 400 l 1
 700 399 l 1
 700 101 l 1
 699 100 l 1
 601 100 l 1
 600 101 l 1
 600 399 l 1
201 600 m 1
 200 601 l 1
 200 699 l 1
 201 700 l 1
 299 700 l 1
 300 699 l 1
 300 601 l 1
 299 600 l 1
 201 600 l 1
501 600 m 1
 500 601 l 1
 500 699 l 1
 501 700 l 1
 599 700 l 1
 600 699 l 1
 600 601 l 1
 599 600 l 1
 501 600 l 1
201 400 m 1
 200 401 l 1
 200 499 l 1
 201 500 l 1
 599 500 l 1
 600 499 l 1
 600 401 l 1
 599 400 l 1
 201 400 l 1
EndSplineSet
EndChar

StartChar: Ograve
Encoding: 210 210 100
Width: 800
VWidth: 0
Flags: H
LayerCount: 2
Fore
SplineSet
500 599 m 1
 500 501 l 1
 501 500 l 1
 599 500 l 1
 600 499 l 1
 600 401 l 1
 599 400 l 1
 201 400 l 1
 200 401 l 1
 200 499 l 1
 201 500 l 1
 399 500 l 1
 400 501 l 1
 400 599 l 1
 401 600 l 1
 499 600 l 1
 500 599 l 1
201 0 m 1
 200 1 l 1
 200 99 l 1
 201 100 l 1
 599 100 l 1
 600 99 l 1
 600 1 l 1
 599 0 l 1
 201 0 l 1
100 399 m 1
 101 400 l 1
 199 400 l 1
 200 399 l 1
 200 101 l 1
 199 100 l 1
 101 100 l 1
 100 101 l 1
 100 399 l 1
600 399 m 1
 601 400 l 1
 699 400 l 1
 700 399 l 1
 700 101 l 1
 699 100 l 1
 601 100 l 1
 600 101 l 1
 600 399 l 1
301 600 m 1
 300 601 l 1
 300 699 l 1
 301 700 l 1
 399 700 l 1
 400 699 l 1
 400 601 l 1
 399 600 l 1
 301 600 l 1
EndSplineSet
EndChar

StartChar: Omega
Encoding: 8486 8486 101
Width: 800
VWidth: 0
Flags: H
LayerCount: 2
Fore
SplineSet
501 0 m 1
 500 1 l 1
 500 199 l 1
 501 200 l 1
 599 200 l 1
 600 199 l 1
 600 101 l 1
 601 100 l 1
 699 100 l 1
 700 99 l 1
 700 1 l 1
 699 0 l 1
 501 0 l 1
299 0 m 1
 101 0 l 1
 100 1 l 1
 100 99 l 1
 101 100 l 1
 199 100 l 1
 200 101 l 1
 200 199 l 1
 201 200 l 1
 299 200 l 1
 300 199 l 1
 300 1 l 1
 299 0 l 1
600 499 m 1
 601 500 l 1
 699 500 l 1
 700 499 l 1
 700 201 l 1
 699 200 l 1
 601 200 l 1
 600 201 l 1
 600 499 l 1
100 499 m 1
 101 500 l 1
 199 500 l 1
 200 499 l 1
 200 201 l 1
 199 200 l 1
 101 200 l 1
 100 201 l 1
 100 499 l 1
201 500 m 1
 200 501 l 1
 200 599 l 1
 201 600 l 1
 599 600 l 1
 600 599 l 1
 600 501 l 1
 599 500 l 1
 201 500 l 1
EndSplineSet
EndChar

StartChar: Omacron
Encoding: 332 332 102
Width: 800
VWidth: 0
Flags: H
LayerCount: 2
Fore
SplineSet
201 0 m 1
 200 1 l 1
 200 99 l 1
 201 100 l 1
 599 100 l 1
 600 99 l 1
 600 1 l 1
 599 0 l 1
 201 0 l 1
100 399 m 1
 101 400 l 1
 199 400 l 1
 200 399 l 1
 200 101 l 1
 199 100 l 1
 101 100 l 1
 100 101 l 1
 100 399 l 1
600 399 m 1
 601 400 l 1
 699 400 l 1
 700 399 l 1
 700 101 l 1
 699 100 l 1
 601 100 l 1
 600 101 l 1
 600 399 l 1
201 600 m 1
 200 601 l 1
 200 699 l 1
 201 700 l 1
 599 700 l 1
 600 699 l 1
 600 601 l 1
 599 600 l 1
 201 600 l 1
201 400 m 1
 200 401 l 1
 200 499 l 1
 201 500 l 1
 599 500 l 1
 600 499 l 1
 600 401 l 1
 599 400 l 1
 201 400 l 1
EndSplineSet
EndChar

StartChar: uni03A9
Encoding: 937 937 103
Width: 800
VWidth: 0
Flags: H
LayerCount: 2
Fore
SplineSet
501 0 m 1
 500 1 l 1
 500 199 l 1
 501 200 l 1
 599 200 l 1
 600 199 l 1
 600 101 l 1
 601 100 l 1
 699 100 l 1
 700 99 l 1
 700 1 l 1
 699 0 l 1
 501 0 l 1
299 0 m 1
 101 0 l 1
 100 1 l 1
 100 99 l 1
 101 100 l 1
 199 100 l 1
 200 101 l 1
 200 199 l 1
 201 200 l 1
 299 200 l 1
 300 199 l 1
 300 1 l 1
 299 0 l 1
600 499 m 1
 601 500 l 1
 699 500 l 1
 700 499 l 1
 700 201 l 1
 699 200 l 1
 601 200 l 1
 600 201 l 1
 600 499 l 1
100 499 m 1
 101 500 l 1
 199 500 l 1
 200 499 l 1
 200 201 l 1
 199 200 l 1
 101 200 l 1
 100 201 l 1
 100 499 l 1
201 500 m 1
 200 501 l 1
 200 599 l 1
 201 600 l 1
 599 600 l 1
 600 599 l 1
 600 501 l 1
 599 500 l 1
 201 500 l 1
EndSplineSet
EndChar

StartChar: Omegatonos
Encoding: 911 911 104
Width: 800
VWidth: 0
Flags: H
LayerCount: 2
Fore
SplineSet
501 0 m 1
 500 1 l 1
 500 199 l 1
 501 200 l 1
 599 200 l 1
 600 199 l 1
 600 101 l 1
 601 100 l 1
 699 100 l 1
 700 99 l 1
 700 1 l 1
 699 0 l 1
 501 0 l 1
299 0 m 1
 101 0 l 1
 100 1 l 1
 100 99 l 1
 101 100 l 1
 199 100 l 1
 200 101 l 1
 200 199 l 1
 201 200 l 1
 299 200 l 1
 300 199 l 1
 300 1 l 1
 299 0 l 1
600 499 m 1
 601 500 l 1
 699 500 l 1
 700 499 l 1
 700 201 l 1
 699 200 l 1
 601 200 l 1
 600 201 l 1
 600 499 l 1
100 499 m 1
 101 500 l 1
 199 500 l 1
 200 499 l 1
 200 201 l 1
 199 200 l 1
 101 200 l 1
 100 201 l 1
 100 499 l 1
201 500 m 1
 200 501 l 1
 200 599 l 1
 201 600 l 1
 599 600 l 1
 600 599 l 1
 600 501 l 1
 599 500 l 1
 201 500 l 1
1 500 m 1
 0 501 l 1
 0 599 l 1
 1 600 l 1
 99 600 l 1
 100 599 l 1
 100 501 l 1
 99 500 l 1
 1 500 l 1
101 600 m 1
 100 601 l 1
 100 699 l 1
 101 700 l 1
 199 700 l 1
 200 699 l 1
 200 601 l 1
 199 600 l 1
 101 600 l 1
EndSplineSet
EndChar

StartChar: Omicron
Encoding: 927 927 105
Width: 800
VWidth: 0
Flags: H
LayerCount: 2
Fore
SplineSet
201 0 m 1
 200 1 l 1
 200 99 l 1
 201 100 l 1
 599 100 l 1
 600 99 l 1
 600 1 l 1
 599 0 l 1
 201 0 l 1
100 499 m 1
 101 500 l 1
 199 500 l 1
 200 499 l 1
 200 101 l 1
 199 100 l 1
 101 100 l 1
 100 101 l 1
 100 499 l 1
600 499 m 1
 601 500 l 1
 699 500 l 1
 700 499 l 1
 700 101 l 1
 699 100 l 1
 601 100 l 1
 600 101 l 1
 600 499 l 1
201 500 m 1
 200 501 l 1
 200 599 l 1
 201 600 l 1
 599 600 l 1
 600 599 l 1
 600 501 l 1
 599 500 l 1
 201 500 l 1
EndSplineSet
EndChar

StartChar: Omicrontonos
Encoding: 908 908 106
Width: 800
VWidth: 0
Flags: H
LayerCount: 2
Fore
SplineSet
301 0 m 1
 300 1 l 1
 300 99 l 1
 301 100 l 1
 599 100 l 1
 600 99 l 1
 600 1 l 1
 599 0 l 1
 301 0 l 1
200 399 m 1
 201 400 l 1
 299 400 l 1
 300 399 l 1
 300 101 l 1
 299 100 l 1
 201 100 l 1
 200 101 l 1
 200 399 l 1
600 399 m 1
 601 400 l 1
 699 400 l 1
 700 399 l 1
 700 101 l 1
 699 100 l 1
 601 100 l 1
 600 101 l 1
 600 399 l 1
301 400 m 1
 300 401 l 1
 300 499 l 1
 301 500 l 1
 599 500 l 1
 600 499 l 1
 600 401 l 1
 599 400 l 1
 301 400 l 1
101 600 m 1
 100 601 l 1
 100 699 l 1
 101 700 l 1
 199 700 l 1
 200 699 l 1
 200 601 l 1
 199 600 l 1
 101 600 l 1
1 500 m 1
 0 501 l 1
 0 599 l 1
 1 600 l 1
 99 600 l 1
 100 599 l 1
 100 501 l 1
 99 500 l 1
 1 500 l 1
EndSplineSet
EndChar

StartChar: Oslash
Encoding: 216 216 107
Width: 800
VWidth: 0
Flags: H
LayerCount: 2
Fore
SplineSet
101 0 m 1
 100 1 l 1
 100 99 l 1
 101 100 l 1
 199 100 l 1
 200 99 l 1
 200 1 l 1
 199 0 l 1
 101 0 l 1
201 100 m 1
 200 101 l 1
 200 199 l 1
 201 200 l 1
 299 200 l 1
 300 199 l 1
 300 101 l 1
 299 100 l 1
 201 100 l 1
301 200 m 1
 300 201 l 1
 300 299 l 1
 301 300 l 1
 399 300 l 1
 400 299 l 1
 400 201 l 1
 399 200 l 1
 301 200 l 1
401 300 m 1
 400 301 l 1
 400 399 l 1
 401 400 l 1
 499 400 l 1
 500 399 l 1
 500 301 l 1
 499 300 l 1
 401 300 l 1
501 400 m 1
 500 401 l 1
 500 499 l 1
 501 500 l 1
 599 500 l 1
 600 499 l 1
 600 401 l 1
 599 400 l 1
 501 400 l 1
601 500 m 1
 600 501 l 1
 600 599 l 1
 601 600 l 1
 699 600 l 1
 700 599 l 1
 700 501 l 1
 699 500 l 1
 601 500 l 1
100 399 m 1
 101 400 l 1
 199 400 l 1
 200 399 l 1
 200 201 l 1
 199 200 l 1
 101 200 l 1
 100 201 l 1
 100 399 l 1
600 399 m 1
 601 400 l 1
 699 400 l 1
 700 399 l 1
 700 201 l 1
 699 200 l 1
 601 200 l 1
 600 201 l 1
 600 399 l 1
499 600 m 1
 500 599 l 1
 500 501 l 1
 499 500 l 1
 301 500 l 1
 300 501 l 1
 300 599 l 1
 301 600 l 1
 499 600 l 1
499 100 m 1
 500 99 l 1
 500 1 l 1
 499 0 l 1
 301 0 l 1
 300 1 l 1
 300 99 l 1
 301 100 l 1
 499 100 l 1
501 100 m 1
 500 101 l 1
 500 199 l 1
 501 200 l 1
 599 200 l 1
 600 199 l 1
 600 101 l 1
 599 100 l 1
 501 100 l 1
201 400 m 1
 200 401 l 1
 200 499 l 1
 201 500 l 1
 299 500 l 1
 300 499 l 1
 300 401 l 1
 299 400 l 1
 201 400 l 1
EndSplineSet
EndChar

StartChar: Oslashacute
Encoding: 510 510 108
Width: 800
VWidth: 0
Flags: H
LayerCount: 2
Fore
SplineSet
101 0 m 1
 100 1 l 1
 100 99 l 1
 101 100 l 1
 199 100 l 1
 200 99 l 1
 200 1 l 1
 199 0 l 1
 101 0 l 1
201 100 m 1
 200 101 l 1
 200 199 l 1
 201 200 l 1
 299 200 l 1
 300 199 l 1
 300 101 l 1
 299 100 l 1
 201 100 l 1
301 200 m 1
 300 201 l 1
 300 299 l 1
 301 300 l 1
 399 300 l 1
 400 299 l 1
 400 201 l 1
 399 200 l 1
 301 200 l 1
401 300 m 1
 400 301 l 1
 400 399 l 1
 401 400 l 1
 499 400 l 1
 500 399 l 1
 500 301 l 1
 499 300 l 1
 401 300 l 1
501 400 m 1
 500 401 l 1
 500 499 l 1
 501 500 l 1
 599 500 l 1
 600 499 l 1
 600 401 l 1
 599 400 l 1
 501 400 l 1
601 500 m 1
 600 501 l 1
 600 599 l 1
 601 600 l 1
 699 600 l 1
 700 599 l 1
 700 501 l 1
 699 500 l 1
 601 500 l 1
100 399 m 1
 101 400 l 1
 199 400 l 1
 200 399 l 1
 200 201 l 1
 199 200 l 1
 101 200 l 1
 100 201 l 1
 100 399 l 1
600 399 m 1
 601 400 l 1
 699 400 l 1
 700 399 l 1
 700 201 l 1
 699 200 l 1
 601 200 l 1
 600 201 l 1
 600 399 l 1
499 100 m 1
 500 99 l 1
 500 1 l 1
 499 0 l 1
 301 0 l 1
 300 1 l 1
 300 99 l 1
 301 100 l 1
 499 100 l 1
501 100 m 1
 500 101 l 1
 500 199 l 1
 501 200 l 1
 599 200 l 1
 600 199 l 1
 600 101 l 1
 599 100 l 1
 501 100 l 1
201 400 m 1
 200 401 l 1
 200 499 l 1
 201 500 l 1
 299 500 l 1
 300 499 l 1
 300 401 l 1
 299 400 l 1
 201 400 l 1
499 500 m 1
 301 500 l 1
 300 501 l 1
 300 599 l 1
 301 600 l 1
 399 600 l 1
 400 601 l 1
 400 699 l 1
 401 700 l 1
 499 700 l 1
 500 699 l 1
 500 501 l 1
 499 500 l 1
EndSplineSet
EndChar

StartChar: Otilde
Encoding: 213 213 109
Width: 800
VWidth: 0
Flags: H
LayerCount: 2
Fore
SplineSet
201 0 m 1
 200 1 l 1
 200 99 l 1
 201 100 l 1
 599 100 l 1
 600 99 l 1
 600 1 l 1
 599 0 l 1
 201 0 l 1
100 399 m 1
 101 400 l 1
 199 400 l 1
 200 399 l 1
 200 101 l 1
 199 100 l 1
 101 100 l 1
 100 101 l 1
 100 399 l 1
600 399 m 1
 601 400 l 1
 699 400 l 1
 700 399 l 1
 700 101 l 1
 699 100 l 1
 601 100 l 1
 600 101 l 1
 600 399 l 1
401 600 m 1
 400 601 l 1
 400 699 l 1
 401 700 l 1
 499 700 l 1
 500 699 l 1
 500 601 l 1
 499 600 l 1
 401 600 l 1
600 599 m 1
 600 401 l 1
 599 400 l 1
 201 400 l 1
 200 401 l 1
 200 499 l 1
 201 500 l 1
 299 500 l 1
 300 501 l 1
 300 599 l 1
 301 600 l 1
 399 600 l 1
 400 599 l 1
 400 501 l 1
 401 500 l 1
 499 500 l 1
 500 501 l 1
 500 599 l 1
 501 600 l 1
 599 600 l 1
 600 599 l 1
601 600 m 1
 600 601 l 1
 600 699 l 1
 601 700 l 1
 699 700 l 1
 700 699 l 1
 700 601 l 1
 699 600 l 1
 601 600 l 1
EndSplineSet
EndChar

StartChar: P
Encoding: 80 80 110
Width: 800
VWidth: 0
Flags: H
LayerCount: 2
Fore
SplineSet
599 600 m 1
 600 599 l 1
 600 501 l 1
 599 500 l 1
 201 500 l 1
 200 499 l 1
 200 301 l 1
 201 300 l 1
 599 300 l 1
 600 299 l 1
 600 201 l 1
 599 200 l 1
 201 200 l 1
 200 199 l 1
 200 1 l 1
 199 0 l 1
 101 0 l 1
 100 1 l 1
 100 599 l 1
 101 600 l 1
 599 600 l 1
600 499 m 1
 601 500 l 1
 699 500 l 1
 700 499 l 1
 700 301 l 1
 699 300 l 1
 601 300 l 1
 600 301 l 1
 600 499 l 1
EndSplineSet
EndChar

StartChar: Phi
Encoding: 934 934 111
Width: 800
VWidth: 0
Flags: H
LayerCount: 2
Fore
SplineSet
599 100 m 1
 600 99 l 1
 600 1 l 1
 599 0 l 1
 401 0 l 1
 400 -1 l 1
 400 -99 l 1
 399 -100 l 1
 301 -100 l 1
 300 -99 l 1
 300 -1 l 1
 299 0 l 1
 101 0 l 1
 100 1 l 1
 100 99 l 1
 101 100 l 1
 299 100 l 1
 300 101 l 1
 300 399 l 1
 299 400 l 1
 101 400 l 1
 100 401 l 1
 100 499 l 1
 101 500 l 1
 299 500 l 1
 300 501 l 1
 300 599 l 1
 301 600 l 1
 399 600 l 1
 400 599 l 1
 400 501 l 1
 401 500 l 1
 599 500 l 1
 600 499 l 1
 600 401 l 1
 599 400 l 1
 401 400 l 1
 400 399 l 1
 400 101 l 1
 401 100 l 1
 599 100 l 1
600 399 m 1
 601 400 l 1
 699 400 l 1
 700 399 l 1
 700 101 l 1
 699 100 l 1
 601 100 l 1
 600 101 l 1
 600 399 l 1
0 399 m 1
 1 400 l 1
 99 400 l 1
 100 399 l 1
 100 101 l 1
 99 100 l 1
 1 100 l 1
 0 101 l 1
 0 399 l 1
EndSplineSet
EndChar

StartChar: Pi
Encoding: 928 928 112
Width: 800
VWidth: 0
Flags: H
LayerCount: 2
Fore
SplineSet
200 1 m 1
 199 0 l 1
 101 0 l 1
 100 1 l 1
 100 599 l 1
 101 600 l 1
 699 600 l 1
 700 599 l 1
 700 1 l 1
 699 0 l 1
 601 0 l 1
 600 1 l 1
 600 499 l 1
 599 500 l 1
 200 500 l 1
 199 499 l 1
 200 1 l 1
EndSplineSet
EndChar

StartChar: Psi
Encoding: 936 936 113
Width: 800
VWidth: 0
Flags: H
LayerCount: 2
Fore
SplineSet
499 200 m 1
 401 200 l 1
 400 199 l 1
 400 1 l 1
 399 0 l 1
 301 0 l 1
 300 1 l 1
 300 199 l 1
 299 200 l 1
 201 200 l 1
 200 201 l 1
 200 299 l 1
 201 300 l 1
 299 300 l 1
 300 301 l 1
 300 699 l 1
 301 700 l 1
 399 700 l 1
 400 699 l 1
 400 301 l 1
 401 300 l 1
 499 300 l 1
 500 299 l 1
 500 201 l 1
 499 200 l 1
101 400 m 1
 199 400 l 1
 200 399 l 1
 200 301 l 1
 199 300 l 1
 101 300 l 1
 100 301 l 1
 100 399 l 1
 101 400 l 1
501 400 m 1
 599 400 l 1
 600 399 l 1
 600 301 l 1
 599 300 l 1
 501 300 l 1
 500 301 l 1
 500 399 l 1
 501 400 l 1
0 401 m 1
 0 599 l 1
 1 600 l 1
 99 600 l 1
 100 599 l 1
 100 401 l 1
 99 400 l 1
 1 400 l 1
 0 401 l 1
600 401 m 1
 600 599 l 1
 601 600 l 1
 699 600 l 1
 700 599 l 1
 700 401 l 1
 699 400 l 1
 601 400 l 1
 600 401 l 1
EndSplineSet
EndChar

StartChar: Q
Encoding: 81 81 114
Width: 800
VWidth: 0
Flags: H
LayerCount: 2
Fore
SplineSet
100 499 m 1
 101 500 l 1
 199 500 l 1
 200 499 l 1
 200 101 l 1
 199 100 l 1
 101 100 l 1
 100 101 l 1
 100 499 l 1
600 499 m 1
 601 500 l 1
 699 500 l 1
 700 499 l 1
 700 101 l 1
 699 100 l 1
 601 100 l 1
 600 101 l 1
 600 499 l 1
201 500 m 1
 200 501 l 1
 200 599 l 1
 201 600 l 1
 599 600 l 1
 600 599 l 1
 600 501 l 1
 599 500 l 1
 201 500 l 1
400 199 m 1
 401 200 l 1
 499 200 l 1
 500 199 l 1
 500 101 l 1
 501 100 l 1
 599 100 l 1
 600 99 l 1
 600 1 l 1
 599 0 l 1
 201 0 l 1
 200 1 l 1
 200 99 l 1
 201 100 l 1
 399 100 l 1
 400 101 l 1
 400 199 l 1
301 200 m 1
 300 201 l 1
 300 299 l 1
 301 300 l 1
 399 300 l 1
 400 299 l 1
 400 201 l 1
 399 200 l 1
 301 200 l 1
EndSplineSet
EndChar

StartChar: R
Encoding: 82 82 115
Width: 800
VWidth: 0
Flags: H
LayerCount: 2
Fore
SplineSet
601 0 m 1
 600 1 l 1
 600 99 l 1
 601 100 l 1
 699 100 l 1
 700 99 l 1
 700 1 l 1
 699 0 l 1
 601 0 l 1
600 499 m 1
 601 500 l 1
 699 500 l 1
 700 499 l 1
 700 301 l 1
 699 300 l 1
 601 300 l 1
 600 301 l 1
 600 499 l 1
599 600 m 1
 600 599 l 1
 600 501 l 1
 599 500 l 1
 201 500 l 1
 200 499 l 1
 200 301 l 1
 201 300 l 1
 599 300 l 1
 600 299 l 1
 600 101 l 1
 599 100 l 1
 501 100 l 1
 500 101 l 1
 500 199 l 1
 499 200 l 1
 201 200 l 1
 200 199 l 1
 200 1 l 1
 199 0 l 1
 101 0 l 1
 100 1 l 1
 100 599 l 1
 101 600 l 1
 599 600 l 1
EndSplineSet
EndChar

StartChar: Racute
Encoding: 340 340 116
Width: 800
VWidth: 0
Flags: H
LayerCount: 2
Fore
SplineSet
601 0 m 1
 600 1 l 1
 600 99 l 1
 601 100 l 1
 699 100 l 1
 700 99 l 1
 700 1 l 1
 699 0 l 1
 601 0 l 1
299 500 m 1
 300 501 l 1
 300 599 l 1
 301 600 l 1
 399 600 l 1
 400 598.803710938 l 1
 400 501 l 1
 401 500 l 1
 599 500 l 1
 600 499 l 1
 600 401 l 1
 599 400 l 1
 201 400 l 1
 200 399 l 1
 200 301 l 1
 201 300 l 1
 599 300 l 1
 600 299 l 1
 600 101 l 1
 599 100 l 1
 501 100 l 1
 500 101 l 1
 500 199 l 1
 499 200 l 1
 201 200 l 1
 200 199 l 1
 200 1 l 1
 199 0 l 1
 101 0 l 1
 100 1 l 1
 100 499 l 1
 101 500 l 1
 299 500 l 1
601 300 m 1
 600 301 l 1
 600 399 l 1
 601 400 l 1
 699 400 l 1
 700 399 l 1
 700 301 l 1
 699 300 l 1
 601 300 l 1
401 600 m 1
 400 601 l 1
 400 699 l 1
 401 700 l 1
 499 700 l 1
 500 699 l 1
 500 601 l 1
 499 600 l 1
 401 600 l 1
EndSplineSet
EndChar

StartChar: Rcaron
Encoding: 344 344 117
Width: 800
VWidth: 0
Flags: H
LayerCount: 2
Fore
SplineSet
601 0 m 1
 600 1 l 1
 600 99 l 1
 601 100 l 1
 699 100 l 1
 700 99 l 1
 700 1 l 1
 699 0 l 1
 601 0 l 1
299 500 m 1
 300 501 l 1
 300 599 l 1
 301 600 l 1
 399 600 l 1
 400 598.803710938 l 1
 400 501 l 1
 401 500 l 1
 599 500 l 1
 600 499 l 1
 600 401 l 1
 599 400 l 1
 201 400 l 1
 200 399 l 1
 200 301 l 1
 201 300 l 1
 599 300 l 1
 600 299 l 1
 600 101 l 1
 599 100 l 1
 501 100 l 1
 500 101 l 1
 500 199 l 1
 499 200 l 1
 201 200 l 1
 200 199 l 1
 200 1 l 1
 199 0 l 1
 101 0 l 1
 100 1 l 1
 100 499 l 1
 101 500 l 1
 299 500 l 1
601 300 m 1
 600 301 l 1
 600 399 l 1
 601 400 l 1
 699 400 l 1
 700 399 l 1
 700 301 l 1
 699 300 l 1
 601 300 l 1
401 600 m 1
 400 601 l 1
 400 699 l 1
 401 700 l 1
 499 700 l 1
 500 699 l 1
 500 601 l 1
 499 600 l 1
 401 600 l 1
201 600 m 1
 200 601 l 1
 200 699 l 1
 201 700 l 1
 299 700 l 1
 300 699 l 1
 300 601 l 1
 299 600 l 1
 201 600 l 1
EndSplineSet
EndChar

StartChar: uni0156
Encoding: 342 342 118
Width: 800
VWidth: 0
Flags: H
LayerCount: 2
Fore
SplineSet
600 499 m 1
 601 500 l 1
 699 500 l 1
 700 499 l 1
 700 301 l 1
 699 300 l 1
 601 300 l 1
 600 301 l 1
 600 499 l 1
599 600 m 1
 600 599 l 1
 600 501 l 1
 599 500 l 1
 201 500 l 1
 200 499 l 1
 200 301 l 1
 201 300 l 1
 599 300 l 1
 600 299 l 1
 600 201 l 1
 599 200 l 1
 201 200 l 1
 200 199 l 1
 200 1 l 1
 199 0 l 1
 101 0 l 1
 100 1 l 1
 100 599 l 1
 101 600 l 1
 599 600 l 1
301 -100 m 1
 300 -99 l 1
 300 -1 l 1
 301 0 l 1
 399 0 l 1
 400 -1 l 1
 400 -99 l 1
 399 -100 l 1
 301 -100 l 1
401 0 m 1
 400 1 l 1
 400 99 l 1
 401 100 l 1
 499 100 l 1
 500 99 l 1
 500 1 l 1
 499 0 l 1
 401 0 l 1
600 199 m 1
 601 200 l 1
 699 200 l 1
 700 199 l 1
 700 1 l 1
 699 0 l 1
 601 0 l 1
 600 1 l 1
 600 199 l 1
EndSplineSet
EndChar

StartChar: Rho
Encoding: 929 929 119
Width: 800
VWidth: 0
Flags: H
LayerCount: 2
Fore
SplineSet
599 600 m 1
 600 599 l 1
 600 501 l 1
 599 500 l 1
 201 500 l 1
 200 499 l 1
 200 301 l 1
 201 300 l 1
 599 300 l 1
 600 299 l 1
 600 201 l 1
 599 200 l 1
 201 200 l 1
 200 199 l 1
 200 1 l 1
 199 0 l 1
 101 0 l 1
 100 1 l 1
 100 599 l 1
 101 600 l 1
 599 600 l 1
600 499 m 1
 601 500 l 1
 699 500 l 1
 700 499 l 1
 700 301 l 1
 699 300 l 1
 601 300 l 1
 600 301 l 1
 600 499 l 1
EndSplineSet
EndChar

StartChar: S
Encoding: 83 83 120
Width: 800
VWidth: 0
Flags: H
LayerCount: 2
Fore
SplineSet
101 100 m 1
 100 101 l 1
 100 199 l 1
 101 200 l 1
 199 200 l 1
 200 199 l 1
 200 101 l 1
 199 100 l 1
 101 100 l 1
600 299 m 1
 601 300 l 1
 699 300 l 1
 700 299 l 1
 700 101 l 1
 699 100 l 1
 601 100 l 1
 600 101 l 1
 600 299 l 1
101 400 m 1
 100 401 l 1
 100 499 l 1
 101 500 l 1
 199 500 l 1
 200 499 l 1
 200 401 l 1
 199 400 l 1
 101 400 l 1
201 0 m 1
 200 1 l 1
 200 99 l 1
 201 100 l 1
 599 100 l 1
 600 99 l 1
 600 1 l 1
 599 0 l 1
 201 0 l 1
201 300 m 1
 200 301 l 1
 200 399 l 1
 201 400 l 1
 599 400 l 1
 600 399 l 1
 600 301 l 1
 599 300 l 1
 201 300 l 1
201 500 m 1
 200 501 l 1
 200 599 l 1
 201 600 l 1
 599 600 l 1
 600 599 l 1
 600 501 l 1
 599 500 l 1
 201 500 l 1
EndSplineSet
EndChar

StartChar: SF010000
Encoding: 9484 9484 121
Width: 800
VWidth: 0
Flags: H
LayerCount: 2
Fore
SplineSet
300 400 m 1
 800 400 l 1
 800 300 l 1
 400 300 l 1
 400 -100 l 1
 300 -100 l 1
 300 400 l 1
EndSplineSet
EndChar

StartChar: SF020000
Encoding: 9492 9492 122
Width: 800
VWidth: 0
Flags: H
LayerCount: 2
Fore
SplineSet
300 300 m 1
 300 700 l 1
 400 700 l 1
 400 400 l 1
 800 400 l 1
 800 300 l 1
 300 300 l 1
EndSplineSet
EndChar

StartChar: SF030000
Encoding: 9488 9488 123
Width: 800
VWidth: 0
Flags: H
LayerCount: 2
Fore
SplineSet
400 400 m 1
 400 -100 l 1
 300 -100 l 1
 300 300 l 1
 0 300 l 1
 0 400 l 1
 400 400 l 1
EndSplineSet
EndChar

StartChar: SF040000
Encoding: 9496 9496 124
Width: 800
VWidth: 0
Flags: H
LayerCount: 2
Fore
SplineSet
400 300 m 1
 0 300 l 1
 0 400 l 1
 300 400 l 1
 300 700 l 1
 400 700 l 1
 400 300 l 1
EndSplineSet
EndChar

StartChar: SF050000
Encoding: 9532 9532 125
Width: 800
VWidth: 0
Flags: H
LayerCount: 2
Fore
SplineSet
300 700 m 1
 400 700 l 1
 400 400 l 1
 800 400 l 1
 800 300 l 1
 400 300 l 1
 400 -100 l 1
 300 -100 l 1
 300 300 l 1
 0 300 l 1
 0 400 l 1
 300 400 l 1
 300 700 l 1
EndSplineSet
EndChar

StartChar: SF060000
Encoding: 9516 9516 126
Width: 800
VWidth: 0
Flags: H
LayerCount: 2
Fore
SplineSet
300 -100 m 1
 300 300 l 1
 0 300 l 1
 0 400 l 1
 800 400 l 1
 800 300 l 1
 400 300 l 1
 400 -100 l 1
 300 -100 l 1
EndSplineSet
EndChar

StartChar: SF070000
Encoding: 9524 9524 127
Width: 800
VWidth: 0
Flags: H
LayerCount: 2
Fore
SplineSet
300 700 m 1
 400 700 l 1
 400 400 l 1
 800 400 l 1
 800 300 l 1
 0 300 l 1
 0 400 l 1
 300 400 l 1
 300 700 l 1
EndSplineSet
EndChar

StartChar: SF080000
Encoding: 9500 9500 128
Width: 800
VWidth: 0
Flags: H
LayerCount: 2
Fore
SplineSet
800 400 m 1
 800 300 l 1
 400 300 l 1
 400 -100 l 1
 300 -100 l 1
 300 700 l 1
 400 700 l 1
 400 400 l 1
 800 400 l 1
EndSplineSet
EndChar

StartChar: SF090000
Encoding: 9508 9508 129
Width: 800
VWidth: 0
Flags: H
LayerCount: 2
Fore
SplineSet
0 400 m 1
 300 400 l 1
 300 700 l 1
 400 700 l 1
 400 -100 l 1
 300 -100 l 1
 300 300 l 1
 0 300 l 1
 0 400 l 1
EndSplineSet
EndChar

StartChar: SF100000
Encoding: 9472 9472 130
Width: 800
VWidth: 0
Flags: H
LayerCount: 2
Fore
SplineSet
0 300 m 1
 0 400 l 1
 800 400 l 1
 800 300 l 1
 0 300 l 1
EndSplineSet
EndChar

StartChar: SF110000
Encoding: 9474 9474 131
Width: 800
VWidth: 0
Flags: H
LayerCount: 2
Fore
SplineSet
300 700 m 1
 400 700 l 1
 400 -100 l 1
 300 -100 l 1
 300 700 l 1
EndSplineSet
EndChar

StartChar: SF190000
Encoding: 9569 9569 132
Width: 800
VWidth: 0
Flags: H
LayerCount: 2
Fore
SplineSet
400 700 m 1
 400 -100 l 1
 300 -100 l 1
 300 200 l 1
 0 200 l 1
 0 300 l 1
 300 300 l 1
 300 400 l 1
 0 400 l 1
 0 500 l 1
 300 500 l 1
 300 700 l 1
 400 700 l 1
EndSplineSet
EndChar

StartChar: SF200000
Encoding: 9570 9570 133
Width: 800
VWidth: 0
Flags: H
LayerCount: 2
Fore
SplineSet
400 700 m 1
 500 700 l 1
 500 -100 l 1
 400 -100 l 1
 400 700 l 1
0 400 m 1
 200 400 l 1
 200 700 l 1
 300 700 l 1
 300 -100 l 1
 200 -100 l 1
 200 300 l 1
 0 300 l 1
 0 400 l 1
EndSplineSet
EndChar

StartChar: SF210000
Encoding: 9558 9558 134
Width: 800
VWidth: 0
Flags: H
LayerCount: 2
Fore
SplineSet
500 -100 m 1
 400 -100 l 1
 400 300 l 1
 300 300 l 1
 300 -100 l 1
 200 -100 l 1
 200 300 l 1
 0 300 l 1
 0 400 l 1
 500 400 l 1
 500 -100 l 1
EndSplineSet
EndChar

StartChar: SF220000
Encoding: 9557 9557 135
Width: 800
VWidth: 0
Flags: H
LayerCount: 2
Fore
SplineSet
0 500 m 1
 400 500 l 1
 400 -100 l 1
 300 -100 l 1
 300 200 l 1
 0 200 l 1
 0 300 l 1
 300 300 l 1
 300 400 l 1
 0 400 l 1
 0 500 l 1
EndSplineSet
EndChar

StartChar: SF230000
Encoding: 9571 9571 136
Width: 800
VWidth: 0
Flags: H
LayerCount: 2
Fore
SplineSet
300 400 m 1
 0 400 l 1
 0 500 l 1
 200 500 l 1
 200 700 l 1
 300 700 l 1
 300 400 l 1
500 700 m 1
 500 -100 l 1
 400 -100 l 1
 400 700 l 1
 500 700 l 1
300 300 m 1
 300 -100 l 1
 200 -100 l 1
 200 200 l 1
 0 200 l 1
 0 300 l 1
 300 300 l 1
EndSplineSet
EndChar

StartChar: SF240000
Encoding: 9553 9553 137
Width: 800
VWidth: 0
Flags: H
LayerCount: 2
Fore
SplineSet
500 700 m 1
 600 700 l 1
 600 -100 l 1
 500 -100 l 1
 500 700 l 1
300 700 m 1
 400 700 l 1
 400 -100 l 1
 300 -100 l 1
 300 700 l 1
EndSplineSet
EndChar

StartChar: SF250000
Encoding: 9559 9559 138
Width: 800
VWidth: 0
Flags: H
LayerCount: 2
Fore
SplineSet
300 300 m 1
 300 -100 l 1
 200 -100 l 1
 200 200 l 1
 0 200 l 1
 0 300 l 1
 300 300 l 1
500 500 m 1
 500 -100 l 1
 400 -100 l 1
 400 400 l 1
 0 400 l 1
 0 500 l 1
 500 500 l 1
EndSplineSet
EndChar

StartChar: SF260000
Encoding: 9565 9565 139
Width: 800
VWidth: 0
Flags: H
LayerCount: 2
Fore
SplineSet
300 400 m 1
 0 400 l 1
 0 500 l 1
 200 500 l 1
 200 700 l 1
 300 700 l 1
 300 400 l 1
500 200 m 1
 0 200 l 1
 0 300 l 1
 400 300 l 1
 400 700 l 1
 500 700 l 1
 500 200 l 1
EndSplineSet
EndChar

StartChar: SF270000
Encoding: 9564 9564 140
Width: 800
VWidth: 0
Flags: H
LayerCount: 2
Fore
SplineSet
500 700 m 1
 500 300 l 1
 0 300 l 1
 0 400 l 1
 200 400 l 1
 200 700 l 1
 300 700 l 1
 300 400 l 1
 400 400 l 1
 400 700 l 1
 500 700 l 1
EndSplineSet
EndChar

StartChar: SF280000
Encoding: 9563 9563 141
Width: 800
VWidth: 0
Flags: H
LayerCount: 2
Fore
SplineSet
0 200 m 1
 0 300 l 1
 300 300 l 1
 300 400 l 1
 0 400 l 1
 0 500 l 1
 300 500 l 1
 300 700 l 1
 400 700 l 1
 400 200 l 1
 0 200 l 1
EndSplineSet
EndChar

StartChar: SF360000
Encoding: 9566 9566 142
Width: 800
VWidth: 0
Flags: H
LayerCount: 2
Fore
SplineSet
300 700 m 1
 400 700 l 1
 400 500 l 1
 800 500 l 1
 800 400 l 1
 400 400 l 1
 400 300 l 1
 800 300 l 1
 800 200 l 1
 400 200 l 1
 400 -100 l 1
 300 -100 l 1
 300 700 l 1
EndSplineSet
EndChar

StartChar: SF370000
Encoding: 9567 9567 143
Width: 800
VWidth: 0
Flags: H
LayerCount: 2
Fore
SplineSet
200 700 m 1
 300 700 l 1
 300 -100 l 1
 200 -100 l 1
 200 700 l 1
800 400 m 1
 800 300 l 1
 500 300 l 1
 500 -100 l 1
 400 -100 l 1
 400 700 l 1
 500 700 l 1
 500 400 l 1
 800 400 l 1
EndSplineSet
EndChar

StartChar: SF380000
Encoding: 9562 9562 144
Width: 800
VWidth: 0
Flags: H
LayerCount: 2
Fore
SplineSet
400 400 m 1
 400 700 l 1
 500 700 l 1
 500 500 l 1
 800 500 l 1
 800 400 l 1
 400 400 l 1
200 200 m 1
 200 700 l 1
 300 700 l 1
 300 300 l 1
 800 300 l 1
 800 200 l 1
 200 200 l 1
EndSplineSet
EndChar

StartChar: SF390000
Encoding: 9556 9556 145
Width: 800
VWidth: 0
Flags: H
LayerCount: 2
Fore
SplineSet
200 500 m 1
 800 500 l 1
 800 400 l 1
 300 400 l 1
 300 -100 l 1
 200 -100 l 1
 200 500 l 1
400 300 m 1
 800 300 l 1
 800 200 l 1
 500 200 l 1
 500 -100 l 1
 400 -100 l 1
 400 300 l 1
EndSplineSet
EndChar

StartChar: SF400000
Encoding: 9577 9577 146
Width: 800
VWidth: 0
Flags: H
LayerCount: 2
Fore
SplineSet
0 400 m 1
 0 500 l 1
 200 500 l 1
 200 700 l 1
 300 700 l 1
 300 500 l 1
 400 500 l 1
 400 700 l 1
 500 700 l 1
 500 500 l 1
 800 500 l 1
 800 400 l 1
 0 400 l 1
0 200 m 1
 0 300 l 1
 800 300 l 1
 800 200 l 1
 0 200 l 1
EndSplineSet
EndChar

StartChar: SF410000
Encoding: 9574 9574 147
Width: 800
VWidth: 0
Flags: H
LayerCount: 2
Fore
SplineSet
300 300 m 1
 300 -100 l 1
 200 -100 l 1
 200 200 l 1
 0 200 l 1
 0 300 l 1
 300 300 l 1
0 500 m 1
 800 500 l 1
 800 400 l 1
 0 400 l 1
 0 500 l 1
400 300 m 1
 800 300 l 1
 800 200 l 1
 500 200 l 1
 500 -100 l 1
 400 -100 l 1
 400 300 l 1
EndSplineSet
EndChar

StartChar: SF420000
Encoding: 9568 9568 148
Width: 800
VWidth: 0
Flags: H
LayerCount: 2
Fore
SplineSet
400 400 m 1
 400 700 l 1
 500 700 l 1
 500 500 l 1
 800 500 l 1
 800 400 l 1
 400 400 l 1
200 700 m 1
 300 700 l 1
 300 -100 l 1
 200 -100 l 1
 200 700 l 1
400 300 m 1
 800 300 l 1
 800 200 l 1
 500 200 l 1
 500 -100 l 1
 400 -100 l 1
 400 300 l 1
EndSplineSet
EndChar

StartChar: SF430000
Encoding: 9552 9552 149
Width: 800
VWidth: 0
Flags: H
LayerCount: 2
Fore
SplineSet
0 400 m 1
 0 500 l 1
 800 500 l 1
 800 400 l 1
 0 400 l 1
0 200 m 1
 0 300 l 1
 800 300 l 1
 800 200 l 1
 0 200 l 1
EndSplineSet
EndChar

StartChar: SF440000
Encoding: 9580 9580 150
Width: 800
VWidth: 0
Flags: H
LayerCount: 2
Fore
SplineSet
300 300 m 1
 300 -100 l 1
 200 -100 l 1
 200 200 l 1
 0 200 l 1
 0 300 l 1
 300 300 l 1
400 300 m 1
 800 300 l 1
 800 200 l 1
 500 200 l 1
 500 -100 l 1
 400 -100 l 1
 400 300 l 1
300 400 m 1
 0 400 l 1
 0 500 l 1
 200 500 l 1
 200 700 l 1
 300 700 l 1
 300 400 l 1
400 400 m 1
 400 700 l 1
 500 700 l 1
 500 500 l 1
 800 500 l 1
 800 400 l 1
 400 400 l 1
EndSplineSet
EndChar

StartChar: SF450000
Encoding: 9575 9575 151
Width: 800
VWidth: 0
Flags: H
LayerCount: 2
Fore
SplineSet
0 200 m 1
 0 300 l 1
 800 300 l 1
 800 200 l 1
 0 200 l 1
300 700 m 1
 400 700 l 1
 400 500 l 1
 800 500 l 1
 800 400 l 1
 0 400 l 1
 0 500 l 1
 300 500 l 1
 300 700 l 1
EndSplineSet
EndChar

StartChar: SF460000
Encoding: 9576 9576 152
Width: 800
VWidth: 0
Flags: H
LayerCount: 2
Fore
SplineSet
0 300 m 1
 0 400 l 1
 200 400 l 1
 200 700 l 1
 300 700 l 1
 300 400 l 1
 400 400 l 1
 400 700 l 1
 500 700 l 1
 500 400 l 1
 800 400 l 1
 800 300 l 1
 0 300 l 1
EndSplineSet
EndChar

StartChar: SF470000
Encoding: 9572 9572 153
Width: 800
VWidth: 0
Flags: H
LayerCount: 2
Fore
SplineSet
0 400 m 1
 0 500 l 1
 800 500 l 1
 800 400 l 1
 0 400 l 1
300 -100 m 1
 300 200 l 1
 0 200 l 1
 0 300 l 1
 800 300 l 1
 800 200 l 1
 400 200 l 1
 400 -100 l 1
 300 -100 l 1
EndSplineSet
EndChar

StartChar: SF480000
Encoding: 9573 9573 154
Width: 800
VWidth: 0
Flags: H
LayerCount: 2
Fore
SplineSet
0 400 m 1
 800 400 l 1
 800 300 l 1
 500 300 l 1
 500 -100 l 1
 400 -100 l 1
 400 300 l 1
 300 300 l 1
 300 -100 l 1
 200 -100 l 1
 200 300 l 1
 0 300 l 1
 0 400 l 1
EndSplineSet
EndChar

StartChar: SF490000
Encoding: 9561 9561 155
Width: 800
VWidth: 0
Flags: H
LayerCount: 2
Fore
SplineSet
200 700 m 1
 300 700 l 1
 300 400 l 1
 400 400 l 1
 400 700 l 1
 500 700 l 1
 500 400 l 1
 800 400 l 1
 800 300 l 1
 200 300 l 1
 200 700 l 1
EndSplineSet
EndChar

StartChar: SF500000
Encoding: 9560 9560 156
Width: 800
VWidth: 0
Flags: H
LayerCount: 2
Fore
SplineSet
800 200 m 1
 300 200 l 1
 300 700 l 1
 400 700 l 1
 400 500 l 1
 800 500 l 1
 800 400 l 1
 400 400 l 1
 400 300 l 1
 800 300 l 1
 800 200 l 1
EndSplineSet
EndChar

StartChar: SF510000
Encoding: 9554 9554 157
Width: 800
VWidth: 0
Flags: H
LayerCount: 2
Fore
SplineSet
800 500 m 1
 800 400 l 1
 400 400 l 1
 400 300 l 1
 800 300 l 1
 800 200 l 1
 400 200 l 1
 400 -100 l 1
 300 -100 l 1
 300 500 l 1
 800 500 l 1
EndSplineSet
EndChar

StartChar: SF520000
Encoding: 9555 9555 158
Width: 800
VWidth: 0
Flags: H
LayerCount: 2
Fore
SplineSet
200 -100 m 1
 200 400 l 1
 800 400 l 1
 800 300 l 1
 500 300 l 1
 500 -100 l 1
 400 -100 l 1
 400 300 l 1
 300 300 l 1
 300 -100 l 1
 200 -100 l 1
EndSplineSet
EndChar

StartChar: SF530000
Encoding: 9579 9579 159
Width: 800
VWidth: 0
Flags: H
LayerCount: 2
Fore
SplineSet
0 300 m 1
 0 400 l 1
 200 400 l 1
 200 700 l 1
 300 700 l 1
 300 400 l 1
 400 400 l 1
 400 700 l 1
 500 700 l 1
 500 400 l 1
 800 400 l 1
 800 300 l 1
 500 300 l 1
 500 -100 l 1
 400 -100 l 1
 400 300 l 1
 300 300 l 1
 300 -100 l 1
 200 -100 l 1
 200 300 l 1
 0 300 l 1
EndSplineSet
EndChar

StartChar: SF540000
Encoding: 9578 9578 160
Width: 800
VWidth: 0
Flags: H
LayerCount: 2
Fore
SplineSet
0 400 m 1
 0 500 l 1
 300 500 l 1
 300 700 l 1
 400 700 l 1
 400 500 l 1
 800 500 l 1
 800 400 l 1
 400 400 l 1
 400 300 l 1
 800 300 l 1
 800 200 l 1
 400 200 l 1
 400 -100 l 1
 300 -100 l 1
 300 200 l 1
 0 200 l 1
 0 300 l 1
 300 300 l 1
 300 400 l 1
 0 400 l 1
EndSplineSet
EndChar

StartChar: Sacute
Encoding: 346 346 161
Width: 800
VWidth: 0
Flags: H
LayerCount: 2
Fore
SplineSet
101 300 m 1
 100 301 l 1
 100 399 l 1
 101 400 l 1
 199 400 l 1
 200 399 l 1
 200 301 l 1
 199 300 l 1
 101 300 l 1
101 0 m 1
 100 1 l 1
 100 99 l 1
 101 100 l 1
 599 100 l 1
 600 99 l 1
 600 1 l 1
 599 0 l 1
 101 0 l 1
201 200 m 1
 200 201 l 1
 200 299 l 1
 201 300 l 1
 599 300 l 1
 600 299 l 1
 600 201 l 1
 599 200 l 1
 201 200 l 1
601 100 m 1
 600 101 l 1
 600 199 l 1
 601 200 l 1
 699 200 l 1
 700 199 l 1
 700 101 l 1
 699 100 l 1
 601 100 l 1
400 599 m 1
 401 600 l 1
 499 600 l 1
 500 599 l 1
 500 501 l 1
 501 500 l 1
 699 500 l 1
 700 499 l 1
 700 401 l 1
 699 400 l 1
 201 400 l 1
 200 401 l 1
 200 499 l 1
 201 500 l 1
 399 500 l 1
 400 501 l 1
 400 599 l 1
501 600 m 1
 500 601 l 1
 500 699 l 1
 501 700 l 1
 599 700 l 1
 600 699 l 1
 600 601 l 1
 599 600 l 1
 501 600 l 1
EndSplineSet
EndChar

StartChar: Scaron
Encoding: 352 352 162
Width: 800
VWidth: 0
Flags: H
LayerCount: 2
Fore
SplineSet
101 300 m 1
 100 301 l 1
 100 399 l 1
 101 400 l 1
 199 400 l 1
 200 399 l 1
 200 301 l 1
 199 300 l 1
 101 300 l 1
101 0 m 1
 100 1 l 1
 100 99 l 1
 101 100 l 1
 599 100 l 1
 600 99 l 1
 600 1 l 1
 599 0 l 1
 101 0 l 1
201 200 m 1
 200 201 l 1
 200 299 l 1
 201 300 l 1
 599 300 l 1
 600 299 l 1
 600 201 l 1
 599 200 l 1
 201 200 l 1
601 100 m 1
 600 101 l 1
 600 199 l 1
 601 200 l 1
 699 200 l 1
 700 199 l 1
 700 101 l 1
 699 100 l 1
 601 100 l 1
300 599 m 1
 301 600 l 1
 499 600 l 1
 500 599 l 1
 500 501 l 1
 501 500 l 1
 699 500 l 1
 700 499 l 1
 700 401 l 1
 699 400 l 1
 201 400 l 1
 200 401 l 1
 200 499 l 1
 201 500 l 1
 299 500 l 1
 300 501 l 1
 300 599 l 1
501 600 m 1
 500 601 l 1
 500 699 l 1
 501 700 l 1
 599 700 l 1
 600 699 l 1
 600 601 l 1
 599 600 l 1
 501 600 l 1
201 600 m 1
 200 601 l 1
 200 699 l 1
 201 700 l 1
 299 700 l 1
 300 699 l 1
 300 601 l 1
 299 600 l 1
 201 600 l 1
EndSplineSet
EndChar

StartChar: Scedilla
Encoding: 350 350 163
Width: 800
VWidth: 0
Flags: H
LayerCount: 2
Fore
SplineSet
101 100 m 1
 100 101 l 1
 100 199 l 1
 101 200 l 1
 199 200 l 1
 200 199 l 1
 200 101 l 1
 199 100 l 1
 101 100 l 1
600 299 m 1
 601 300 l 1
 699 300 l 1
 700 299 l 1
 700 101 l 1
 699 100 l 1
 601 100 l 1
 600 101 l 1
 600 299 l 1
101 400 m 1
 100 401 l 1
 100 499 l 1
 101 500 l 1
 199 500 l 1
 200 499 l 1
 200 401 l 1
 199 400 l 1
 101 400 l 1
201 300 m 1
 200 301 l 1
 200 399 l 1
 201 400 l 1
 599 400 l 1
 600 399 l 1
 600 301 l 1
 599 300 l 1
 201 300 l 1
201 500 m 1
 200 501 l 1
 200 599 l 1
 201 600 l 1
 599 600 l 1
 600 599 l 1
 600 501 l 1
 599 500 l 1
 201 500 l 1
200 99 m 1
 201 100 l 1
 599 100 l 1
 600 99 l 1
 600 1 l 1
 599 0 l 1
 301 0 l 1
 300 -1 l 1
 300 -99 l 1
 299 -100 l 1
 101 -100 l 1
 100 -99 l 1
 100 -1 l 1
 101 0 l 1
 199 0 l 1
 200 1 l 1
 200 99 l 1
EndSplineSet
EndChar

StartChar: Scircumflex
Encoding: 348 348 164
Width: 800
VWidth: 0
Flags: H
LayerCount: 2
Fore
SplineSet
101 300 m 1
 100 301 l 1
 100 399 l 1
 101 400 l 1
 199 400 l 1
 200 399 l 1
 200 301 l 1
 199 300 l 1
 101 300 l 1
101 0 m 1
 100 1 l 1
 100 99 l 1
 101 100 l 1
 599 100 l 1
 600 99 l 1
 600 1 l 1
 599 0 l 1
 101 0 l 1
201 200 m 1
 200 201 l 1
 200 299 l 1
 201 300 l 1
 599 300 l 1
 600 299 l 1
 600 201 l 1
 599 200 l 1
 201 200 l 1
601 100 m 1
 600 101 l 1
 600 199 l 1
 601 200 l 1
 699 200 l 1
 700 199 l 1
 700 101 l 1
 699 100 l 1
 601 100 l 1
401 600 m 1
 400 601 l 1
 400 699 l 1
 401 700 l 1
 499 700 l 1
 500 699 l 1
 500 601 l 1
 499 600 l 1
 401 600 l 1
500 599 m 1
 501 600 l 1
 599 600 l 1
 600 599 l 1
 600 501 l 1
 601 500 l 1
 699 500 l 1
 700 499 l 1
 700 401 l 1
 699 400 l 1
 201 400 l 1
 200 401 l 1
 200 499 l 1
 201 500 l 1
 299 500 l 1
 300 501 l 1
 300 599 l 1
 301 600 l 1
 399 600 l 1
 400 599 l 1
 400 501 l 1
 401 500 l 1
 499 500 l 1
 500 501 l 1
 500 599 l 1
EndSplineSet
EndChar

StartChar: Sigma
Encoding: 931 931 165
Width: 800
VWidth: 0
Flags: H
LayerCount: 2
Fore
SplineSet
200 199 m 1
 201 200 l 1
 299 200 l 1
 300 199 l 1
 300 101 l 1
 301 100 l 1
 599 100 l 1
 600 99 l 1
 600 1 l 1
 599 0 l 1
 101 0 l 1
 100 1 l 1
 100 99 l 1
 101 100 l 1
 199 100 l 1
 200 101 l 1
 200 199 l 1
200 401 m 1
 200 499 l 1
 199 500 l 1
 101 500 l 1
 100 501 l 1
 100 599 l 1
 101 600 l 1
 599 600 l 1
 600 599 l 1
 600 501 l 1
 599 500 l 1
 301 500 l 1
 300 499 l 1
 300 401 l 1
 299 400 l 1
 201 400 l 1
 200 401 l 1
300 399 m 1
 301 400 l 1
 399 400 l 1
 400 399 l 1
 400 201 l 1
 399 200 l 1
 301 200 l 1
 300 201 l 1
 300 399 l 1
EndSplineSet
EndChar

StartChar: T
Encoding: 84 84 166
Width: 800
VWidth: 0
Flags: H
LayerCount: 2
Fore
SplineSet
400 1 m 1
 399 0 l 1
 301 0 l 1
 300 1 l 1
 300 499 l 1
 299 500 l 1
 1 500 l 1
 0 501 l 1
 0 599 l 1
 1 600 l 1
 699 600 l 1
 700 599 l 1
 700 501 l 1
 699 500 l 1
 401 500 l 1
 400 499 l 1
 400 1 l 1
EndSplineSet
EndChar

StartChar: Tau
Encoding: 932 932 167
Width: 800
VWidth: 0
Flags: H
LayerCount: 2
Fore
SplineSet
400 1 m 1
 399 0 l 1
 301 0 l 1
 300 1 l 1
 300 499 l 1
 299 500 l 1
 1 500 l 1
 0 501 l 1
 0 599 l 1
 1 600 l 1
 699 600 l 1
 700 599 l 1
 700 501 l 1
 699 500 l 1
 401 500 l 1
 400 499 l 1
 400 1 l 1
EndSplineSet
EndChar

StartChar: Tbar
Encoding: 358 358 168
Width: 800
VWidth: 0
Flags: H
LayerCount: 2
Fore
SplineSet
699 500 m 1
 401 500 l 1
 400 499 l 1
 400 301 l 1
 401 300 l 1
 499 300 l 1
 500 299 l 1
 500 201 l 1
 499 200 l 1
 401 200 l 1
 400 199 l 1
 400 1 l 1
 399 0 l 1
 301 0 l 1
 300 1 l 1
 300 199 l 1
 299 200 l 1
 201 200 l 1
 200 201 l 1
 200 299 l 1
 201 300 l 1
 299 300 l 1
 300 301 l 1
 300 499 l 1
 299 500 l 1
 1 500 l 1
 0 501 l 1
 0 599 l 1
 1 600 l 1
 699 600 l 1
 700 599 l 1
 700 501 l 1
 699 500 l 1
EndSplineSet
EndChar

StartChar: Tcaron
Encoding: 356 356 169
Width: 800
VWidth: 0
Flags: H
LayerCount: 2
Fore
SplineSet
599 500 m 1
 600 499 l 1
 600 401 l 1
 599 400 l 1
 401 400 l 1
 400 399 l 1
 400 -99 l 1
 399 -100 l 1
 301 -100 l 1
 300 -99 l 1
 300 399 l 1
 299 400 l 1
 101 400 l 1
 100 401 l 1
 100 499 l 1
 101 500 l 1
 199 500 l 1
 200 501 l 1
 200 599 l 1
 201 600 l 1
 499 600 l 1
 500 599 l 1
 500 501 l 1
 501 500 l 1
 599 500 l 1
101 600 m 1
 100 601 l 1
 100 699 l 1
 101 700 l 1
 199 700 l 1
 200 699 l 1
 200 601 l 1
 199 600 l 1
 101 600 l 1
501 600 m 1
 500 601 l 1
 500 699 l 1
 501 700 l 1
 599 700 l 1
 600 699 l 1
 600 601 l 1
 599 600 l 1
 501 600 l 1
EndSplineSet
EndChar

StartChar: uni0162
Encoding: 354 354 170
Width: 800
VWidth: 0
Flags: H
LayerCount: 2
Fore
SplineSet
400 1 m 1
 399 0 l 1
 301 0 l 1
 300 1 l 1
 300 499 l 1
 299 500 l 1
 1 500 l 1
 0 501 l 1
 0 599 l 1
 1 600 l 1
 699 600 l 1
 700 599 l 1
 700 501 l 1
 699 500 l 1
 401 500 l 1
 400 499 l 1
 400 1 l 1
201 -100 m 1
 200 -99 l 1
 200 -1 l 1
 201 0 l 1
 299 0 l 1
 300 -1 l 1
 300 -99 l 1
 299 -100 l 1
 201 -100 l 1
EndSplineSet
EndChar

StartChar: Theta
Encoding: 920 920 171
Width: 800
VWidth: 0
Flags: H
LayerCount: 2
Fore
SplineSet
201 0 m 1
 200 1 l 1
 200 99 l 1
 201 100 l 1
 599 100 l 1
 600 99 l 1
 600 1 l 1
 599 0 l 1
 201 0 l 1
100 499 m 1
 101 500 l 1
 199 500 l 1
 200 499 l 1
 200 101 l 1
 199 100 l 1
 101 100 l 1
 100 101 l 1
 100 499 l 1
600 499 m 1
 601 500 l 1
 699 500 l 1
 700 499 l 1
 700 101 l 1
 699 100 l 1
 601 100 l 1
 600 101 l 1
 600 499 l 1
201 500 m 1
 200 501 l 1
 200 599 l 1
 201 600 l 1
 599 600 l 1
 600 599 l 1
 600 501 l 1
 599 500 l 1
 201 500 l 1
499 400 m 1
 500 399 l 1
 500 301 l 1
 499 300 l 1
 301 300 l 1
 300 301 l 1
 300 399 l 1
 301 400 l 1
 499 400 l 1
EndSplineSet
EndChar

StartChar: Thorn
Encoding: 222 222 172
Width: 800
VWidth: 0
Flags: H
LayerCount: 2
Fore
SplineSet
501 200 m 1
 500 201 l 1
 500 299 l 1
 501 300 l 1
 599 300 l 1
 600 299 l 1
 600 201 l 1
 599 200 l 1
 501 200 l 1
499 200 m 1
 500 199 l 1
 500 101 l 1
 499 100 l 1
 301 100 l 1
 300 99 l 1
 300 -99 l 1
 299 -100 l 1
 201 -100 l 1
 200 -99 l 1
 200 599 l 1
 201 600 l 1
 299 600 l 1
 300 599 l 1
 300 401 l 1
 301 400 l 1
 499 400 l 1
 500 399 l 1
 500 301 l 1
 499 300 l 1
 301 300 l 1
 300 299 l 1
 300 201 l 1
 301 200 l 1
 499 200 l 1
EndSplineSet
EndChar

StartChar: U
Encoding: 85 85 173
Width: 800
VWidth: 0
Flags: H
LayerCount: 2
Fore
SplineSet
201 0 m 1
 200 1 l 1
 200 99 l 1
 201 100 l 1
 599 100 l 1
 600 99 l 1
 600 1 l 1
 599 0 l 1
 201 0 l 1
100 599 m 1
 101 600 l 1
 199 600 l 1
 200 599 l 1
 200 101 l 1
 199 100 l 1
 101 100 l 1
 100 101 l 1
 100 599 l 1
600 599 m 1
 601 600 l 1
 699 600 l 1
 700 599 l 1
 700 101 l 1
 699 100 l 1
 601 100 l 1
 600 101 l 1
 600 599 l 1
EndSplineSet
EndChar

StartChar: Uacute
Encoding: 218 218 174
Width: 800
VWidth: 0
Flags: H
LayerCount: 2
Fore
SplineSet
401 600 m 1
 400 601 l 1
 400 699 l 1
 401 700 l 1
 499 700 l 1
 500 699 l 1
 500 601 l 1
 499 600 l 1
 401 600 l 1
201 0 m 1
 200 1 l 1
 200 99 l 1
 201 100 l 1
 599 100 l 1
 600 99 l 1
 600 1 l 1
 599 0 l 1
 201 0 l 1
100 499 m 1
 101 500 l 1
 199 500 l 1
 200 499 l 1
 200 101 l 1
 199 100 l 1
 101 100 l 1
 100 101 l 1
 100 499 l 1
600 499 m 1
 601 500 l 1
 699 500 l 1
 700 499 l 1
 700 101 l 1
 699 100 l 1
 601 100 l 1
 600 101 l 1
 600 499 l 1
301 500 m 1
 300 501 l 1
 300 599 l 1
 301 600 l 1
 399 600 l 1
 400 599 l 1
 400 501 l 1
 399 500 l 1
 301 500 l 1
EndSplineSet
EndChar

StartChar: Ubreve
Encoding: 364 364 175
Width: 800
VWidth: 0
Flags: H
LayerCount: 2
Fore
SplineSet
201 0 m 1
 200 1 l 1
 200 99 l 1
 201 100 l 1
 599 100 l 1
 600 99 l 1
 600 1 l 1
 599 0 l 1
 201 0 l 1
100 499 m 1
 101 500 l 1
 199 500 l 1
 200 499 l 1
 200 101 l 1
 199 100 l 1
 101 100 l 1
 100 101 l 1
 100 499 l 1
600 499 m 1
 601 500 l 1
 699 500 l 1
 700 499 l 1
 700 101 l 1
 699 100 l 1
 601 100 l 1
 600 101 l 1
 600 499 l 1
499 600 m 1
 500 599 l 1
 500 501 l 1
 499 500 l 1
 301 500 l 1
 300 501 l 1
 300 599 l 1
 301 600 l 1
 499 600 l 1
201 600 m 1
 200 601 l 1
 200 699 l 1
 201 700 l 1
 299 700 l 1
 300 699 l 1
 300 601 l 1
 299 600 l 1
 201 600 l 1
501 600 m 1
 500 601 l 1
 500 699 l 1
 501 700 l 1
 599 700 l 1
 600 699 l 1
 600 601 l 1
 599 600 l 1
 501 600 l 1
EndSplineSet
EndChar

StartChar: Ucircumflex
Encoding: 219 219 176
Width: 800
VWidth: 0
Flags: H
LayerCount: 2
Fore
SplineSet
401 600 m 1
 400 601 l 1
 400 699 l 1
 401 700 l 1
 499 700 l 1
 500 699 l 1
 500 601 l 1
 499 600 l 1
 401 600 l 1
201 0 m 1
 200 1 l 1
 200 99 l 1
 201 100 l 1
 599 100 l 1
 600 99 l 1
 600 1 l 1
 599 0 l 1
 201 0 l 1
100 499 m 1
 101 500 l 1
 199 500 l 1
 200 499 l 1
 200 101 l 1
 199 100 l 1
 101 100 l 1
 100 101 l 1
 100 499 l 1
600 499 m 1
 601 500 l 1
 699 500 l 1
 700 499 l 1
 700 101 l 1
 699 100 l 1
 601 100 l 1
 600 101 l 1
 600 499 l 1
301 500 m 1
 300 501 l 1
 300 599 l 1
 301 600 l 1
 399 600 l 1
 400 599 l 1
 400 501 l 1
 399 500 l 1
 301 500 l 1
501 500 m 1
 500 501 l 1
 500 599 l 1
 501 600 l 1
 599 600 l 1
 600 599 l 1
 600 501 l 1
 599 500 l 1
 501 500 l 1
EndSplineSet
EndChar

StartChar: Uhungarumlaut
Encoding: 368 368 177
Width: 800
VWidth: 0
Flags: H
LayerCount: 2
Fore
SplineSet
201 0 m 1
 200 1 l 1
 200 99 l 1
 201 100 l 1
 599 100 l 1
 600 99 l 1
 600 1 l 1
 599 0 l 1
 201 0 l 1
100 499 m 1
 101 500 l 1
 199 500 l 1
 200 499 l 1
 200 101 l 1
 199 100 l 1
 101 100 l 1
 100 101 l 1
 100 499 l 1
600 499 m 1
 601 500 l 1
 699 500 l 1
 700 499 l 1
 700 101 l 1
 699 100 l 1
 601 100 l 1
 600 101 l 1
 600 499 l 1
301 600 m 1
 300 601 l 1
 300 699 l 1
 301 700 l 1
 399 700 l 1
 400 699 l 1
 400 601 l 1
 399 600 l 1
 301 600 l 1
201 500 m 1
 200 501 l 1
 200 599 l 1
 201 600 l 1
 299 600 l 1
 300 599 l 1
 300 501 l 1
 299 500 l 1
 201 500 l 1
501 500 m 1
 500 501 l 1
 500 599 l 1
 501 600 l 1
 599 600 l 1
 600 599 l 1
 600 501 l 1
 599 500 l 1
 501 500 l 1
601 600 m 1
 600 601 l 1
 600 699 l 1
 601 700 l 1
 699 700 l 1
 700 699 l 1
 700 601 l 1
 699 600 l 1
 601 600 l 1
EndSplineSet
EndChar

StartChar: Udieresis
Encoding: 220 220 178
Width: 800
VWidth: 0
Flags: H
LayerCount: 2
Fore
SplineSet
101 600 m 1
 100 601 l 1
 100 699 l 1
 101 700 l 1
 199 700 l 1
 200 699 l 1
 200 601 l 1
 199 600 l 1
 101 600 l 1
201 0 m 1
 200 1 l 1
 200 99 l 1
 201 100 l 1
 599 100 l 1
 600 99 l 1
 600 1 l 1
 599 0 l 1
 201 0 l 1
100 499 m 1
 101 500 l 1
 199 500 l 1
 200 499 l 1
 200 101 l 1
 199 100 l 1
 101 100 l 1
 100 101 l 1
 100 499 l 1
600 499 m 1
 601 500 l 1
 699 500 l 1
 700 499 l 1
 700 101 l 1
 699 100 l 1
 601 100 l 1
 600 101 l 1
 600 499 l 1
601 600 m 1
 600 601 l 1
 600 699 l 1
 601 700 l 1
 699 700 l 1
 700 699 l 1
 700 601 l 1
 699 600 l 1
 601 600 l 1
EndSplineSet
EndChar

StartChar: Ugrave
Encoding: 217 217 179
Width: 800
VWidth: 0
Flags: H
LayerCount: 2
Fore
SplineSet
301 600 m 1
 300 601 l 1
 300 699 l 1
 301 700 l 1
 399 700 l 1
 400 699 l 1
 400 601 l 1
 399 600 l 1
 301 600 l 1
201 0 m 1
 200 1 l 1
 200 99 l 1
 201 100 l 1
 599 100 l 1
 600 99 l 1
 600 1 l 1
 599 0 l 1
 201 0 l 1
100 499 m 1
 101 500 l 1
 199 500 l 1
 200 499 l 1
 200 101 l 1
 199 100 l 1
 101 100 l 1
 100 101 l 1
 100 499 l 1
600 499 m 1
 601 500 l 1
 699 500 l 1
 700 499 l 1
 700 101 l 1
 699 100 l 1
 601 100 l 1
 600 101 l 1
 600 499 l 1
401 500 m 1
 400 501 l 1
 400 599 l 1
 401 600 l 1
 499 600 l 1
 500 599 l 1
 500 501 l 1
 499 500 l 1
 401 500 l 1
EndSplineSet
EndChar

StartChar: Umacron
Encoding: 362 362 180
Width: 800
VWidth: 0
Flags: H
LayerCount: 2
Fore
SplineSet
201 0 m 1
 200 1 l 1
 200 99 l 1
 201 100 l 1
 599 100 l 1
 600 99 l 1
 600 1 l 1
 599 0 l 1
 201 0 l 1
100 499 m 1
 101 500 l 1
 199 500 l 1
 200 499 l 1
 200 101 l 1
 199 100 l 1
 101 100 l 1
 100 101 l 1
 100 499 l 1
600 499 m 1
 601 500 l 1
 699 500 l 1
 700 499 l 1
 700 101 l 1
 699 100 l 1
 601 100 l 1
 600 101 l 1
 600 499 l 1
201 600 m 1
 200 601 l 1
 200 699 l 1
 201 700 l 1
 599 700 l 1
 600 699 l 1
 600 601 l 1
 599 600 l 1
 201 600 l 1
EndSplineSet
EndChar

StartChar: Uogonek
Encoding: 370 370 181
Width: 800
VWidth: 0
Flags: H
LayerCount: 2
Fore
SplineSet
100 599 m 1
 101 600 l 1
 199 600 l 1
 200 599 l 1
 200 101 l 1
 199 100 l 1
 101 100 l 1
 100 101 l 1
 100 599 l 1
600 599 m 1
 601 600 l 1
 699 600 l 1
 700 599 l 1
 700 101 l 1
 699 100 l 1
 601 100 l 1
 600 101 l 1
 600 599 l 1
600 99 m 1
 600 1 l 1
 601 0 l 1
 699 0 l 1
 700 -1 l 1
 700 -99 l 1
 699 -100 l 1
 501 -100 l 1
 500 -99 l 1
 500 -1 l 1
 499 0 l 1
 201 0 l 1
 200 1 l 1
 200 99 l 1
 201 100 l 1
 599 100 l 1
 600 99 l 1
EndSplineSet
EndChar

StartChar: Upsilon
Encoding: 933 933 182
Width: 800
VWidth: 0
Flags: H
LayerCount: 2
Fore
SplineSet
201 300 m 1
 200 301 l 1
 200 399 l 1
 201 400 l 1
 299 400 l 1
 300 399 l 1
 300 301 l 1
 299 300 l 1
 201 300 l 1
101 400 m 1
 100 401 l 1
 100 499 l 1
 101 500 l 1
 199 500 l 1
 200 499 l 1
 200 401 l 1
 199 400 l 1
 101 400 l 1
501 400 m 1
 500 401 l 1
 500 499 l 1
 501 500 l 1
 599 500 l 1
 600 499 l 1
 600 401 l 1
 599 400 l 1
 501 400 l 1
401 300 m 1
 400 301 l 1
 400 399 l 1
 401 400 l 1
 499 400 l 1
 500 399 l 1
 500 301 l 1
 499 300 l 1
 401 300 l 1
1 500 m 1
 0 501 l 1
 0 599 l 1
 1 600 l 1
 99 600 l 1
 100 599 l 1
 100 501 l 1
 99 500 l 1
 1 500 l 1
601 500 m 1
 600 501 l 1
 600 599 l 1
 601 600 l 1
 699 600 l 1
 700 599 l 1
 700 501 l 1
 699 500 l 1
 601 500 l 1
300 299 m 1
 301 300 l 1
 399 300 l 1
 400 299 l 1
 400 1 l 1
 399 0 l 1
 301 0 l 1
 300 1 l 1
 300 299 l 1
EndSplineSet
EndChar

StartChar: Upsilondieresis
Encoding: 939 939 183
Width: 800
VWidth: 0
Flags: H
LayerCount: 2
Fore
SplineSet
201 300 m 1
 200 301 l 1
 200 399 l 1
 201 400 l 1
 299 400 l 1
 300 399 l 1
 300 301 l 1
 299 300 l 1
 201 300 l 1
101 400 m 1
 100 401 l 1
 100 499 l 1
 101 500 l 1
 199 500 l 1
 200 499 l 1
 200 401 l 1
 199 400 l 1
 101 400 l 1
501 400 m 1
 500 401 l 1
 500 499 l 1
 501 500 l 1
 599 500 l 1
 600 499 l 1
 600 401 l 1
 599 400 l 1
 501 400 l 1
401 300 m 1
 400 301 l 1
 400 399 l 1
 401 400 l 1
 499 400 l 1
 500 399 l 1
 500 301 l 1
 499 300 l 1
 401 300 l 1
1 500 m 1
 0 501 l 1
 0 599 l 1
 1 600 l 1
 99 600 l 1
 100 599 l 1
 100 501 l 1
 99 500 l 1
 1 500 l 1
601 500 m 1
 600 501 l 1
 600 599 l 1
 601 600 l 1
 699 600 l 1
 700 599 l 1
 700 501 l 1
 699 500 l 1
 601 500 l 1
300 299 m 1
 301 300 l 1
 399 300 l 1
 400 299 l 1
 400 1 l 1
 399 0 l 1
 301 0 l 1
 300 1 l 1
 300 299 l 1
401 600 m 1
 400 601 l 1
 400 699 l 1
 401 700 l 1
 499 700 l 1
 500 699 l 1
 500 601 l 1
 499 600 l 1
 401 600 l 1
201 600 m 1
 200 601 l 1
 200 699 l 1
 201 700 l 1
 299 700 l 1
 300 699 l 1
 300 601 l 1
 299 600 l 1
 201 600 l 1
EndSplineSet
EndChar

StartChar: Upsilontonos
Encoding: 910 910 184
Width: 800
VWidth: 0
Flags: H
LayerCount: 2
Fore
SplineSet
301 300 m 1
 300 301 l 1
 300 399 l 1
 301 400 l 1
 399 400 l 1
 400 399 l 1
 400 301 l 1
 399 300 l 1
 301 300 l 1
201 400 m 1
 200 401 l 1
 200 499 l 1
 201 500 l 1
 299 500 l 1
 300 499 l 1
 300 401 l 1
 299 400 l 1
 201 400 l 1
601 400 m 1
 600 401 l 1
 600 499 l 1
 601 500 l 1
 699 500 l 1
 700 499 l 1
 700 401 l 1
 699 400 l 1
 601 400 l 1
501 300 m 1
 500 301 l 1
 500 399 l 1
 501 400 l 1
 599 400 l 1
 600 399 l 1
 600 301 l 1
 599 300 l 1
 501 300 l 1
400 299 m 1
 401 300 l 1
 499 300 l 1
 500 299 l 1
 500 1 l 1
 499 0 l 1
 401 0 l 1
 400 1 l 1
 400 299 l 1
101 600 m 1
 100 601 l 1
 100 699 l 1
 101 700 l 1
 199 700 l 1
 200 699 l 1
 200 601 l 1
 199 600 l 1
 101 600 l 1
1 500 m 1
 0 501 l 1
 0 599 l 1
 1 600 l 1
 99 600 l 1
 100 599 l 1
 100 501 l 1
 99 500 l 1
 1 500 l 1
EndSplineSet
EndChar

StartChar: Uring
Encoding: 366 366 185
Width: 800
VWidth: 0
Flags: H
LayerCount: 2
Fore
SplineSet
201 0 m 1
 200 1 l 1
 200 99 l 1
 201 100 l 1
 599 100 l 1
 600 99 l 1
 600 1 l 1
 599 0 l 1
 201 0 l 1
100 499 m 1
 101 500 l 1
 199 500 l 1
 200 499 l 1
 200 101 l 1
 199 100 l 1
 101 100 l 1
 100 101 l 1
 100 499 l 1
600 499 m 1
 601 500 l 1
 699 500 l 1
 700 499 l 1
 700 101 l 1
 699 100 l 1
 601 100 l 1
 600 101 l 1
 600 499 l 1
501 500 m 1
 500 501 l 1
 500 599 l 1
 501 600 l 1
 599 600 l 1
 600 599 l 1
 600 501 l 1
 599 500 l 1
 501 500 l 1
401 400 m 1
 400 401 l 1
 400 499 l 1
 401 500 l 1
 499 500 l 1
 500 499 l 1
 500 401 l 1
 499 400 l 1
 401 400 l 1
301 500 m 1
 300 501 l 1
 300 599 l 1
 301 600 l 1
 399 600 l 1
 400 599 l 1
 400 501 l 1
 399 500 l 1
 301 500 l 1
401 600 m 1
 400 601 l 1
 400 699 l 1
 401 700 l 1
 499 700 l 1
 500 699 l 1
 500 601 l 1
 499 600 l 1
 401 600 l 1
EndSplineSet
EndChar

StartChar: Utilde
Encoding: 360 360 186
Width: 800
VWidth: 0
Flags: H
LayerCount: 2
Fore
SplineSet
201 0 m 1
 200 1 l 1
 200 99 l 1
 201 100 l 1
 599 100 l 1
 600 99 l 1
 600 1 l 1
 599 0 l 1
 201 0 l 1
100 499 m 1
 101 500 l 1
 199 500 l 1
 200 499 l 1
 200 101 l 1
 199 100 l 1
 101 100 l 1
 100 101 l 1
 100 499 l 1
600 499 m 1
 601 500 l 1
 699 500 l 1
 700 499 l 1
 700 101 l 1
 699 100 l 1
 601 100 l 1
 600 101 l 1
 600 499 l 1
301 600 m 1
 300 601 l 1
 300 699 l 1
 301 700 l 1
 399 700 l 1
 400 699 l 1
 400 601 l 1
 399 600 l 1
 301 600 l 1
201 500 m 1
 200 501 l 1
 200 599 l 1
 201 600 l 1
 299 600 l 1
 300 599 l 1
 300 501 l 1
 299 500 l 1
 201 500 l 1
401 500 m 1
 400 501 l 1
 400 599 l 1
 401 600 l 1
 499 600 l 1
 500 599 l 1
 500 501 l 1
 499 500 l 1
 401 500 l 1
501 600 m 1
 500 601 l 1
 500 699 l 1
 501 700 l 1
 599 700 l 1
 600 699 l 1
 600 601 l 1
 599 600 l 1
 501 600 l 1
EndSplineSet
EndChar

StartChar: V
Encoding: 86 86 187
Width: 800
VWidth: 0
Flags: H
LayerCount: 2
Fore
SplineSet
499 100 m 1
 500 99 l 1
 500 1 l 1
 499 0 l 1
 301 0 l 1
 300 1 l 1
 300 99 l 1
 301 100 l 1
 499 100 l 1
600 599 m 1
 601 600 l 1
 699 600 l 1
 700 599 l 1
 700 201 l 1
 699 200 l 1
 601 200 l 1
 600 201 l 1
 600 599 l 1
100 599 m 1
 101 600 l 1
 199 600 l 1
 200 599 l 1
 200 201 l 1
 199 200 l 1
 101 200 l 1
 100 201 l 1
 100 599 l 1
201 100 m 1
 200 101 l 1
 200 199 l 1
 201 200 l 1
 299 200 l 1
 300 199 l 1
 300 101 l 1
 299 100 l 1
 201 100 l 1
501 100 m 1
 500 101 l 1
 500 199 l 1
 501 200 l 1
 599 200 l 1
 600 199 l 1
 600 101 l 1
 599 100 l 1
 501 100 l 1
EndSplineSet
EndChar

StartChar: W
Encoding: 87 87 188
Width: 800
VWidth: 0
Flags: H
LayerCount: 2
Fore
SplineSet
499 200 m 1
 500 199 l 1
 500 101 l 1
 499 100 l 1
 301 100 l 1
 300 101 l 1
 300 199 l 1
 301 200 l 1
 499 200 l 1
600 599 m 1
 601 600 l 1
 699 600 l 1
 700 599 l 1
 700 101 l 1
 699 100 l 1
 601 100 l 1
 600 101 l 1
 600 599 l 1
100 599 m 1
 101 600 l 1
 199 600 l 1
 200 599 l 1
 200 101 l 1
 199 100 l 1
 101 100 l 1
 100 101 l 1
 100 599 l 1
201 0 m 1
 200 1 l 1
 200 99 l 1
 201 100 l 1
 299 100 l 1
 300 99 l 1
 300 1 l 1
 299 0 l 1
 201 0 l 1
501 0 m 1
 500 1 l 1
 500 99 l 1
 501 100 l 1
 599 100 l 1
 600 99 l 1
 600 1 l 1
 599 0 l 1
 501 0 l 1
EndSplineSet
EndChar

StartChar: Wacute
Encoding: 7810 7810 189
Width: 800
VWidth: 0
Flags: H
LayerCount: 2
Fore
SplineSet
499 200 m 1
 500 199 l 1
 500 101 l 1
 499 100 l 1
 301 100 l 1
 300 101 l 1
 300 199 l 1
 301 200 l 1
 499 200 l 1
600 599 m 1
 601 600 l 1
 699 600 l 1
 700 599 l 1
 700 101 l 1
 699 100 l 1
 601 100 l 1
 600 101 l 1
 600 599 l 1
100 599 m 1
 101 600 l 1
 199 600 l 1
 200 599 l 1
 200 101 l 1
 199 100 l 1
 101 100 l 1
 100 101 l 1
 100 599 l 1
201 0 m 1
 200 1 l 1
 200 99 l 1
 201 100 l 1
 299 100 l 1
 300 99 l 1
 300 1 l 1
 299 0 l 1
 201 0 l 1
501 0 m 1
 500 1 l 1
 500 99 l 1
 501 100 l 1
 599 100 l 1
 600 99 l 1
 600 1 l 1
 599 0 l 1
 501 0 l 1
399 500 m 1
 301 500 l 1
 300 501 l 1
 300 599 l 1
 301 600 l 1
 399 600 l 1
 400 599 l 1
 400 501 l 1
 399 500 l 1
499 600 m 1
 401 600 l 1
 400 601 l 1
 400 699 l 1
 401 700 l 1
 499 700 l 1
 500 699 l 1
 500 601 l 1
 499 600 l 1
EndSplineSet
EndChar

StartChar: Wcircumflex
Encoding: 372 372 190
Width: 800
VWidth: 0
Flags: H
LayerCount: 2
Fore
SplineSet
499 200 m 1
 500 199 l 1
 500 101 l 1
 499 100 l 1
 301 100 l 1
 300 101 l 1
 300 199 l 1
 301 200 l 1
 499 200 l 1
600 499 m 1
 601 500 l 1
 699 500 l 1
 700 499 l 1
 700 101 l 1
 699 100 l 1
 601 100 l 1
 600 101 l 1
 600 499 l 1
100 499 m 1
 101 500 l 1
 199 500 l 1
 200 499 l 1
 200 101 l 1
 199 100 l 1
 101 100 l 1
 100 101 l 1
 100 499 l 1
201 0 m 1
 200 1 l 1
 200 99 l 1
 201 100 l 1
 299 100 l 1
 300 99 l 1
 300 1 l 1
 299 0 l 1
 201 0 l 1
501 0 m 1
 500 1 l 1
 500 99 l 1
 501 100 l 1
 599 100 l 1
 600 99 l 1
 600 1 l 1
 599 0 l 1
 501 0 l 1
501 500 m 1
 500 501 l 1
 500 599 l 1
 501 600 l 1
 599 600 l 1
 600 599 l 1
 600 501 l 1
 599 500 l 1
 501 500 l 1
301 500 m 1
 300 501 l 1
 300 599 l 1
 301 600 l 1
 399 600 l 1
 400 599 l 1
 400 501 l 1
 399 500 l 1
 301 500 l 1
401 600 m 1
 400 601 l 1
 400 699 l 1
 401 700 l 1
 499 700 l 1
 500 699 l 1
 500 601 l 1
 499 600 l 1
 401 600 l 1
EndSplineSet
EndChar

StartChar: Wdieresis
Encoding: 7812 7812 191
Width: 800
VWidth: 0
Flags: H
LayerCount: 2
Fore
SplineSet
499 200 m 1
 500 199 l 1
 500 101 l 1
 499 100 l 1
 301 100 l 1
 300 101 l 1
 300 199 l 1
 301 200 l 1
 499 200 l 1
600 499 m 1
 601 500 l 1
 699 500 l 1
 700 499 l 1
 700 101 l 1
 699 100 l 1
 601 100 l 1
 600 101 l 1
 600 499 l 1
100 499 m 1
 101 500 l 1
 199 500 l 1
 200 499 l 1
 200 101 l 1
 199 100 l 1
 101 100 l 1
 100 101 l 1
 100 499 l 1
201 0 m 1
 200 1 l 1
 200 99 l 1
 201 100 l 1
 299 100 l 1
 300 99 l 1
 300 1 l 1
 299 0 l 1
 201 0 l 1
501 0 m 1
 500 1 l 1
 500 99 l 1
 501 100 l 1
 599 100 l 1
 600 99 l 1
 600 1 l 1
 599 0 l 1
 501 0 l 1
201 600 m 1
 200 601 l 1
 200 699 l 1
 201 700 l 1
 299 700 l 1
 300 699 l 1
 300 601 l 1
 299 600 l 1
 201 600 l 1
501 600 m 1
 500 601 l 1
 500 699 l 1
 501 700 l 1
 599 700 l 1
 600 699 l 1
 600 601 l 1
 599 600 l 1
 501 600 l 1
EndSplineSet
EndChar

StartChar: Wgrave
Encoding: 7808 7808 192
Width: 800
VWidth: 0
Flags: H
LayerCount: 2
Fore
SplineSet
499 200 m 1
 500 199 l 1
 500 101 l 1
 499 100 l 1
 301 100 l 1
 300 101 l 1
 300 199 l 1
 301 200 l 1
 499 200 l 1
600 599 m 1
 601 600 l 1
 699 600 l 1
 700 599 l 1
 700 101 l 1
 699 100 l 1
 601 100 l 1
 600 101 l 1
 600 599 l 1
100 599 m 1
 101 600 l 1
 199 600 l 1
 200 599 l 1
 200 101 l 1
 199 100 l 1
 101 100 l 1
 100 101 l 1
 100 599 l 1
201 0 m 1
 200 1 l 1
 200 99 l 1
 201 100 l 1
 299 100 l 1
 300 99 l 1
 300 1 l 1
 299 0 l 1
 201 0 l 1
501 0 m 1
 500 1 l 1
 500 99 l 1
 501 100 l 1
 599 100 l 1
 600 99 l 1
 600 1 l 1
 599 0 l 1
 501 0 l 1
401 500 m 1
 400 501 l 1
 400 599 l 1
 401 600 l 1
 499 600 l 1
 500 599 l 1
 500 501 l 1
 499 500 l 1
 401 500 l 1
301 600 m 1
 300 601 l 1
 300 699 l 1
 301 700 l 1
 399 700 l 1
 400 699 l 1
 400 601 l 1
 399 600 l 1
 301 600 l 1
EndSplineSet
EndChar

StartChar: X
Encoding: 88 88 193
Width: 800
VWidth: 0
Flags: H
LayerCount: 2
Fore
SplineSet
201 100 m 1
 200 101 l 1
 200 199 l 1
 201 200 l 1
 299 200 l 1
 300 199 l 1
 300 101 l 1
 299 100 l 1
 201 100 l 1
501 100 m 1
 500 101 l 1
 500 199 l 1
 501 200 l 1
 599 200 l 1
 600 199 l 1
 600 101 l 1
 599 100 l 1
 501 100 l 1
300 399 m 1
 301 400 l 1
 499 400 l 1
 500 399 l 1
 500 201 l 1
 499 200 l 1
 301 200 l 1
 300 201 l 1
 300 399 l 1
201 400 m 1
 200 401 l 1
 200 499 l 1
 201 500 l 1
 299 500 l 1
 300 499 l 1
 300 401 l 1
 299 400 l 1
 201 400 l 1
501 400 m 1
 500 401 l 1
 500 499 l 1
 501 500 l 1
 599 500 l 1
 600 499 l 1
 600 401 l 1
 599 400 l 1
 501 400 l 1
101 0 m 1
 100 1 l 1
 100 99 l 1
 101 100 l 1
 199 100 l 1
 200 99 l 1
 200 1 l 1
 199 0 l 1
 101 0 l 1
601 0 m 1
 600 1 l 1
 600 99 l 1
 601 100 l 1
 699 100 l 1
 700 99 l 1
 700 1 l 1
 699 0 l 1
 601 0 l 1
101 500 m 1
 100 501 l 1
 100 599 l 1
 101 600 l 1
 199 600 l 1
 200 599 l 1
 200 501 l 1
 199 500 l 1
 101 500 l 1
601 500 m 1
 600 501 l 1
 600 599 l 1
 601 600 l 1
 699 600 l 1
 700 599 l 1
 700 501 l 1
 699 500 l 1
 601 500 l 1
EndSplineSet
EndChar

StartChar: Xi
Encoding: 926 926 194
Width: 800
VWidth: 0
Flags: H
LayerCount: 2
Fore
SplineSet
101 0 m 1
 100 1 l 1
 100 99 l 1
 101 100 l 1
 699 100 l 1
 700 99 l 1
 700 1 l 1
 699 0 l 1
 101 0 l 1
101 400 m 1
 100 401 l 1
 100 499 l 1
 101 500 l 1
 699 500 l 1
 700 499 l 1
 700 401 l 1
 699 400 l 1
 101 400 l 1
201 200 m 1
 200 201 l 1
 200 299 l 1
 201 300 l 1
 599 300 l 1
 600 299 l 1
 600 201 l 1
 599 200 l 1
 201 200 l 1
EndSplineSet
EndChar

StartChar: Y
Encoding: 89 89 195
Width: 800
VWidth: 0
Flags: H
LayerCount: 2
Fore
SplineSet
201 300 m 1
 200 301 l 1
 200 399 l 1
 201 400 l 1
 299 400 l 1
 300 399 l 1
 300 301 l 1
 299 300 l 1
 201 300 l 1
101 400 m 1
 100 401 l 1
 100 499 l 1
 101 500 l 1
 199 500 l 1
 200 499 l 1
 200 401 l 1
 199 400 l 1
 101 400 l 1
501 400 m 1
 500 401 l 1
 500 499 l 1
 501 500 l 1
 599 500 l 1
 600 499 l 1
 600 401 l 1
 599 400 l 1
 501 400 l 1
401 300 m 1
 400 301 l 1
 400 399 l 1
 401 400 l 1
 499 400 l 1
 500 399 l 1
 500 301 l 1
 499 300 l 1
 401 300 l 1
1 500 m 1
 0 501 l 1
 0 599 l 1
 1 600 l 1
 99 600 l 1
 100 599 l 1
 100 501 l 1
 99 500 l 1
 1 500 l 1
601 500 m 1
 600 501 l 1
 600 599 l 1
 601 600 l 1
 699 600 l 1
 700 599 l 1
 700 501 l 1
 699 500 l 1
 601 500 l 1
300 299 m 1
 301 300 l 1
 399 300 l 1
 400 299 l 1
 400 1 l 1
 399 0 l 1
 301 0 l 1
 300 1 l 1
 300 299 l 1
EndSplineSet
EndChar

StartChar: Yacute
Encoding: 221 221 196
Width: 800
VWidth: 0
Flags: H
LayerCount: 2
Fore
SplineSet
401 600 m 1
 400 601 l 1
 400 699 l 1
 401 700 l 1
 499 700 l 1
 500 699 l 1
 500 601 l 1
 499 600 l 1
 401 600 l 1
301 500 m 1
 300 501 l 1
 300 599 l 1
 301 600 l 1
 399 600 l 1
 400 599 l 1
 400 501 l 1
 399 500 l 1
 301 500 l 1
201 300 m 1
 200 301 l 1
 200 399 l 1
 201 400 l 1
 299 400 l 1
 300 399 l 1
 300 301 l 1
 299 300 l 1
 201 300 l 1
101 400 m 1
 100 401 l 1
 100 499 l 1
 101 500 l 1
 199 500 l 1
 200 499 l 1
 200 401 l 1
 199 400 l 1
 101 400 l 1
501 400 m 1
 500 401 l 1
 500 499 l 1
 501 500 l 1
 599 500 l 1
 600 499 l 1
 600 401 l 1
 599 400 l 1
 501 400 l 1
401 300 m 1
 400 301 l 1
 400 399 l 1
 401 400 l 1
 499 400 l 1
 500 399 l 1
 500 301 l 1
 499 300 l 1
 401 300 l 1
1 500 m 1
 0 501 l 1
 0 599 l 1
 1 600 l 1
 99 600 l 1
 100 599 l 1
 100 501 l 1
 99 500 l 1
 1 500 l 1
601 500 m 1
 600 501 l 1
 600 599 l 1
 601 600 l 1
 699 600 l 1
 700 599 l 1
 700 501 l 1
 699 500 l 1
 601 500 l 1
300 299 m 1
 301 300 l 1
 399 300 l 1
 400 299 l 1
 400 1 l 1
 399 0 l 1
 301 0 l 1
 300 1 l 1
 300 299 l 1
EndSplineSet
EndChar

StartChar: Ycircumflex
Encoding: 374 374 197
Width: 800
VWidth: 0
Flags: H
LayerCount: 2
Fore
SplineSet
201 200 m 1
 200 201 l 1
 200 299 l 1
 201 300 l 1
 299 300 l 1
 300 299 l 1
 300 201 l 1
 299 200 l 1
 201 200 l 1
101 300 m 1
 100 301 l 1
 100 399 l 1
 101 400 l 1
 199 400 l 1
 200 399 l 1
 200 301 l 1
 199 300 l 1
 101 300 l 1
501 300 m 1
 500 301 l 1
 500 399 l 1
 501 400 l 1
 599 400 l 1
 600 399 l 1
 600 301 l 1
 599 300 l 1
 501 300 l 1
401 200 m 1
 400 201 l 1
 400 299 l 1
 401 300 l 1
 499 300 l 1
 500 299 l 1
 500 201 l 1
 499 200 l 1
 401 200 l 1
1 400 m 1
 0 401 l 1
 0 499 l 1
 1 500 l 1
 99 500 l 1
 100 499 l 1
 100 401 l 1
 99 400 l 1
 1 400 l 1
601 400 m 1
 600 401 l 1
 600 499 l 1
 601 500 l 1
 699 500 l 1
 700 499 l 1
 700 401 l 1
 699 400 l 1
 601 400 l 1
300 199 m 1
 301 200 l 1
 399 200 l 1
 400 199 l 1
 400 1 l 1
 399 0 l 1
 301 0 l 1
 300 1 l 1
 300 199 l 1
401 500 m 1
 400 501 l 1
 400 599 l 1
 401 600 l 1
 499 600 l 1
 500 599 l 1
 500 501 l 1
 499 500 l 1
 401 500 l 1
201 500 m 1
 200 501 l 1
 200 599 l 1
 201 600 l 1
 299 600 l 1
 300 599 l 1
 300 501 l 1
 299 500 l 1
 201 500 l 1
301 600 m 1
 300 601 l 1
 300 699 l 1
 301 700 l 1
 399 700 l 1
 400 699 l 1
 400 601 l 1
 399 600 l 1
 301 600 l 1
EndSplineSet
EndChar

StartChar: Ydieresis
Encoding: 376 376 198
Width: 800
VWidth: 0
Flags: H
LayerCount: 2
Fore
SplineSet
201 300 m 1
 200 301 l 1
 200 399 l 1
 201 400 l 1
 299 400 l 1
 300 399 l 1
 300 301 l 1
 299 300 l 1
 201 300 l 1
101 400 m 1
 100 401 l 1
 100 499 l 1
 101 500 l 1
 199 500 l 1
 200 499 l 1
 200 401 l 1
 199 400 l 1
 101 400 l 1
501 400 m 1
 500 401 l 1
 500 499 l 1
 501 500 l 1
 599 500 l 1
 600 499 l 1
 600 401 l 1
 599 400 l 1
 501 400 l 1
401 300 m 1
 400 301 l 1
 400 399 l 1
 401 400 l 1
 499 400 l 1
 500 399 l 1
 500 301 l 1
 499 300 l 1
 401 300 l 1
1 500 m 1
 0 501 l 1
 0 599 l 1
 1 600 l 1
 99 600 l 1
 100 599 l 1
 100 501 l 1
 99 500 l 1
 1 500 l 1
601 500 m 1
 600 501 l 1
 600 599 l 1
 601 600 l 1
 699 600 l 1
 700 599 l 1
 700 501 l 1
 699 500 l 1
 601 500 l 1
300 299 m 1
 301 300 l 1
 399 300 l 1
 400 299 l 1
 400 1 l 1
 399 0 l 1
 301 0 l 1
 300 1 l 1
 300 299 l 1
401 600 m 1
 400 601 l 1
 400 699 l 1
 401 700 l 1
 499 700 l 1
 500 699 l 1
 500 601 l 1
 499 600 l 1
 401 600 l 1
201 600 m 1
 200 601 l 1
 200 699 l 1
 201 700 l 1
 299 700 l 1
 300 699 l 1
 300 601 l 1
 299 600 l 1
 201 600 l 1
EndSplineSet
EndChar

StartChar: Ygrave
Encoding: 7922 7922 199
Width: 800
VWidth: 0
Flags: H
LayerCount: 2
Fore
SplineSet
301 500 m 1
 300 501 l 1
 300 599 l 1
 301 600 l 1
 399 600 l 1
 400 599 l 1
 400 501 l 1
 399 500 l 1
 301 500 l 1
201 300 m 1
 200 301 l 1
 200 399 l 1
 201 400 l 1
 299 400 l 1
 300 399 l 1
 300 301 l 1
 299 300 l 1
 201 300 l 1
101 400 m 1
 100 401 l 1
 100 499 l 1
 101 500 l 1
 199 500 l 1
 200 499 l 1
 200 401 l 1
 199 400 l 1
 101 400 l 1
501 400 m 1
 500 401 l 1
 500 499 l 1
 501 500 l 1
 599 500 l 1
 600 499 l 1
 600 401 l 1
 599 400 l 1
 501 400 l 1
401 300 m 1
 400 301 l 1
 400 399 l 1
 401 400 l 1
 499 400 l 1
 500 399 l 1
 500 301 l 1
 499 300 l 1
 401 300 l 1
1 500 m 1
 0 501 l 1
 0 599 l 1
 1 600 l 1
 99 600 l 1
 100 599 l 1
 100 501 l 1
 99 500 l 1
 1 500 l 1
601 500 m 1
 600 501 l 1
 600 599 l 1
 601 600 l 1
 699 600 l 1
 700 599 l 1
 700 501 l 1
 699 500 l 1
 601 500 l 1
300 299 m 1
 301 300 l 1
 399 300 l 1
 400 299 l 1
 400 1 l 1
 399 0 l 1
 301 0 l 1
 300 1 l 1
 300 299 l 1
201 600 m 1
 200 601 l 1
 200 699 l 1
 201 700 l 1
 299 700 l 1
 300 699 l 1
 300 601 l 1
 299 600 l 1
 201 600 l 1
EndSplineSet
EndChar

StartChar: Z
Encoding: 90 90 200
Width: 800
VWidth: 0
Flags: H
LayerCount: 2
Fore
SplineSet
401 300 m 1
 400 301 l 1
 400 399 l 1
 401 400 l 1
 499 400 l 1
 500 399 l 1
 500 301 l 1
 499 300 l 1
 401 300 l 1
301 200 m 1
 300 201 l 1
 300 299 l 1
 301 300 l 1
 399 300 l 1
 400 299 l 1
 400 201 l 1
 399 200 l 1
 301 200 l 1
200 199 m 1
 201 200 l 1
 299 200 l 1
 300 199 l 1
 300 101 l 1
 301 100 l 1
 699 100 l 1
 700 99 l 1
 700 1 l 1
 699 0 l 1
 101 0 l 1
 100 1 l 1
 100 99 l 1
 101 100 l 1
 199 100 l 1
 200 101 l 1
 200 199 l 1
600 401 m 1
 599 400 l 1
 501 400 l 1
 500 401 l 1
 500 499 l 1
 499 500 l 1
 101 500 l 1
 100 501 l 1
 100 599 l 1
 101 600 l 1
 699 600 l 1
 700 599 l 1
 700 501 l 1
 699 500 l 1
 601 500 l 1
 600 499 l 1
 600 401 l 1
EndSplineSet
EndChar

StartChar: Zacute
Encoding: 377 377 201
Width: 800
VWidth: 0
Flags: H
LayerCount: 2
Fore
SplineSet
301 200 m 1
 300 201 l 1
 300 299 l 1
 301 300 l 1
 399 300 l 1
 400 299 l 1
 400 201 l 1
 399 200 l 1
 301 200 l 1
200 199 m 1
 201 200 l 1
 299 200 l 1
 300 199 l 1
 300 101 l 1
 301 100 l 1
 599 100 l 1
 600 99 l 1
 600 1 l 1
 599 0 l 1
 101 0 l 1
 100 1 l 1
 100 99 l 1
 101 100 l 1
 199 100 l 1
 200 101 l 1
 200 199 l 1
401 600 m 1
 400 601 l 1
 400 699 l 1
 401 700 l 1
 499 700 l 1
 500 699 l 1
 500 601 l 1
 499 600 l 1
 401 600 l 1
599 500 m 1
 600 499 l 1
 600 401 l 1
 599 400 l 1
 501 400 l 1
 500 399 l 1
 500 301 l 1
 499 300 l 1
 401 300 l 1
 400 301 l 1
 400 399 l 1
 399 400 l 1
 101 400 l 1
 100 401 l 1
 100 499 l 1
 101 500 l 1
 299 500 l 1
 300 501 l 1
 300 599 l 1
 301 600 l 1
 399 600 l 1
 400 599 l 1
 400 501 l 1
 401 500 l 1
 599 500 l 1
EndSplineSet
EndChar

StartChar: Zcaron
Encoding: 381 381 202
Width: 800
VWidth: 0
Flags: H
LayerCount: 2
Fore
SplineSet
301 200 m 1
 300 201 l 1
 300 299 l 1
 301 300 l 1
 399 300 l 1
 400 299 l 1
 400 201 l 1
 399 200 l 1
 301 200 l 1
200 199 m 1
 201 200 l 1
 299 200 l 1
 300 199 l 1
 300 101 l 1
 301 100 l 1
 599 100 l 1
 600 99 l 1
 600 1 l 1
 599 0 l 1
 101 0 l 1
 100 1 l 1
 100 99 l 1
 101 100 l 1
 199 100 l 1
 200 101 l 1
 200 199 l 1
401 600 m 1
 400 601 l 1
 400 699 l 1
 401 700 l 1
 499 700 l 1
 500 699 l 1
 500 601 l 1
 499 600 l 1
 401 600 l 1
599 500 m 1
 600 499 l 1
 600 401 l 1
 599 400 l 1
 501 400 l 1
 500 399 l 1
 500 301 l 1
 499 300 l 1
 401 300 l 1
 400 301 l 1
 400 399 l 1
 399 400 l 1
 101 400 l 1
 100 401 l 1
 100 499 l 1
 101 500 l 1
 299 500 l 1
 300 501 l 1
 300 599 l 1
 301 600 l 1
 399 600 l 1
 400 599 l 1
 400 501 l 1
 401 500 l 1
 599 500 l 1
201 600 m 1
 200 601 l 1
 200 699 l 1
 201 700 l 1
 299 700 l 1
 300 699 l 1
 300 601 l 1
 299 600 l 1
 201 600 l 1
EndSplineSet
EndChar

StartChar: Zdotaccent
Encoding: 379 379 203
Width: 800
VWidth: 0
Flags: H
LayerCount: 2
Fore
SplineSet
301 200 m 1
 300 201 l 1
 300 299 l 1
 301 300 l 1
 399 300 l 1
 400 299 l 1
 400 201 l 1
 399 200 l 1
 301 200 l 1
200 199 m 1
 201 200 l 1
 299 200 l 1
 300 199 l 1
 300 101 l 1
 301 100 l 1
 599 100 l 1
 600 99 l 1
 600 1 l 1
 599 0 l 1
 101 0 l 1
 100 1 l 1
 100 99 l 1
 101 100 l 1
 199 100 l 1
 200 101 l 1
 200 199 l 1
500 301 m 1
 499 300 l 1
 401 300 l 1
 400 301 l 1
 400 399 l 1
 399 400 l 1
 101 400 l 1
 100 401 l 1
 100 499 l 1
 101 500 l 1
 599 500 l 1
 600 499 l 1
 600 401 l 1
 599 400 l 1
 501 400 l 1
 500 399 l 1
 500 301 l 1
301 600 m 1
 300 601 l 1
 300 699 l 1
 301 700 l 1
 399 700 l 1
 400 699 l 1
 400 601 l 1
 399 600 l 1
 301 600 l 1
EndSplineSet
EndChar

StartChar: Zeta
Encoding: 918 918 204
Width: 800
VWidth: 0
Flags: H
LayerCount: 2
Fore
SplineSet
401 300 m 1
 400 301 l 1
 400 399 l 1
 401 400 l 1
 499 400 l 1
 500 399 l 1
 500 301 l 1
 499 300 l 1
 401 300 l 1
301 200 m 1
 300 201 l 1
 300 299 l 1
 301 300 l 1
 399 300 l 1
 400 299 l 1
 400 201 l 1
 399 200 l 1
 301 200 l 1
200 199 m 1
 201 200 l 1
 299 200 l 1
 300 199 l 1
 300 101 l 1
 301 100 l 1
 699 100 l 1
 700 99 l 1
 700 1 l 1
 699 0 l 1
 101 0 l 1
 100 1 l 1
 100 99 l 1
 101 100 l 1
 199 100 l 1
 200 101 l 1
 200 199 l 1
600 401 m 1
 599 400 l 1
 501 400 l 1
 500 401 l 1
 500 499 l 1
 499 500 l 1
 101 500 l 1
 100 501 l 1
 100 599 l 1
 101 600 l 1
 699 600 l 1
 700 599 l 1
 700 501 l 1
 699 500 l 1
 601 500 l 1
 600 499 l 1
 600 401 l 1
EndSplineSet
EndChar

StartChar: a
Encoding: 97 97 205
Width: 800
VWidth: 0
Flags: H
LayerCount: 2
Fore
SplineSet
101 100 m 1
 100 101 l 1
 100 199 l 1
 101 200 l 1
 199 200 l 1
 200 199 l 1
 200 101 l 1
 199 100 l 1
 101 100 l 1
499 500 m 1
 500 499 l 1
 500 401 l 1
 499 400 l 1
 201 400 l 1
 200 401 l 1
 200 499 l 1
 201 500 l 1
 499 500 l 1
201 0 m 1
 200 1 l 1
 200 99 l 1
 201 100 l 1
 499 100 l 1
 500 101 l 1
 500 199 l 1
 499 200 l 1
 201 200 l 1
 200 201 l 1
 200 299 l 1
 201 300 l 1
 499 300 l 1
 500 301 l 1
 500 399 l 1
 501 400 l 1
 599 400 l 1
 600 399 l 1
 600 1 l 1
 599 0 l 1
 201 0 l 1
EndSplineSet
EndChar

StartChar: aacute
Encoding: 225 225 206
Width: 800
VWidth: 0
Flags: H
LayerCount: 2
Fore
SplineSet
101 100 m 1
 100 101 l 1
 100 199 l 1
 101 200 l 1
 199 200 l 1
 200 199 l 1
 200 101 l 1
 199 100 l 1
 101 100 l 1
201 0 m 1
 200 1 l 1
 200 99 l 1
 201 100 l 1
 499 100 l 1
 500 101 l 1
 500 199 l 1
 499 200 l 1
 201 200 l 1
 200 201 l 1
 200 299 l 1
 201 300 l 1
 499 300 l 1
 500 301 l 1
 500 399 l 1
 501 400 l 1
 599 400 l 1
 600 399 l 1
 600 1 l 1
 599 0 l 1
 201 0 l 1
300 599 m 1
 301 600 l 1
 399 600 l 1
 400 599 l 1
 400 501 l 1
 401 500 l 1
 499 500 l 1
 500 499 l 1
 500 401 l 1
 499 400 l 1
 201 400 l 1
 200 401 l 1
 200 499 l 1
 201 500 l 1
 299 500 l 1
 300 501 l 1
 300 599 l 1
401 600 m 1
 400 601 l 1
 400 699 l 1
 401 700 l 1
 499 700 l 1
 500 699 l 1
 500 601 l 1
 499 600 l 1
 401 600 l 1
EndSplineSet
EndChar

StartChar: abreve
Encoding: 259 259 207
Width: 800
VWidth: 0
Flags: H
LayerCount: 2
Fore
SplineSet
101 100 m 1
 100 101 l 1
 100 199 l 1
 101 200 l 1
 199 200 l 1
 200 199 l 1
 200 101 l 1
 199 100 l 1
 101 100 l 1
201 0 m 1
 200 1 l 1
 200 99 l 1
 201 100 l 1
 499 100 l 1
 500 101 l 1
 500 199 l 1
 499 200 l 1
 201 200 l 1
 200 201 l 1
 200 299 l 1
 201 300 l 1
 499 300 l 1
 500 301 l 1
 500 399 l 1
 501 400 l 1
 599 400 l 1
 600 399 l 1
 600 1 l 1
 599 0 l 1
 201 0 l 1
499 400 m 1
 201 400 l 1
 200 401 l 1
 200 499 l 1
 201 500 l 1
 299 500 l 1
 300 501 l 1
 300 599 l 1
 301 600 l 1
 499 600 l 1
 500 599 l 1
 500 401 l 1
 499 400 l 1
201 600 m 1
 200 601 l 1
 200 699 l 1
 201 700 l 1
 299 700 l 1
 300 699 l 1
 300 601 l 1
 299 600 l 1
 201 600 l 1
501 600 m 1
 500 601 l 1
 500 699 l 1
 501 700 l 1
 599 700 l 1
 600 699 l 1
 600 601 l 1
 599 600 l 1
 501 600 l 1
EndSplineSet
EndChar

StartChar: acircumflex
Encoding: 226 226 208
Width: 800
VWidth: 0
Flags: H
LayerCount: 2
Fore
SplineSet
101 100 m 1
 100 101 l 1
 100 199 l 1
 101 200 l 1
 199 200 l 1
 200 199 l 1
 200 101 l 1
 199 100 l 1
 101 100 l 1
201 0 m 1
 200 1 l 1
 200 99 l 1
 201 100 l 1
 499 100 l 1
 500 101 l 1
 500 199 l 1
 499 200 l 1
 201 200 l 1
 200 201 l 1
 200 299 l 1
 201 300 l 1
 499 300 l 1
 500 301 l 1
 500 399 l 1
 501 400 l 1
 599 400 l 1
 600 399 l 1
 600 1 l 1
 599 0 l 1
 201 0 l 1
301 600 m 1
 300 601 l 1
 300 699 l 1
 301 700 l 1
 399 700 l 1
 400 699 l 1
 400 601 l 1
 399 600 l 1
 301 600 l 1
400 599 m 1
 401 600 l 1
 499 600 l 1
 500 599 l 1
 500 401 l 1
 499 400 l 1
 201 400 l 1
 200 401 l 1
 200 599 l 1
 201 600 l 1
 299 600 l 1
 300 599 l 1
 300 501 l 1
 301 500 l 1
 400 500 l 1
 401 501 l 1
 400 599 l 1
EndSplineSet
EndChar

StartChar: acute
Encoding: 180 180 209
Width: 800
VWidth: 0
Flags: H
LayerCount: 2
Fore
SplineSet
301 400 m 1
 300 401 l 1
 300 499 l 1
 301 500 l 1
 399 500 l 1
 400 499 l 1
 400 401 l 1
 399 400 l 1
 301 400 l 1
400 699 m 1
 401 700 l 1
 499 700 l 1
 500 699 l 1
 500 501 l 1
 499 500 l 1
 401 500 l 1
 400 501 l 1
 400 699 l 1
EndSplineSet
EndChar

StartChar: adieresis
Encoding: 228 228 210
Width: 800
VWidth: 0
Flags: H
LayerCount: 2
Fore
SplineSet
101 100 m 1
 100 101 l 1
 100 199 l 1
 101 200 l 1
 199 200 l 1
 200 199 l 1
 200 101 l 1
 199 100 l 1
 101 100 l 1
499 500 m 1
 500 499 l 1
 500 401 l 1
 499 400 l 1
 201 400 l 1
 200 401 l 1
 200 499 l 1
 201 500 l 1
 499 500 l 1
201 0 m 1
 200 1 l 1
 200 99 l 1
 201 100 l 1
 499 100 l 1
 500 101 l 1
 500 199 l 1
 499 200 l 1
 201 200 l 1
 200 201 l 1
 200 299 l 1
 201 300 l 1
 499 300 l 1
 500 301 l 1
 500 399 l 1
 501 400 l 1
 599 400 l 1
 600 399 l 1
 600 1 l 1
 599 0 l 1
 201 0 l 1
201 600 m 1
 200 601 l 1
 200 699 l 1
 201 700 l 1
 299 700 l 1
 300 699 l 1
 300 601 l 1
 299 600 l 1
 201 600 l 1
401 600 m 1
 400 601 l 1
 400 699 l 1
 401 700 l 1
 499 700 l 1
 500 699 l 1
 500 601 l 1
 499 600 l 1
 401 600 l 1
EndSplineSet
EndChar

StartChar: ae
Encoding: 230 230 211
Width: 800
VWidth: 0
Flags: H
LayerCount: 2
Fore
SplineSet
601 300 m 1
 600 301 l 1
 600 399 l 1
 601 400 l 1
 699 400 l 1
 700 399 l 1
 700 301 l 1
 699 300 l 1
 601 300 l 1
699 100 m 1
 700 99 l 1
 700 1 l 1
 699 0 l 1
 101 0 l 1
 100 1 l 1
 100 99 l 1
 101 100 l 1
 299 100 l 1
 300 101 l 1
 300 199 l 1
 299 200 l 1
 101 200 l 1
 100 201 l 1
 100 299 l 1
 101 300 l 1
 299 300 l 1
 300 301 l 1
 300 399 l 1
 301 400 l 1
 399 400 l 1
 400 399 l 1
 400 301 l 1
 401 300 l 1
 599 300 l 1
 600 299 l 1
 600 201 l 1
 599 200 l 1
 401 200 l 1
 400 199 l 1
 400 101 l 1
 401 100 l 1
 699 100 l 1
1 100 m 1
 0 101 l 1
 0 199 l 1
 1 200 l 1
 99 200 l 1
 100 199 l 1
 100 101 l 1
 99 100 l 1
 1 100 l 1
299 500 m 1
 300 499 l 1
 300 401 l 1
 299 400 l 1
 101 400 l 1
 100 401 l 1
 100 499 l 1
 101 500 l 1
 299 500 l 1
599 500 m 1
 600 499 l 1
 600 401 l 1
 599 400 l 1
 401 400 l 1
 400 401 l 1
 400 499 l 1
 401 500 l 1
 599 500 l 1
EndSplineSet
EndChar

StartChar: aeacute
Encoding: 509 509 212
Width: 800
VWidth: 0
Flags: H
LayerCount: 2
Fore
SplineSet
601 300 m 1
 600 301 l 1
 600 399 l 1
 601 400 l 1
 699 400 l 1
 700 399 l 1
 700 301 l 1
 699 300 l 1
 601 300 l 1
699 100 m 1
 700 99 l 1
 700 1 l 1
 699 0 l 1
 101 0 l 1
 100 1 l 1
 100 99 l 1
 101 100 l 1
 299 100 l 1
 300 101 l 1
 300 199 l 1
 299 200 l 1
 101 200 l 1
 100 201 l 1
 100 299 l 1
 101 300 l 1
 299 300 l 1
 300 301 l 1
 300 399 l 1
 301 400 l 1
 399 400 l 1
 400 399 l 1
 400 301 l 1
 401 300 l 1
 599 300 l 1
 600 299 l 1
 600 201 l 1
 599 200 l 1
 401 200 l 1
 400 199 l 1
 400 101 l 1
 401 100 l 1
 699 100 l 1
1 100 m 1
 0 101 l 1
 0 199 l 1
 1 200 l 1
 99 200 l 1
 100 199 l 1
 100 101 l 1
 99 100 l 1
 1 100 l 1
299 500 m 1
 300 499 l 1
 300 401 l 1
 299 400 l 1
 101 400 l 1
 100 401 l 1
 100 499 l 1
 101 500 l 1
 299 500 l 1
401 400 m 1
 400 401 l 1
 400 599 l 1
 401 600 l 1
 499 600 l 1
 500 599 l 1
 500 501 l 1
 501 500 l 1
 599 500 l 1
 600 499 l 1
 600 401 l 1
 599 400 l 1
 401 400 l 1
501 600 m 1
 500 601 l 1
 500 699 l 1
 501 700 l 1
 599 700 l 1
 600 699 l 1
 600 601 l 1
 599 600 l 1
 501 600 l 1
EndSplineSet
EndChar

StartChar: uni2015
Encoding: 8213 8213 213
Width: 800
VWidth: 0
Flags: H
LayerCount: 2
Fore
SplineSet
101 200 m 1
 100 201 l 1
 100 299 l 1
 101 300 l 1
 699 300 l 1
 700 299 l 1
 700 201 l 1
 699 200 l 1
 101 200 l 1
EndSplineSet
EndChar

StartChar: lira
Encoding: 8356 8356 214
Width: 800
VWidth: 0
Flags: H
LayerCount: 2
Fore
SplineSet
599 100 m 1
 600 99 l 1
 600 1 l 1
 599 0 l 1
 101 0 l 1
 100 1 l 1
 100 99 l 1
 101 100 l 1
 199 100 l 1
 200 101 l 1
 200 199 l 1
 199 200 l 1
 101 200 l 1
 100 201 l 1
 100 299 l 1
 101 300 l 1
 199 300 l 1
 200 301 l 1
 200 399 l 1
 199 400 l 1
 101 400 l 1
 100 401 l 1
 100 499 l 1
 101 500 l 1
 199 500 l 1
 200 501 l 1
 200 599 l 1
 201 600 l 1
 299 600 l 1
 300 599 l 1
 300 501 l 1
 301 500 l 1
 499 500 l 1
 500 499 l 1
 500 401 l 1
 499 400 l 1
 301 400 l 1
 300 399 l 1
 300 301 l 1
 301 300 l 1
 499 300 l 1
 500 299 l 1
 500 201 l 1
 499 200 l 1
 301 200 l 1
 300 199 l 1
 300 101 l 1
 301 100 l 1
 599 100 l 1
599 700 m 1
 600 699 l 1
 600 601 l 1
 599 600 l 1
 301 600 l 1
 300 601 l 1
 300 699 l 1
 301 700 l 1
 599 700 l 1
601 500 m 1
 600 501 l 1
 600 599 l 1
 601 600 l 1
 699 600 l 1
 700 599 l 1
 700 501 l 1
 699 500 l 1
 601 500 l 1
EndSplineSet
EndChar

StartChar: uni0410
Encoding: 1040 1040 215
Width: 800
VWidth: 0
Flags: H
LayerCount: 2
Fore
SplineSet
201 500 m 1
 200 501 l 1
 200 599 l 1
 201 600 l 1
 599 600 l 1
 600 599 l 1
 600 501 l 1
 599 500 l 1
 201 500 l 1
100 499 m 1
 101 500 l 1
 199 500 l 1
 200 499 l 1
 200 301 l 1
 201 300 l 1
 599 300 l 1
 600 301 l 1
 600 499 l 1
 601 500 l 1
 699 500 l 1
 700 499 l 1
 700 1 l 1
 699 0 l 1
 601 0 l 1
 600 1 l 1
 600 199 l 1
 599 200 l 1
 201 200 l 1
 200 199 l 1
 200 1 l 1
 199 0 l 1
 101 0 l 1
 100 1 l 1
 100 499 l 1
EndSplineSet
EndChar

StartChar: uni0411
Encoding: 1041 1041 216
Width: 800
VWidth: 0
Flags: H
LayerCount: 2
Fore
SplineSet
599 600 m 1
 600 599 l 1
 600 501 l 1
 599 500 l 1
 201 500 l 1
 200 499 l 1
 200 401 l 1
 201 400 l 1
 599 400 l 1
 600 399 l 1
 600 301 l 1
 599 300 l 1
 201 300 l 1
 200 299 l 1
 200 101 l 1
 201 100 l 1
 599 100 l 1
 600 99 l 1
 600 1 l 1
 599 0 l 1
 101 0 l 1
 100 1 l 1
 100 599 l 1
 101 600 l 1
 599 600 l 1
600 299 m 1
 601 300 l 1
 699 300 l 1
 700 299 l 1
 700 101 l 1
 699 100 l 1
 601 100 l 1
 600 101 l 1
 600 299 l 1
EndSplineSet
EndChar

StartChar: uni0412
Encoding: 1042 1042 217
Width: 800
VWidth: 0
Flags: H
LayerCount: 2
Fore
SplineSet
601 400 m 1
 600 401 l 1
 600 499 l 1
 601 500 l 1
 699 500 l 1
 700 499 l 1
 700 401 l 1
 699 400 l 1
 601 400 l 1
600 299 m 1
 601 300 l 1
 699 300 l 1
 700 299 l 1
 700 101 l 1
 699 100 l 1
 601 100 l 1
 600 101 l 1
 600 299 l 1
599 600 m 1
 600 599 l 1
 600 501 l 1
 599 500 l 1
 201 500 l 1
 200 499 l 1
 200 401 l 1
 201 400 l 1
 599 400 l 1
 600 399 l 1
 600 301 l 1
 599 300 l 1
 201 300 l 1
 200 299 l 1
 200 101 l 1
 201 100 l 1
 599 100 l 1
 600 99 l 1
 600 1 l 1
 599 0 l 1
 101 0 l 1
 100 1 l 1
 100 599 l 1
 101 600 l 1
 599 600 l 1
EndSplineSet
EndChar

StartChar: uni0413
Encoding: 1043 1043 218
Width: 800
VWidth: 0
Flags: H
LayerCount: 2
Fore
SplineSet
101 600 m 1
 699 600 l 1
 700 599 l 1
 700 501 l 1
 699 500 l 1
 201 500 l 1
 200 499 l 1
 200 1 l 1
 199 0 l 1
 101 0 l 1
 100 1 l 1
 100 599 l 1
 101 600 l 1
EndSplineSet
EndChar

StartChar: uni0414
Encoding: 1044 1044 219
Width: 800
VWidth: 0
Flags: H
LayerCount: 2
Fore
SplineSet
301 500 m 1
 300 501 l 1
 300 599 l 1
 301 600 l 1
 599 600 l 1
 600 599 l 1
 600 101 l 1
 601 100 l 1
 699 100 l 1
 700 99 l 1
 700 -99 l 1
 699 -100 l 1
 601 -100 l 1
 600 -99 l 1
 600 -1 l 1
 599 0 l 1
 201 0 l 1
 200 -1 l 1
 200 -99 l 1
 199 -100 l 1
 101 -100 l 1
 100 -99 l 1
 100 99 l 1
 101 100 l 1
 199 100 l 1
 200 101 l 1
 200 499 l 1
 201 500 l 1
 299 500 l 1
 300 499 l 1
 300 101 l 1
 301 100 l 1
 499 100 l 1
 500 101 l 1
 500 499 l 1
 499 500 l 1
 301 500 l 1
EndSplineSet
EndChar

StartChar: uni0415
Encoding: 1045 1045 220
Width: 800
VWidth: 0
Flags: H
LayerCount: 2
Fore
SplineSet
699 600 m 1
 700 599 l 1
 700 501 l 1
 699 500 l 1
 201 500 l 1
 200 499 l 1
 200 401 l 1
 201 400 l 1
 599 400 l 1
 600 399 l 1
 600 301 l 1
 599 300 l 1
 201 300 l 1
 200 299 l 1
 200 101 l 1
 201 100 l 1
 699 100 l 1
 700 99 l 1
 700 1 l 1
 699 0 l 1
 101 0 l 1
 100 1 l 1
 100 599 l 1
 101 600 l 1
 699 600 l 1
EndSplineSet
EndChar

StartChar: uni0401
Encoding: 1025 1025 221
Width: 800
VWidth: 0
Flags: H
LayerCount: 2
Fore
SplineSet
699 500 m 1
 700 499 l 1
 700 401 l 1
 699 400 l 1
 201 400 l 1
 200 399 l 1
 200 301 l 1
 201 300 l 1
 599 300 l 1
 600 299 l 1
 600 201 l 1
 599 200 l 1
 201 200 l 1
 200 199 l 1
 200 101 l 1
 201 100 l 1
 699 100 l 1
 700 99 l 1
 700 1 l 1
 699 0 l 1
 101 0 l 1
 100 1 l 1
 100 499 l 1
 101 500 l 1
 699 500 l 1
201 600 m 1
 200 601 l 1
 200 699 l 1
 201 700 l 1
 299 700 l 1
 300 699 l 1
 300 601 l 1
 299 600 l 1
 201 600 l 1
501 600 m 1
 500 601 l 1
 500 699 l 1
 501 700 l 1
 599 700 l 1
 600 699 l 1
 600 601 l 1
 599 600 l 1
 501 600 l 1
EndSplineSet
EndChar

StartChar: uni0416
Encoding: 1046 1046 222
Width: 800
VWidth: 0
Flags: H
LayerCount: 2
Fore
SplineSet
499 400 m 1
 500 399 l 1
 500 301 l 1
 499 300 l 1
 401 300 l 1
 400 299 l 1
 400 1 l 1
 399 0 l 1
 301 0 l 1
 300 1 l 1
 300 299 l 1
 299 300 l 1
 201 300 l 1
 200 301 l 1
 200 399 l 1
 201 400 l 1
 299 400 l 1
 300 401 l 1
 300 599 l 1
 301 600 l 1
 399 600 l 1
 400 599 l 1
 400 401 l 1
 401 400 l 1
 499 400 l 1
501 400 m 1
 500 401 l 1
 500 499 l 1
 501 500 l 1
 599 500 l 1
 600 499 l 1
 600 401 l 1
 599 400 l 1
 501 400 l 1
601 500 m 1
 600 501 l 1
 600 599 l 1
 601 600 l 1
 699 600 l 1
 700 599 l 1
 700 501 l 1
 699 500 l 1
 601 500 l 1
101 400 m 1
 100 401 l 1
 100 499 l 1
 101 500 l 1
 199 500 l 1
 200 499 l 1
 200 401 l 1
 199 400 l 1
 101 400 l 1
1 500 m 1
 0 501 l 1
 0 599 l 1
 1 600 l 1
 99 600 l 1
 100 599 l 1
 100 501 l 1
 99 500 l 1
 1 500 l 1
101 200 m 1
 100 201 l 1
 100 299 l 1
 101 300 l 1
 199 300 l 1
 200 299 l 1
 200 201 l 1
 199 200 l 1
 101 200 l 1
501 200 m 1
 500 201 l 1
 500 299 l 1
 501 300 l 1
 599 300 l 1
 600 299 l 1
 600 201 l 1
 599 200 l 1
 501 200 l 1
0 199 m 1
 1 200 l 1
 99 200 l 1
 100 199 l 1
 100 1 l 1
 99 0 l 1
 1 0 l 1
 0 1 l 1
 0 199 l 1
600 199 m 1
 601 200 l 1
 699 200 l 1
 700 199 l 1
 700 1 l 1
 699 0 l 1
 601 0 l 1
 600 1 l 1
 600 199 l 1
EndSplineSet
EndChar

StartChar: uni0417
Encoding: 1047 1047 223
Width: 800
VWidth: 0
Flags: H
LayerCount: 2
Fore
SplineSet
101 400 m 1
 100 401 l 1
 100 499 l 1
 101 500 l 1
 199 500 l 1
 200 499 l 1
 200 401 l 1
 199 400 l 1
 101 400 l 1
600 299 m 1
 601 300 l 1
 699 300 l 1
 700 299 l 1
 700 101 l 1
 699 100 l 1
 601 100 l 1
 600 101 l 1
 600 299 l 1
201 500 m 1
 200 501 l 1
 200 599 l 1
 201 600 l 1
 599 600 l 1
 600 599 l 1
 600 501 l 1
 599 500 l 1
 201 500 l 1
201 0 m 1
 200 1 l 1
 200 99 l 1
 201 100 l 1
 599 100 l 1
 600 99 l 1
 600 1 l 1
 599 0 l 1
 201 0 l 1
101 100 m 1
 100 101 l 1
 100 199 l 1
 101 200 l 1
 199 200 l 1
 200 199 l 1
 200 101 l 1
 199 100 l 1
 101 100 l 1
601 400 m 1
 600 401 l 1
 600 499 l 1
 601 500 l 1
 699 500 l 1
 700 499 l 1
 700 401 l 1
 699 400 l 1
 601 400 l 1
599 400 m 1
 600 399 l 1
 600 301 l 1
 599 300 l 1
 401 300 l 1
 400 301 l 1
 400 399 l 1
 401 400 l 1
 599 400 l 1
EndSplineSet
EndChar

StartChar: uni0418
Encoding: 1048 1048 224
Width: 800
VWidth: 0
Flags: H
LayerCount: 2
Fore
SplineSet
501 500 m 1
 599 500 l 1
 600 501 l 1
 600 599 l 1
 601 600 l 1
 699 600 l 1
 700 599 l 1
 700 1 l 1
 699 0 l 1
 601 0 l 1
 600 1 l 1
 600 399 l 1
 599 400 l 1
 501 400 l 1
 500 401 l 1
 500 499 l 1
 501 500 l 1
299 100 m 1
 201 100 l 1
 200 99 l 1
 200 1 l 1
 199 0 l 1
 101 0 l 1
 100 1 l 1
 100 599 l 1
 101 600 l 1
 199 600 l 1
 200 599 l 1
 200 201 l 1
 201 200 l 1
 299 200 l 1
 300 199 l 1
 300 101 l 1
 299 100 l 1
499 300 m 1
 401 300 l 1
 400 301 l 1
 400 399 l 1
 401 400 l 1
 499 400 l 1
 500 399 l 1
 500 301 l 1
 499 300 l 1
399 200 m 1
 301 200 l 1
 300 201 l 1
 300 299 l 1
 301 300 l 1
 399 300 l 1
 400 299 l 1
 400 201 l 1
 399 200 l 1
EndSplineSet
EndChar

StartChar: uni0419
Encoding: 1049 1049 225
Width: 800
VWidth: 0
Flags: H
LayerCount: 2
Fore
SplineSet
501 500 m 1
 599 500 l 1
 600 501 l 1
 600 599 l 1
 601 600 l 1
 699 600 l 1
 700 599 l 1
 700 1 l 1
 699 0 l 1
 601 0 l 1
 600 1 l 1
 600 399 l 1
 599 400 l 1
 501 400 l 1
 500 401 l 1
 500 499 l 1
 501 500 l 1
299 100 m 1
 201 100 l 1
 200 99 l 1
 200 1 l 1
 199 0 l 1
 101 0 l 1
 100 1 l 1
 100 599 l 1
 101 600 l 1
 199 600 l 1
 200 599 l 1
 200 201 l 1
 201 200 l 1
 299 200 l 1
 300 199 l 1
 300 101 l 1
 299 100 l 1
499 300 m 1
 401 300 l 1
 400 301 l 1
 400 399 l 1
 401 400 l 1
 499 400 l 1
 500 399 l 1
 500 301 l 1
 499 300 l 1
399 200 m 1
 301 200 l 1
 300 201 l 1
 300 299 l 1
 301 300 l 1
 399 300 l 1
 400 299 l 1
 400 201 l 1
 399 200 l 1
499 600 m 1
 500 599 l 1
 500 501 l 1
 499 500 l 1
 301 500 l 1
 300 501 l 1
 300 599 l 1
 301 600 l 1
 499 600 l 1
599 600 m 1
 501 600 l 1
 500 601 l 1
 500 699 l 1
 501 700 l 1
 599 700 l 1
 600 699 l 1
 600 601 l 1
 599 600 l 1
299 600 m 1
 201 600 l 1
 200 601 l 1
 200 699 l 1
 201 700 l 1
 299 700 l 1
 300 699 l 1
 300 601 l 1
 299 600 l 1
EndSplineSet
EndChar

StartChar: uni041A
Encoding: 1050 1050 226
Width: 800
VWidth: 0
Flags: H
LayerCount: 2
Fore
SplineSet
501 500 m 1
 500 501 l 1
 500 599 l 1
 501 600 l 1
 599 600 l 1
 600 599 l 1
 600 501 l 1
 599 500 l 1
 501 500 l 1
401 400 m 1
 400 401 l 1
 400 499 l 1
 401 500 l 1
 499 500 l 1
 500 499 l 1
 500 401 l 1
 499 400 l 1
 401 400 l 1
401 200 m 1
 400 201 l 1
 400 299 l 1
 401 300 l 1
 499 300 l 1
 500 299 l 1
 500 201 l 1
 499 200 l 1
 401 200 l 1
501 100 m 1
 500 101 l 1
 500 199 l 1
 501 200 l 1
 599 200 l 1
 600 199 l 1
 600 101 l 1
 599 100 l 1
 501 100 l 1
601 0 m 1
 600 1 l 1
 600 99 l 1
 601 100 l 1
 699 100 l 1
 700 99 l 1
 700 1 l 1
 699 0 l 1
 601 0 l 1
399 400 m 1
 400 399 l 1
 400 301 l 1
 399 300 l 1
 201 300 l 1
 200 299 l 1
 200 1 l 1
 199 0 l 1
 101 0 l 1
 100 1 l 1
 100 599 l 1
 101 600 l 1
 199 600 l 1
 200 599 l 1
 200 401 l 1
 201 400 l 1
 399 400 l 1
EndSplineSet
EndChar

StartChar: uni041B
Encoding: 1051 1051 227
Width: 800
VWidth: 0
Flags: H
LayerCount: 2
Fore
SplineSet
299 0 m 1
 101 0 l 1
 100 1 l 1
 100 99 l 1
 101 100 l 1
 199 100 l 1
 200 101 l 1
 200 499 l 1
 201 500 l 1
 299 500 l 1
 300 499 l 1
 300 1 l 1
 299 0 l 1
599 600 m 1
 600 599 l 1
 600 1 l 1
 599 0 l 1
 501 0 l 1
 500 1 l 1
 500 499 l 1
 499 500 l 1
 301 500 l 1
 300 501 l 1
 300 599 l 1
 301 600 l 1
 599 600 l 1
EndSplineSet
EndChar

StartChar: uni041C
Encoding: 1052 1052 228
Width: 800
VWidth: 0
Flags: H
LayerCount: 2
Fore
SplineSet
299 500 m 1
 300 499 l 1
 300 401 l 1
 299 400 l 1
 201 400 l 1
 200 399 l 1
 200 1 l 1
 199 0 l 1
 101 0 l 1
 100 1 l 1
 100 599 l 1
 101 600 l 1
 199 600 l 1
 200 599 l 1
 200 501 l 1
 201 500 l 1
 299 500 l 1
501 500 m 1
 599 500 l 1
 600 501 l 1
 600 599 l 1
 601 600 l 1
 699 600 l 1
 700 599 l 1
 700 1 l 1
 699 0 l 1
 601 0 l 1
 600 1 l 1
 600 399 l 1
 599 400 l 1
 501 400 l 1
 500 401 l 1
 500 499 l 1
 501 500 l 1
499 400 m 1
 500 399 l 1
 500 301 l 1
 499 300 l 1
 301 300 l 1
 300 301 l 1
 300 399 l 1
 301 400 l 1
 499 400 l 1
EndSplineSet
EndChar

StartChar: uni041D
Encoding: 1053 1053 229
Width: 800
VWidth: 0
Flags: H
LayerCount: 2
Fore
SplineSet
100 1 m 1
 100 599 l 1
 101 600 l 1
 199 600 l 1
 200 599 l 1
 200 401 l 1
 201 400 l 1
 599 400 l 1
 600 401 l 1
 600 599 l 1
 601 600 l 1
 699 600 l 1
 700 599 l 1
 700 1 l 1
 699 0 l 1
 601 0 l 1
 600 1 l 1
 600 299 l 1
 599 300 l 1
 201 300 l 1
 200 299 l 1
 200 1 l 1
 199 0 l 1
 101 0 l 1
 100 1 l 1
EndSplineSet
EndChar

StartChar: uni041E
Encoding: 1054 1054 230
Width: 800
VWidth: 0
Flags: H
LayerCount: 2
Fore
SplineSet
201 0 m 1
 200 1 l 1
 200 99 l 1
 201 100 l 1
 599 100 l 1
 600 99 l 1
 600 1 l 1
 599 0 l 1
 201 0 l 1
100 499 m 1
 101 500 l 1
 199 500 l 1
 200 499 l 1
 200 101 l 1
 199 100 l 1
 101 100 l 1
 100 101 l 1
 100 499 l 1
600 499 m 1
 601 500 l 1
 699 500 l 1
 700 499 l 1
 700 101 l 1
 699 100 l 1
 601 100 l 1
 600 101 l 1
 600 499 l 1
201 500 m 1
 200 501 l 1
 200 599 l 1
 201 600 l 1
 599 600 l 1
 600 599 l 1
 600 501 l 1
 599 500 l 1
 201 500 l 1
EndSplineSet
EndChar

StartChar: uni041F
Encoding: 1055 1055 231
Width: 800
VWidth: 0
Flags: H
LayerCount: 2
Fore
SplineSet
200 1 m 1
 199 0 l 1
 101 0 l 1
 100 1 l 1
 100 599 l 1
 101 600 l 1
 699 600 l 1
 700 599 l 1
 700 1 l 1
 699 0 l 1
 601 0 l 1
 600 1 l 1
 600 499 l 1
 599 500 l 1
 200 500 l 1
 199 499 l 1
 200 1 l 1
EndSplineSet
EndChar

StartChar: uni0420
Encoding: 1056 1056 232
Width: 800
VWidth: 0
Flags: H
LayerCount: 2
Fore
SplineSet
599 600 m 1
 600 599 l 1
 600 501 l 1
 599 500 l 1
 201 500 l 1
 200 499 l 1
 200 301 l 1
 201 300 l 1
 599 300 l 1
 600 299 l 1
 600 201 l 1
 599 200 l 1
 201 200 l 1
 200 199 l 1
 200 1 l 1
 199 0 l 1
 101 0 l 1
 100 1 l 1
 100 599 l 1
 101 600 l 1
 599 600 l 1
600 499 m 1
 601 500 l 1
 699 500 l 1
 700 499 l 1
 700 301 l 1
 699 300 l 1
 601 300 l 1
 600 301 l 1
 600 499 l 1
EndSplineSet
EndChar

StartChar: uni0421
Encoding: 1057 1057 233
Width: 800
VWidth: 0
Flags: H
LayerCount: 2
Fore
SplineSet
601 400 m 1
 600 401 l 1
 600 499 l 1
 601 500 l 1
 699 500 l 1
 700 499 l 1
 700 401 l 1
 699 400 l 1
 601 400 l 1
601 100 m 1
 600 101 l 1
 600 199 l 1
 601 200 l 1
 699 200 l 1
 700 199 l 1
 700 101 l 1
 699 100 l 1
 601 100 l 1
201 500 m 1
 200 501 l 1
 200 599 l 1
 201 600 l 1
 599 600 l 1
 600 599 l 1
 600 501 l 1
 599 500 l 1
 201 500 l 1
201 0 m 1
 200 1 l 1
 200 99 l 1
 201 100 l 1
 599 100 l 1
 600 99 l 1
 600 1 l 1
 599 0 l 1
 201 0 l 1
100 499 m 1
 101 500 l 1
 199 500 l 1
 200 499 l 1
 200 101 l 1
 199 100 l 1
 101 100 l 1
 100 101 l 1
 100 499 l 1
EndSplineSet
EndChar

StartChar: uni0422
Encoding: 1058 1058 234
Width: 800
VWidth: 0
Flags: H
LayerCount: 2
Fore
SplineSet
400 1 m 1
 399 0 l 1
 301 0 l 1
 300 1 l 1
 300 499 l 1
 299 500 l 1
 1 500 l 1
 0 501 l 1
 0 599 l 1
 1 600 l 1
 699 600 l 1
 700 599 l 1
 700 501 l 1
 699 500 l 1
 401 500 l 1
 400 499 l 1
 400 1 l 1
EndSplineSet
EndChar

StartChar: uni0423
Encoding: 1059 1059 235
Width: 800
VWidth: 0
Flags: H
LayerCount: 2
Fore
SplineSet
200 201 m 1
 200 399 l 1
 201 400 l 1
 299 400 l 1
 300 399 l 1
 300 201 l 1
 299 200 l 1
 201 200 l 1
 200 201 l 1
400 201 m 1
 400 399 l 1
 401 400 l 1
 499 400 l 1
 500 399 l 1
 500 201 l 1
 499 200 l 1
 401 200 l 1
 400 201 l 1
299 0 m 1
 101 0 l 1
 100 1 l 1
 100 99 l 1
 101 100 l 1
 299 100 l 1
 300 99 l 1
 300 1 l 1
 299 0 l 1
500 401 m 1
 500 599 l 1
 501 600 l 1
 599 600 l 1
 600 599 l 1
 600 401 l 1
 599 400 l 1
 501 400 l 1
 500 401 l 1
301 200 m 1
 399 200 l 1
 400 199 l 1
 400 101 l 1
 399 100 l 1
 301 100 l 1
 300 101 l 1
 300 199 l 1
 301 200 l 1
100 401 m 1
 100 599 l 1
 101 600 l 1
 199 600 l 1
 200 599 l 1
 200 401 l 1
 199 400 l 1
 101 400 l 1
 100 401 l 1
EndSplineSet
EndChar

StartChar: uni0424
Encoding: 1060 1060 236
Width: 800
VWidth: 0
Flags: H
LayerCount: 2
Fore
SplineSet
599 100 m 1
 600 99 l 1
 600 1 l 1
 599 0 l 1
 401 0 l 1
 400 -1 l 1
 400 -99 l 1
 399 -100 l 1
 301 -100 l 1
 300 -99 l 1
 300 -1 l 1
 299 0 l 1
 101 0 l 1
 100 1 l 1
 100 99 l 1
 101 100 l 1
 299 100 l 1
 300 101 l 1
 300 399 l 1
 299 400 l 1
 101 400 l 1
 100 401 l 1
 100 499 l 1
 101 500 l 1
 299 500 l 1
 300 501 l 1
 300 599 l 1
 301 600 l 1
 399 600 l 1
 400 599 l 1
 400 501 l 1
 401 500 l 1
 599 500 l 1
 600 499 l 1
 600 401 l 1
 599 400 l 1
 401 400 l 1
 400 399 l 1
 400 101 l 1
 401 100 l 1
 599 100 l 1
600 399 m 1
 601 400 l 1
 699 400 l 1
 700 399 l 1
 700 101 l 1
 699 100 l 1
 601 100 l 1
 600 101 l 1
 600 399 l 1
0 399 m 1
 1 400 l 1
 99 400 l 1
 100 399 l 1
 100 101 l 1
 99 100 l 1
 1 100 l 1
 0 101 l 1
 0 399 l 1
EndSplineSet
EndChar

StartChar: uni0425
Encoding: 1061 1061 237
Width: 800
VWidth: 0
Flags: H
LayerCount: 2
Fore
SplineSet
201 100 m 1
 200 101 l 1
 200 199 l 1
 201 200 l 1
 299 200 l 1
 300 199 l 1
 300 101 l 1
 299 100 l 1
 201 100 l 1
501 100 m 1
 500 101 l 1
 500 199 l 1
 501 200 l 1
 599 200 l 1
 600 199 l 1
 600 101 l 1
 599 100 l 1
 501 100 l 1
300 399 m 1
 301 400 l 1
 499 400 l 1
 500 399 l 1
 500 201 l 1
 499 200 l 1
 301 200 l 1
 300 201 l 1
 300 399 l 1
201 400 m 1
 200 401 l 1
 200 499 l 1
 201 500 l 1
 299 500 l 1
 300 499 l 1
 300 401 l 1
 299 400 l 1
 201 400 l 1
501 400 m 1
 500 401 l 1
 500 499 l 1
 501 500 l 1
 599 500 l 1
 600 499 l 1
 600 401 l 1
 599 400 l 1
 501 400 l 1
101 0 m 1
 100 1 l 1
 100 99 l 1
 101 100 l 1
 199 100 l 1
 200 99 l 1
 200 1 l 1
 199 0 l 1
 101 0 l 1
601 0 m 1
 600 1 l 1
 600 99 l 1
 601 100 l 1
 699 100 l 1
 700 99 l 1
 700 1 l 1
 699 0 l 1
 601 0 l 1
101 500 m 1
 100 501 l 1
 100 599 l 1
 101 600 l 1
 199 600 l 1
 200 599 l 1
 200 501 l 1
 199 500 l 1
 101 500 l 1
601 500 m 1
 600 501 l 1
 600 599 l 1
 601 600 l 1
 699 600 l 1
 700 599 l 1
 700 501 l 1
 699 500 l 1
 601 500 l 1
EndSplineSet
EndChar

StartChar: uni0426
Encoding: 1062 1062 238
Width: 800
VWidth: 0
Flags: H
LayerCount: 2
Fore
SplineSet
100 599 m 1
 101 600 l 1
 199 600 l 1
 200 599 l 1
 200 101 l 1
 201 100 l 1
 499 100 l 1
 500 101 l 1
 500 599 l 1
 501 600 l 1
 599 600 l 1
 600 599 l 1
 600 101 l 1
 601 100 l 1
 699 100 l 1
 700 99 l 1
 700 -99 l 1
 699 -100 l 1
 601 -100 l 1
 600 -99 l 1
 600 -1 l 1
 599 0 l 1
 101 0 l 1
 100 1 l 1
 100 599 l 1
EndSplineSet
EndChar

StartChar: uni0427
Encoding: 1063 1063 239
Width: 800
VWidth: 0
Flags: H
LayerCount: 2
Fore
SplineSet
201 200 m 1
 200 201 l 1
 200 299 l 1
 201 300 l 1
 499 300 l 1
 500 301 l 1
 500 599 l 1
 501 600 l 1
 599 600 l 1
 600 599 l 1
 600 1 l 1
 599 0 l 1
 501 0 l 1
 500 1 l 1
 500 199 l 1
 499 200 l 1
 201 200 l 1
100 599 m 1
 101 600 l 1
 199 600 l 1
 200 599 l 1
 200 301 l 1
 199 300 l 1
 101 300 l 1
 100 301 l 1
 100 599 l 1
EndSplineSet
EndChar

StartChar: uni0428
Encoding: 1064 1064 240
Width: 800
VWidth: 0
Flags: H
LayerCount: 2
Fore
SplineSet
0 599 m 1
 1 600 l 1
 99 600 l 1
 100 599 l 1
 100 101 l 1
 101 100 l 1
 299 100 l 1
 300 101 l 1
 300 599 l 1
 301 600 l 1
 399 600 l 1
 400 599 l 1
 400 101 l 1
 401 100 l 1
 599 100 l 1
 600 101 l 1
 600 599 l 1
 601 600 l 1
 699 600 l 1
 700 599 l 1
 700 1 l 1
 699 0 l 1
 1 0 l 1
 0 1 l 1
 0 599 l 1
EndSplineSet
EndChar

StartChar: uni0429
Encoding: 1065 1065 241
Width: 800
VWidth: 0
Flags: H
LayerCount: 2
Fore
SplineSet
100 599 m 1
 101 600 l 1
 199 600 l 1
 200 599 l 1
 200 101 l 1
 201 100 l 1
 299 100 l 1
 300 101 l 1
 300 599 l 1
 301 600 l 1
 399 600 l 1
 400 599 l 1
 400 101 l 1
 401 100 l 1
 499 100 l 1
 500 101 l 1
 500 599 l 1
 501 600 l 1
 599 600 l 1
 600 599 l 1
 600 101 l 1
 601 100 l 1
 699 100 l 1
 700 99 l 1
 700 -99 l 1
 699 -100 l 1
 601 -100 l 1
 600 -99 l 1
 600 -1 l 1
 599 0 l 1
 101 0 l 1
 100 1 l 1
 100 599 l 1
EndSplineSet
EndChar

StartChar: uni042A
Encoding: 1066 1066 242
Width: 800
VWidth: 0
Flags: H
LayerCount: 2
Fore
SplineSet
599 0 m 1
 201 0 l 1
 200 1 l 1
 200 499 l 1
 199 500 l 1
 101 500 l 1
 100 501 l 1
 100 599 l 1
 101 600 l 1
 299 600 l 1
 300 599 l 1
 300 401 l 1
 301 400 l 1
 599 400 l 1
 600 399 l 1
 600 301 l 1
 599 300 l 1
 301 300 l 1
 300 299 l 1
 300 101 l 1
 301 100 l 1
 599 100 l 1
 600 99 l 1
 600 1 l 1
 599 0 l 1
600 299 m 1
 601 300 l 1
 699 300 l 1
 700 299 l 1
 700 101 l 1
 699 100 l 1
 601 100 l 1
 600 101 l 1
 600 299 l 1
EndSplineSet
EndChar

StartChar: uni042B
Encoding: 1067 1067 243
Width: 800
VWidth: 0
Flags: H
LayerCount: 2
Fore
SplineSet
399 0 m 1
 101 0 l 1
 100 1 l 1
 100 599 l 1
 101 600 l 1
 199 600 l 1
 200 599 l 1
 200 401 l 1
 201 400 l 1
 399 400 l 1
 400 399 l 1
 400 301 l 1
 399 300 l 1
 201 300 l 1
 200 299 l 1
 200 101 l 1
 201 100 l 1
 399 100 l 1
 400 99 l 1
 400 1 l 1
 399 0 l 1
400 299 m 1
 401 300 l 1
 499 300 l 1
 500 299 l 1
 500 101 l 1
 499 100 l 1
 401 100 l 1
 400 101 l 1
 400 299 l 1
600 599 m 1
 601 600 l 1
 699 600 l 1
 700 599 l 1
 700 1 l 1
 699 0 l 1
 601 0 l 1
 600 1 l 1
 600 599 l 1
EndSplineSet
EndChar

StartChar: uni042C
Encoding: 1068 1068 244
Width: 800
VWidth: 0
Flags: H
LayerCount: 2
Fore
SplineSet
599 0 m 1
 201 0 l 1
 200 1 l 1
 200 599 l 1
 201 600 l 1
 299 600 l 1
 300 599 l 1
 300 401 l 1
 301 400 l 1
 599 400 l 1
 600 399 l 1
 600 301 l 1
 599 300 l 1
 301 300 l 1
 300 299 l 1
 300 101 l 1
 301 100 l 1
 599 100 l 1
 600 99 l 1
 600 1 l 1
 599 0 l 1
600 299 m 1
 601 300 l 1
 699 300 l 1
 700 299 l 1
 700 101 l 1
 699 100 l 1
 601 100 l 1
 600 101 l 1
 600 299 l 1
EndSplineSet
EndChar

StartChar: uni042D
Encoding: 1069 1069 245
Width: 800
VWidth: 0
Flags: H
LayerCount: 2
Fore
SplineSet
101 400 m 1
 100 401 l 1
 100 499 l 1
 101 500 l 1
 199 500 l 1
 200 499 l 1
 200 401 l 1
 199 400 l 1
 101 400 l 1
201 500 m 1
 200 501 l 1
 200 599 l 1
 201 600 l 1
 599 600 l 1
 600 599 l 1
 600 501 l 1
 599 500 l 1
 201 500 l 1
201 0 m 1
 200 1 l 1
 200 99 l 1
 201 100 l 1
 599 100 l 1
 600 99 l 1
 600 1 l 1
 599 0 l 1
 201 0 l 1
101 100 m 1
 100 101 l 1
 100 199 l 1
 101 200 l 1
 199 200 l 1
 200 199 l 1
 200 101 l 1
 199 100 l 1
 101 100 l 1
401 300 m 1
 400 301 l 1
 400 399 l 1
 401 400 l 1
 599 400 l 1
 600 401 l 1
 600 499 l 1
 601 500 l 1
 699 500 l 1
 700 499 l 1
 700 101 l 1
 699 100 l 1
 601 100 l 1
 600 101 l 1
 600 299 l 1
 599 300 l 1
 401 300 l 1
EndSplineSet
EndChar

StartChar: uni042E
Encoding: 1070 1070 246
Width: 800
VWidth: 0
Flags: H
LayerCount: 2
Fore
SplineSet
100 499 m 1
 101 500 l 1
 199 500 l 1
 200 499 l 1
 200 301 l 1
 201 300 l 1
 299 300 l 1
 300 301 l 1
 300 399 l 1
 301 400 l 1
 399 400 l 1
 400 399 l 1
 400 1 l 1
 399 0 l 1
 301 0 l 1
 300 1 l 1
 300 199 l 1
 299 200 l 1
 201 200 l 1
 200 199 l 1
 200 -99 l 1
 199 -100 l 1
 101 -100 l 1
 100 -99 l 1
 100 499 l 1
599 500 m 1
 600 499 l 1
 600 401 l 1
 599 400 l 1
 401 400 l 1
 400 401 l 1
 400 499 l 1
 401 500 l 1
 599 500 l 1
599 0 m 1
 600 -1 l 1
 600 -99 l 1
 599 -100 l 1
 401 -100 l 1
 400 -99 l 1
 400 -1 l 1
 401 0 l 1
 599 0 l 1
600 399 m 1
 601 400 l 1
 699 400 l 1
 700 399 l 1
 700 1 l 1
 699 0 l 1
 601 0 l 1
 600 1 l 1
 600 399 l 1
EndSplineSet
EndChar

StartChar: uni042F
Encoding: 1071 1071 247
Width: 800
VWidth: 0
Flags: H
LayerCount: 2
Fore
SplineSet
199 0 m 1
 101 0 l 1
 100 1 l 1
 100 99 l 1
 101 100 l 1
 199 100 l 1
 200 99 l 1
 200 1 l 1
 199 0 l 1
200 499 m 1
 200 301 l 1
 199 300 l 1
 101 300 l 1
 100 301 l 1
 100 499 l 1
 101 500 l 1
 199 500 l 1
 200 499 l 1
201 600 m 1
 699 600 l 1
 700 599 l 1
 700 1 l 1
 699 0 l 1
 601 0 l 1
 600 1 l 1
 600 199 l 1
 599 200 l 1
 301 200 l 1
 300 199 l 1
 300 101 l 1
 299 100 l 1
 201 100 l 1
 200 101 l 1
 200 299 l 1
 201 300 l 1
 599 300 l 1
 600 301 l 1
 600 499 l 1
 599 500 l 1
 201 500 l 1
 200 501 l 1
 200 599 l 1
 201 600 l 1
EndSplineSet
EndChar

StartChar: uni0490
Encoding: 1168 1168 248
Width: 800
VWidth: 0
Flags: H
LayerCount: 2
Fore
SplineSet
200 1 m 1
 199 0 l 1
 101 0 l 1
 100 1 l 1
 100 599 l 1
 101 600 l 1
 599 600 l 1
 600 601 l 1
 600 699 l 1
 601 700 l 1
 699 700 l 1
 700 699 l 1
 700 501 l 1
 699 500 l 1
 201 500 l 1
 200 499 l 1
 200 1 l 1
EndSplineSet
EndChar

StartChar: uni0402
Encoding: 1026 1026 249
Width: 800
VWidth: 0
Flags: H
LayerCount: 2
Fore
SplineSet
600 299 m 1
 601 300 l 1
 699 300 l 1
 700 299 l 1
 700 1 l 1
 699 0 l 1
 601 0 l 1
 600 1 l 1
 600 299 l 1
599 0 m 1
 600 -1 l 1
 600 -99 l 1
 599 -100 l 1
 401 -100 l 1
 400 -99 l 1
 400 -1 l 1
 401 0 l 1
 599 0 l 1
499 500 m 1
 301 500 l 1
 300 499 l 1
 300 401 l 1
 301 400 l 1
 599 400 l 1
 600 399 l 1
 600 301 l 1
 599 300 l 1
 301 300 l 1
 300 299 l 1
 300 1 l 1
 299 0 l 1
 201 0 l 1
 200 1 l 1
 200 499 l 1
 199 500 l 1
 101 500 l 1
 100 501 l 1
 100 599 l 1
 101 600 l 1
 499 600 l 1
 500 599 l 1
 500 501 l 1
 499 500 l 1
EndSplineSet
EndChar

StartChar: uni0403
Encoding: 1027 1027 250
Width: 800
VWidth: 0
Flags: H
LayerCount: 2
Fore
SplineSet
200 1 m 1
 199 0 l 1
 101 0 l 1
 100 1 l 1
 100 599 l 1
 101 600 l 1
 299 600 l 1
 300 601 l 1
 300 699 l 1
 301 700 l 1
 399 700 l 1
 400 699 l 1
 400 601 l 1
 401 600 l 1
 699 600 l 1
 700 599 l 1
 700 501 l 1
 699 500 l 1
 201 500 l 1
 200 499 l 1
 200 1 l 1
EndSplineSet
EndChar

StartChar: uni0404
Encoding: 1028 1028 251
Width: 800
VWidth: 0
Flags: H
LayerCount: 2
Fore
SplineSet
299 400 m 1
 300 399 l 1
 300 301 l 1
 299 300 l 1
 201 300 l 1
 200 299 l 1
 200 101 l 1
 199 100 l 1
 101 100 l 1
 100 101 l 1
 100 499 l 1
 101 500 l 1
 199 500 l 1
 200 499 l 1
 200 401 l 1
 201 400 l 1
 299 400 l 1
201 500 m 1
 200 501 l 1
 200 599 l 1
 201 600 l 1
 599 600 l 1
 600 599 l 1
 600 501 l 1
 599 500 l 1
 201 500 l 1
201 0 m 1
 200 1 l 1
 200 99 l 1
 201 100 l 1
 599 100 l 1
 600 99 l 1
 600 1 l 1
 599 0 l 1
 201 0 l 1
601 400 m 1
 600 401 l 1
 600 499 l 1
 601 500 l 1
 699 500 l 1
 700 499 l 1
 700 401 l 1
 699 400 l 1
 601 400 l 1
601 100 m 1
 600 101 l 1
 600 199 l 1
 601 200 l 1
 699 200 l 1
 700 199 l 1
 700 101 l 1
 699 100 l 1
 601 100 l 1
EndSplineSet
EndChar

StartChar: uni0405
Encoding: 1029 1029 252
Width: 800
VWidth: 0
Flags: H
LayerCount: 2
Fore
SplineSet
101 100 m 1
 100 101 l 1
 100 199 l 1
 101 200 l 1
 199 200 l 1
 200 199 l 1
 200 101 l 1
 199 100 l 1
 101 100 l 1
600 299 m 1
 601 300 l 1
 699 300 l 1
 700 299 l 1
 700 101 l 1
 699 100 l 1
 601 100 l 1
 600 101 l 1
 600 299 l 1
101 400 m 1
 100 401 l 1
 100 499 l 1
 101 500 l 1
 199 500 l 1
 200 499 l 1
 200 401 l 1
 199 400 l 1
 101 400 l 1
201 0 m 1
 200 1 l 1
 200 99 l 1
 201 100 l 1
 599 100 l 1
 600 99 l 1
 600 1 l 1
 599 0 l 1
 201 0 l 1
201 300 m 1
 200 301 l 1
 200 399 l 1
 201 400 l 1
 599 400 l 1
 600 399 l 1
 600 301 l 1
 599 300 l 1
 201 300 l 1
201 500 m 1
 200 501 l 1
 200 599 l 1
 201 600 l 1
 599 600 l 1
 600 599 l 1
 600 501 l 1
 599 500 l 1
 201 500 l 1
EndSplineSet
EndChar

StartChar: uni0406
Encoding: 1030 1030 253
Width: 800
VWidth: 0
Flags: H
LayerCount: 2
Fore
SplineSet
201 0 m 1
 200 1 l 1
 200 99 l 1
 201 100 l 1
 399 100 l 1
 400 101 l 1
 400 499 l 1
 399 500 l 1
 201 500 l 1
 200 501 l 1
 200 599 l 1
 201 600 l 1
 699 600 l 1
 700 599 l 1
 700 501 l 1
 699 500 l 1
 501 500 l 1
 500 499 l 1
 500 101 l 1
 501 100 l 1
 699 100 l 1
 700 99 l 1
 700 1 l 1
 699 0 l 1
 201 0 l 1
EndSplineSet
EndChar

StartChar: uni0407
Encoding: 1031 1031 254
Width: 800
VWidth: 0
Flags: H
LayerCount: 2
Fore
SplineSet
101 0 m 1
 100 1 l 1
 100 99 l 1
 101 100 l 1
 299 100 l 1
 300 101 l 1
 300 399 l 1
 299 400 l 1
 101 400 l 1
 100 401 l 1
 100 499 l 1
 101 500 l 1
 599 500 l 1
 600 499 l 1
 600 401 l 1
 599 400 l 1
 401 400 l 1
 400 399 l 1
 400 101 l 1
 401 100 l 1
 599 100 l 1
 600 99 l 1
 600 1 l 1
 599 0 l 1
 101 0 l 1
201 600 m 1
 200 601 l 1
 200 699 l 1
 201 700 l 1
 299 700 l 1
 300 699 l 1
 300 601 l 1
 299 600 l 1
 201 600 l 1
401 600 m 1
 400 601 l 1
 400 699 l 1
 401 700 l 1
 499 700 l 1
 500 699 l 1
 500 601 l 1
 499 600 l 1
 401 600 l 1
EndSplineSet
EndChar

StartChar: uni0408
Encoding: 1032 1032 255
Width: 800
VWidth: 0
Flags: H
LayerCount: 2
Fore
SplineSet
600 599 m 1
 601 600 l 1
 699 600 l 1
 700 599 l 1
 700 101 l 1
 699 100 l 1
 601 100 l 1
 600 101 l 1
 600 599 l 1
201 0 m 1
 200 1 l 1
 200 99 l 1
 201 100 l 1
 599 100 l 1
 600 99 l 1
 600 1 l 1
 599 0 l 1
 201 0 l 1
100 299 m 1
 101 300 l 1
 199 300 l 1
 200 299 l 1
 200 101 l 1
 199 100 l 1
 101 100 l 1
 100 101 l 1
 100 299 l 1
EndSplineSet
EndChar

StartChar: uni0409
Encoding: 1033 1033 256
Width: 800
VWidth: 0
Flags: H
LayerCount: 2
Fore
SplineSet
199 0 m 1
 1 0 l 1
 0 1 l 1
 0 99 l 1
 1 100 l 1
 99 100 l 1
 100 101 l 1
 100 499 l 1
 101 500 l 1
 199 500 l 1
 200 499 l 1
 200 1 l 1
 199 0 l 1
599 100 m 1
 600 99 l 1
 600 1 l 1
 599 0 l 1
 400 -1 l 1
 399 0 l 1
 400 499 l 1
 399 500 l 1
 201 500 l 1
 200 501 l 1
 200 599 l 1
 201 600 l 1
 499 600 l 1
 500 599 l 1
 500 401 l 1
 501 400 l 1
 599 400 l 1
 600 399 l 1
 600 301 l 1
 599 300 l 1
 501 300 l 1
 500 299 l 1
 500 101 l 1
 501 100 l 1
 599 100 l 1
600 299 m 1
 601 300 l 1
 699 300 l 1
 700 299 l 1
 700 101 l 1
 699 100 l 1
 601 100 l 1
 600 101 l 1
 600 299 l 1
EndSplineSet
EndChar

StartChar: uni040A
Encoding: 1034 1034 257
Width: 800
VWidth: 0
Flags: H
LayerCount: 2
Fore
SplineSet
700 299 m 1
 701 300 l 1
 799 300 l 1
 800 299 l 1
 800 101 l 1
 799 100 l 1
 701 100 l 1
 700 101 l 1
 700 299 l 1
600 401 m 1
 601 400 l 1
 699 400 l 1
 700 399 l 1
 700 301 l 1
 699 300 l 1
 601 300 l 1
 600 299 l 1
 600 101 l 1
 601 100 l 1
 699 100 l 1
 700 99 l 1
 700 1 l 1
 699 0 l 1
 501 0 l 1
 500 1 l 1
 500 299 l 1
 499 300 l 1
 201 300 l 1
 200 299 l 1
 200 1 l 1
 199 0 l 1
 101 0 l 1
 100 1 l 1
 100 599 l 1
 101 600 l 1
 199 600 l 1
 200 599 l 1
 200 401 l 1
 201 400 l 1
 499 400 l 1
 500 401 l 1
 500 599 l 1
 501 600 l 1
 599 600 l 1
 600 599 l 1
 600 401 l 1
EndSplineSet
EndChar

StartChar: uni040B
Encoding: 1035 1035 258
Width: 800
VWidth: 0
Flags: H
LayerCount: 2
Fore
SplineSet
600 299 m 1
 601 300 l 1
 699 300 l 1
 700 299 l 1
 700 1 l 1
 699 0 l 1
 601 0 l 1
 600 1 l 1
 600 299 l 1
499 500 m 1
 301 500 l 1
 300 499 l 1
 300 401 l 1
 301 400 l 1
 599 400 l 1
 600 399 l 1
 600 301 l 1
 599 300 l 1
 301 300 l 1
 300 299 l 1
 300 1 l 1
 299 0 l 1
 201 0 l 1
 200 1 l 1
 200 499 l 1
 199 500 l 1
 101 500 l 1
 100 501 l 1
 100 599 l 1
 101 600 l 1
 499 600 l 1
 500 599 l 1
 500 501 l 1
 499 500 l 1
EndSplineSet
EndChar

StartChar: uni040C
Encoding: 1036 1036 259
Width: 800
VWidth: 0
Flags: H
LayerCount: 2
Fore
SplineSet
501 400 m 1
 500 401 l 1
 500 499 l 1
 501 500 l 1
 599 500 l 1
 600 499 l 1
 600 401 l 1
 599 400 l 1
 501 400 l 1
401 300 m 1
 400 301 l 1
 400 399 l 1
 401 400 l 1
 499 400 l 1
 500 399 l 1
 500 301 l 1
 499 300 l 1
 401 300 l 1
401 100 m 1
 400 101 l 1
 400 199 l 1
 401 200 l 1
 499 200 l 1
 500 199 l 1
 500 101 l 1
 499 100 l 1
 401 100 l 1
501 0 m 1
 500 1 l 1
 500 99 l 1
 501 100 l 1
 599 100 l 1
 600 99 l 1
 600 1 l 1
 599 0 l 1
 501 0 l 1
399 200 m 1
 201 200 l 1
 200 199 l 1
 200 1 l 1
 199 0 l 1
 101 0 l 1
 100 1 l 1
 100 599 l 1
 101 600 l 1
 199 600 l 1
 200 599 l 1
 200 301 l 1
 201 300 l 1
 399 300 l 1
 400 299 l 1
 400 201 l 1
 399 200 l 1
401 600 m 1
 400 601 l 1
 400 699 l 1
 401 700 l 1
 499 700 l 1
 500 699 l 1
 500 601 l 1
 499 600 l 1
 401 600 l 1
301 500 m 1
 300 501 l 1
 300 599 l 1
 301 600 l 1
 399 600 l 1
 400 599 l 1
 400 501 l 1
 399 500 l 1
 301 500 l 1
EndSplineSet
EndChar

StartChar: uni040E
Encoding: 1038 1038 260
Width: 800
VWidth: 0
Flags: H
LayerCount: 2
Fore
SplineSet
101 600 m 1
 100 601 l 1
 100 699 l 1
 101 700 l 1
 199 700 l 1
 200 699 l 1
 200 601 l 1
 199 600 l 1
 101 600 l 1
501 600 m 1
 500 601 l 1
 500 699 l 1
 501 700 l 1
 599 700 l 1
 600 699 l 1
 600 601 l 1
 599 600 l 1
 501 600 l 1
100 399 m 1
 101 400 l 1
 199 400 l 1
 200 399 l 1
 200 201 l 1
 199 200 l 1
 101 200 l 1
 100 201 l 1
 100 399 l 1
499 0 m 1
 500 -1 l 1
 500 -99 l 1
 499 -100 l 1
 201 -100 l 1
 200 -99 l 1
 200 -1 l 1
 201 0 l 1
 499 0 l 1
201 100 m 1
 200 101 l 1
 200 199 l 1
 201 200 l 1
 499 200 l 1
 500 201 l 1
 500 399 l 1
 501 400 l 1
 599 400 l 1
 600 399 l 1
 600 1 l 1
 599 0 l 1
 501 0 l 1
 500 1 l 1
 500 99 l 1
 499 100 l 1
 201 100 l 1
499 600 m 1
 500 599 l 1
 500 501 l 1
 499 500 l 1
 201 500 l 1
 200 501 l 1
 200 599 l 1
 201 600 l 1
 499 600 l 1
EndSplineSet
EndChar

StartChar: uni0430
Encoding: 1072 1072 261
Width: 800
VWidth: 0
Flags: H
LayerCount: 2
Fore
SplineSet
101 100 m 1
 100 101 l 1
 100 199 l 1
 101 200 l 1
 199 200 l 1
 200 199 l 1
 200 101 l 1
 199 100 l 1
 101 100 l 1
499 500 m 1
 500 499 l 1
 500 401 l 1
 499 400 l 1
 201 400 l 1
 200 401 l 1
 200 499 l 1
 201 500 l 1
 499 500 l 1
201 0 m 1
 200 1 l 1
 200 99 l 1
 201 100 l 1
 499 100 l 1
 500 101 l 1
 500 199 l 1
 499 200 l 1
 201 200 l 1
 200 201 l 1
 200 299 l 1
 201 300 l 1
 499 300 l 1
 500 301 l 1
 500 399 l 1
 501 400 l 1
 599 400 l 1
 600 399 l 1
 600 1 l 1
 599 0 l 1
 201 0 l 1
EndSplineSet
EndChar

StartChar: uni0431
Encoding: 1073 1073 262
Width: 800
VWidth: 0
Flags: H
LayerCount: 2
Fore
SplineSet
499 100 m 1
 500 99 l 1
 500 1 l 1
 499 0 l 1
 201 0 l 1
 200 1 l 1
 200 99 l 1
 201 100 l 1
 499 100 l 1
100 299 m 1
 101 300 l 1
 199 300 l 1
 200 299 l 1
 200 101 l 1
 199 100 l 1
 101 100 l 1
 100 101 l 1
 100 299 l 1
500 299 m 1
 501 300 l 1
 599 300 l 1
 600 299 l 1
 600 101 l 1
 599 100 l 1
 501 100 l 1
 500 101 l 1
 500 299 l 1
499 400 m 1
 500 399 l 1
 500 301 l 1
 499 300 l 1
 201 300 l 1
 200 301 l 1
 200 399 l 1
 201 400 l 1
 499 400 l 1
101 400 m 1
 100 401 l 1
 100 499 l 1
 101 500 l 1
 199 500 l 1
 200 499 l 1
 200 401 l 1
 199 400 l 1
 101 400 l 1
501 600 m 1
 500 601 l 1
 500 699 l 1
 501 700 l 1
 599 700 l 1
 600 699 l 1
 600 601 l 1
 599 600 l 1
 501 600 l 1
499 600 m 1
 500 599 l 1
 500 501 l 1
 499 500 l 1
 201 500 l 1
 200 501 l 1
 200 599 l 1
 201 600 l 1
 499 600 l 1
EndSplineSet
EndChar

StartChar: uni0432
Encoding: 1074 1074 263
Width: 800
VWidth: 0
Flags: H
LayerCount: 2
Fore
SplineSet
499 500 m 1
 500 499 l 1
 500 401 l 1
 499 400 l 1
 201 400 l 1
 200 399 l 1
 200 301 l 1
 201 300 l 1
 499 300 l 1
 500 299 l 1
 500 201 l 1
 499 200 l 1
 201 200 l 1
 200 199 l 1
 200 101 l 1
 201 100 l 1
 499 100 l 1
 500 99 l 1
 500 1 l 1
 499 0 l 1
 101 0 l 1
 100 1 l 1
 100 499 l 1
 101 500 l 1
 499 500 l 1
501 300 m 1
 500 301 l 1
 500 399 l 1
 501 400 l 1
 599 400 l 1
 600 399 l 1
 600 301 l 1
 599 300 l 1
 501 300 l 1
501 100 m 1
 500 101 l 1
 500 199 l 1
 501 200 l 1
 599 200 l 1
 600 199 l 1
 600 101 l 1
 599 100 l 1
 501 100 l 1
EndSplineSet
EndChar

StartChar: uni0433
Encoding: 1075 1075 264
Width: 800
VWidth: 0
Flags: H
LayerCount: 2
Fore
SplineSet
101 500 m 1
 599 500 l 1
 600 499 l 1
 600 401 l 1
 599 400 l 1
 201 400 l 1
 200 399 l 1
 200 1 l 1
 199 0 l 1
 101 0 l 1
 100 1 l 1
 100 499 l 1
 101 500 l 1
EndSplineSet
EndChar

StartChar: uni0434
Encoding: 1076 1076 265
Width: 800
VWidth: 0
Flags: H
LayerCount: 2
Fore
SplineSet
301 400 m 1
 300 401 l 1
 300 499 l 1
 301 500 l 1
 499 500 l 1
 500 499 l 1
 500 101 l 1
 501 100 l 1
 599 100 l 1
 600 99 l 1
 600 -99 l 1
 599 -100 l 1
 501 -100 l 1
 500 -99 l 1
 500 -1 l 1
 499 0 l 1
 201 0 l 1
 200 -1 l 1
 200 -99 l 1
 199 -100 l 1
 101 -100 l 1
 100 -99 l 1
 100 99 l 1
 101 100 l 1
 199 100 l 1
 200 101 l 1
 200 399 l 1
 201 400 l 1
 299 400 l 1
 300 399 l 1
 300 101 l 1
 301 100 l 1
 399 100 l 1
 400 101 l 1
 400 399 l 1
 399 400 l 1
 301 400 l 1
EndSplineSet
EndChar

StartChar: uni0435
Encoding: 1077 1077 266
Width: 800
VWidth: 0
Flags: H
LayerCount: 2
Fore
SplineSet
201 0 m 1
 200 1 l 1
 200 99 l 1
 201 100 l 1
 599 100 l 1
 600 99 l 1
 600 1 l 1
 599 0 l 1
 201 0 l 1
499 500 m 1
 500 499 l 1
 500 401 l 1
 499 400 l 1
 201 400 l 1
 200 401 l 1
 200 499 l 1
 201 500 l 1
 499 500 l 1
501 300 m 1
 500 301 l 1
 500 399 l 1
 501 400 l 1
 599 400 l 1
 600 399 l 1
 600 301 l 1
 599 300 l 1
 501 300 l 1
499 300 m 1
 500 299 l 1
 500 201 l 1
 499 200 l 1
 201 200 l 1
 200 199 l 1
 200 101 l 1
 199 100 l 1
 101 100 l 1
 100 101 l 1
 100 399 l 1
 101 400 l 1
 199 400 l 1
 200 399 l 1
 200 301 l 1
 201 300 l 1
 499 300 l 1
EndSplineSet
EndChar

StartChar: uni0451
Encoding: 1105 1105 267
Width: 800
VWidth: 0
Flags: H
LayerCount: 2
Fore
SplineSet
201 0 m 1
 200 1 l 1
 200 99 l 1
 201 100 l 1
 599 100 l 1
 600 99 l 1
 600 1 l 1
 599 0 l 1
 201 0 l 1
501 300 m 1
 500 301 l 1
 500 399 l 1
 501 400 l 1
 599 400 l 1
 600 399 l 1
 600 301 l 1
 599 300 l 1
 501 300 l 1
499 300 m 1
 500 299 l 1
 500 201 l 1
 499 200 l 1
 201 200 l 1
 200 199 l 1
 200 101 l 1
 199 100 l 1
 101 100 l 1
 100 101 l 1
 100 399 l 1
 101 400 l 1
 199 400 l 1
 200 399 l 1
 200 301 l 1
 201 300 l 1
 499 300 l 1
201 600 m 1
 200 601 l 1
 200 699 l 1
 201 700 l 1
 299 700 l 1
 300 699 l 1
 300 601 l 1
 299 600 l 1
 201 600 l 1
499 500 m 1
 500 499 l 1
 500 401 l 1
 499 400 l 1
 201 400 l 1
 200 401 l 1
 200 499 l 1
 201 500 l 1
 499 500 l 1
401 600 m 1
 400 601 l 1
 400 699 l 1
 401 700 l 1
 499 700 l 1
 500 699 l 1
 500 601 l 1
 499 600 l 1
 401 600 l 1
EndSplineSet
EndChar

StartChar: uni0436
Encoding: 1078 1078 268
Width: 800
VWidth: 0
Flags: H
LayerCount: 2
Fore
SplineSet
499 300 m 1
 500 299 l 1
 500 201 l 1
 499 200 l 1
 401 200 l 1
 400 199 l 1
 400 1 l 1
 399 0 l 1
 301 0 l 1
 300 1 l 1
 300 199 l 1
 299 200 l 1
 201 200 l 1
 200 201 l 1
 200 299 l 1
 201 300 l 1
 299 300 l 1
 300 301 l 1
 300 499 l 1
 301 500 l 1
 399 500 l 1
 400 499 l 1
 400 301 l 1
 401 300 l 1
 499 300 l 1
501 300 m 1
 500 301 l 1
 500 399 l 1
 501 400 l 1
 599 400 l 1
 600 399 l 1
 600 301 l 1
 599 300 l 1
 501 300 l 1
601 400 m 1
 600 401 l 1
 600 499 l 1
 601 500 l 1
 699 500 l 1
 700 499 l 1
 700 401 l 1
 699 400 l 1
 601 400 l 1
101 300 m 1
 100 301 l 1
 100 399 l 1
 101 400 l 1
 199 400 l 1
 200 399 l 1
 200 301 l 1
 199 300 l 1
 101 300 l 1
1 400 m 1
 0 401 l 1
 0 499 l 1
 1 500 l 1
 99 500 l 1
 100 499 l 1
 100 401 l 1
 99 400 l 1
 1 400 l 1
101 100 m 1
 100 101 l 1
 100 199 l 1
 101 200 l 1
 199 200 l 1
 200 199 l 1
 200 101 l 1
 199 100 l 1
 101 100 l 1
501 100 m 1
 500 101 l 1
 500 199 l 1
 501 200 l 1
 599 200 l 1
 600 199 l 1
 600 101 l 1
 599 100 l 1
 501 100 l 1
601 0 m 1
 600 1 l 1
 600 99 l 1
 601 100 l 1
 699 100 l 1
 700 99 l 1
 700 1 l 1
 699 0 l 1
 601 0 l 1
1 0 m 1
 0 1 l 1
 0 99 l 1
 1 100 l 1
 99 100 l 1
 100 99 l 1
 100 1 l 1
 99 0 l 1
 1 0 l 1
EndSplineSet
EndChar

StartChar: uni0437
Encoding: 1079 1079 269
Width: 800
VWidth: 0
Flags: H
LayerCount: 2
Fore
SplineSet
499 300 m 1
 500 299 l 1
 500 201 l 1
 499 200 l 1
 301 200 l 1
 300 201 l 1
 300 299 l 1
 301 300 l 1
 499 300 l 1
499 500 m 1
 500 499 l 1
 500 401 l 1
 499 400 l 1
 201 400 l 1
 200 401 l 1
 200 499 l 1
 201 500 l 1
 499 500 l 1
501 300 m 1
 500 301 l 1
 500 399 l 1
 501 400 l 1
 599 400 l 1
 600 399 l 1
 600 301 l 1
 599 300 l 1
 501 300 l 1
501 100 m 1
 500 101 l 1
 500 199 l 1
 501 200 l 1
 599 200 l 1
 600 199 l 1
 600 101 l 1
 599 100 l 1
 501 100 l 1
499 100 m 1
 500 99 l 1
 500 1 l 1
 499 0 l 1
 201 0 l 1
 200 1 l 1
 200 99 l 1
 201 100 l 1
 499 100 l 1
EndSplineSet
EndChar

StartChar: uni0438
Encoding: 1080 1080 270
Width: 800
VWidth: 0
Flags: H
LayerCount: 2
Fore
SplineSet
401 400 m 1
 499 400 l 1
 500 401 l 1
 500 499 l 1
 501 500 l 1
 599 500 l 1
 600 499 l 1
 600 1 l 1
 599 0 l 1
 501 0 l 1
 500 1 l 1
 500 299 l 1
 499 300 l 1
 401 300 l 1
 400 301 l 1
 400 399 l 1
 401 400 l 1
299 100 m 1
 201 100 l 1
 200 99 l 1
 200 1 l 1
 199 0 l 1
 101 0 l 1
 100 1 l 1
 100 499 l 1
 101 500 l 1
 199 500 l 1
 200 499 l 1
 200 201 l 1
 201 200 l 1
 299 200 l 1
 300 199 l 1
 300 101 l 1
 299 100 l 1
399 200 m 1
 301 200 l 1
 300 201 l 1
 300 299 l 1
 301 300 l 1
 399 300 l 1
 400 299 l 1
 400 201 l 1
 399 200 l 1
EndSplineSet
EndChar

StartChar: uni0439
Encoding: 1081 1081 271
Width: 800
VWidth: 0
Flags: H
LayerCount: 2
Fore
SplineSet
401 400 m 1
 499 400 l 1
 500 401 l 1
 500 499 l 1
 501 500 l 1
 599 500 l 1
 600 499 l 1
 600 1 l 1
 599 0 l 1
 501 0 l 1
 500 1 l 1
 500 299 l 1
 499 300 l 1
 401 300 l 1
 400 301 l 1
 400 399 l 1
 401 400 l 1
299 100 m 1
 201 100 l 1
 200 99 l 1
 200 1 l 1
 199 0 l 1
 101 0 l 1
 100 1 l 1
 100 499 l 1
 101 500 l 1
 199 500 l 1
 200 499 l 1
 200 201 l 1
 201 200 l 1
 299 200 l 1
 300 199 l 1
 300 101 l 1
 299 100 l 1
399 200 m 1
 301 200 l 1
 300 201 l 1
 300 299 l 1
 301 300 l 1
 399 300 l 1
 400 299 l 1
 400 201 l 1
 399 200 l 1
499 600 m 1
 500 599 l 1
 500 501 l 1
 499 500 l 1
 301 500 l 1
 300 501 l 1
 300 599 l 1
 301 600 l 1
 499 600 l 1
599 600 m 1
 501 600 l 1
 500 601 l 1
 500 699 l 1
 501 700 l 1
 599 700 l 1
 600 699 l 1
 600 601 l 1
 599 600 l 1
299 600 m 1
 201 600 l 1
 200 601 l 1
 200 699 l 1
 201 700 l 1
 299 700 l 1
 300 699 l 1
 300 601 l 1
 299 600 l 1
EndSplineSet
EndChar

StartChar: uni043A
Encoding: 1082 1082 272
Width: 800
VWidth: 0
Flags: H
LayerCount: 2
Fore
SplineSet
501 400 m 1
 500 401 l 1
 500 499 l 1
 501 500 l 1
 599 500 l 1
 600 499 l 1
 600 401 l 1
 599 400 l 1
 501 400 l 1
401 300 m 1
 400 301 l 1
 400 399 l 1
 401 400 l 1
 499 400 l 1
 500 399 l 1
 500 301 l 1
 499 300 l 1
 401 300 l 1
401 100 m 1
 400 101 l 1
 400 199 l 1
 401 200 l 1
 499 200 l 1
 500 199 l 1
 500 101 l 1
 499 100 l 1
 401 100 l 1
501 0 m 1
 500 1 l 1
 500 99 l 1
 501 100 l 1
 599 100 l 1
 600 99 l 1
 600 1 l 1
 599 0 l 1
 501 0 l 1
399 300 m 1
 400 299 l 1
 400 201 l 1
 399 200 l 1
 201 200 l 1
 200 199 l 1
 200 1 l 1
 199 0 l 1
 101 0 l 1
 100 1 l 1
 100 499 l 1
 101 500 l 1
 199 500 l 1
 200 499 l 1
 200 301 l 1
 201 300 l 1
 399 300 l 1
EndSplineSet
EndChar

StartChar: uni043B
Encoding: 1083 1083 273
Width: 800
VWidth: 0
Flags: H
LayerCount: 2
Fore
SplineSet
399 0 m 1
 201 0 l 1
 200 1 l 1
 200 99 l 1
 201 100 l 1
 299 100 l 1
 300 101 l 1
 300 399 l 1
 301 400 l 1
 399 400 l 1
 400 399 l 1
 400 1 l 1
 399 0 l 1
599 500 m 1
 600 499 l 1
 600 1 l 1
 599 0 l 1
 501 0 l 1
 500 1 l 1
 500 399 l 1
 499 400 l 1
 401 400 l 1
 400 401 l 1
 400 499 l 1
 401 500 l 1
 599 500 l 1
EndSplineSet
EndChar

StartChar: uni043C
Encoding: 1084 1084 274
Width: 800
VWidth: 0
Flags: H
LayerCount: 2
Fore
SplineSet
299 400 m 1
 300 399 l 1
 300 301 l 1
 299 300 l 1
 201 300 l 1
 200 299 l 1
 200 1 l 1
 199 0 l 1
 101 0 l 1
 100 1 l 1
 100 499 l 1
 101 500 l 1
 199 500 l 1
 200 499 l 1
 200 401 l 1
 201 400 l 1
 299 400 l 1
401 400 m 1
 499 400 l 1
 500 401 l 1
 500 499 l 1
 501 500 l 1
 599 500 l 1
 600 499 l 1
 600 1 l 1
 599 0 l 1
 501 0 l 1
 500 1 l 1
 500 299 l 1
 499 300 l 1
 401 300 l 1
 400 301 l 1
 400 399 l 1
 401 400 l 1
301 200 m 1
 300 201 l 1
 300 299 l 1
 301 300 l 1
 399 300 l 1
 400 299 l 1
 400 201 l 1
 399 200 l 1
 301 200 l 1
EndSplineSet
EndChar

StartChar: uni043D
Encoding: 1085 1085 275
Width: 800
VWidth: 0
Flags: H
LayerCount: 2
Fore
SplineSet
100 1 m 1
 100 499 l 1
 101 500 l 1
 199 500 l 1
 200 499 l 1
 200 301 l 1
 201 300 l 1
 499 300 l 1
 500 301 l 1
 500 499 l 1
 501 500 l 1
 599 500 l 1
 600 499 l 1
 600 1 l 1
 599 0 l 1
 501 0 l 1
 500 1 l 1
 500 199 l 1
 499 200 l 1
 201 200 l 1
 200 199 l 1
 200 1 l 1
 199 0 l 1
 101 0 l 1
 100 1 l 1
EndSplineSet
EndChar

StartChar: uni043E
Encoding: 1086 1086 276
Width: 800
VWidth: 0
Flags: H
LayerCount: 2
Fore
SplineSet
100 399 m 1
 101 400 l 1
 199 400 l 1
 200 399 l 1
 200 101 l 1
 199 100 l 1
 101 100 l 1
 100 101 l 1
 100 399 l 1
499 100 m 1
 500 99 l 1
 500 1 l 1
 499 0 l 1
 201 0 l 1
 200 1 l 1
 200 99 l 1
 201 100 l 1
 499 100 l 1
500 399 m 1
 501 400 l 1
 599 400 l 1
 600 399 l 1
 600 101 l 1
 599 100 l 1
 501 100 l 1
 500 101 l 1
 500 399 l 1
499 500 m 1
 500 499 l 1
 500 401 l 1
 499 400 l 1
 201 400 l 1
 200 401 l 1
 200 499 l 1
 201 500 l 1
 499 500 l 1
EndSplineSet
EndChar

StartChar: uni043F
Encoding: 1087 1087 277
Width: 800
VWidth: 0
Flags: H
LayerCount: 2
Fore
SplineSet
200 1 m 1
 199 0 l 1
 101 0 l 1
 100 1 l 1
 100 499 l 1
 101 500 l 1
 599 500 l 1
 600 499 l 1
 600 1 l 1
 599 0 l 1
 501 0 l 1
 500 1 l 1
 500 399 l 1
 499 400 l 1
 200 400 l 1
 199 399 l 1
 200 1 l 1
EndSplineSet
EndChar

StartChar: uni0440
Encoding: 1088 1088 278
Width: 800
VWidth: 0
Flags: H
LayerCount: 2
Fore
SplineSet
499 500 m 1
 500 499 l 1
 500 401 l 1
 499 400 l 1
 201 400 l 1
 200 399 l 1
 200 201 l 1
 201 200 l 1
 499 200 l 1
 500 199 l 1
 500 101 l 1
 499 100 l 1
 201 100 l 1
 200 99 l 1
 200 -99 l 1
 199 -100 l 1
 101 -100 l 1
 100 -99 l 1
 100 499 l 1
 101 500 l 1
 499 500 l 1
500 399 m 1
 501 400 l 1
 599 400 l 1
 600 399 l 1
 600 201 l 1
 599 200 l 1
 501 200 l 1
 500 201 l 1
 500 399 l 1
EndSplineSet
EndChar

StartChar: uni0441
Encoding: 1089 1089 279
Width: 800
VWidth: 0
Flags: H
LayerCount: 2
Fore
SplineSet
200 399 m 1
 201 400 l 1
 299 400 l 1
 300 399 l 1
 300 101 l 1
 299 100 l 1
 201 100 l 1
 200 101 l 1
 200 399 l 1
599 100 m 1
 600 99 l 1
 600 1 l 1
 599 0 l 1
 301 0 l 1
 300 1 l 1
 300 99 l 1
 301 100 l 1
 599 100 l 1
599 500 m 1
 600 499 l 1
 600 401 l 1
 599 400 l 1
 301 400 l 1
 300 401 l 1
 300 499 l 1
 301 500 l 1
 599 500 l 1
EndSplineSet
EndChar

StartChar: uni0442
Encoding: 1090 1090 280
Width: 800
VWidth: 0
Flags: H
LayerCount: 2
Fore
SplineSet
300 1 m 1
 300 399 l 1
 299 400 l 1
 101 400 l 1
 100 401 l 1
 100 499 l 1
 101 500 l 1
 599 500 l 1
 600 499 l 1
 600 401 l 1
 599 400 l 1
 401 400 l 1
 400 399 l 1
 400 1 l 1
 399 0 l 1
 301 0 l 1
 300 1 l 1
EndSplineSet
EndChar

StartChar: uni0443
Encoding: 1091 1091 281
Width: 800
VWidth: 0
Flags: H
LayerCount: 2
Fore
SplineSet
100 499 m 1
 101 500 l 1
 199 500 l 1
 200 499 l 1
 200 201 l 1
 199 200 l 1
 101 200 l 1
 100 201 l 1
 100 499 l 1
499 0 m 1
 500 -1 l 1
 500 -99 l 1
 499 -100 l 1
 201 -100 l 1
 200 -99 l 1
 200 -1 l 1
 201 0 l 1
 499 0 l 1
201 100 m 1
 200 101 l 1
 200 199 l 1
 201 200 l 1
 499 200 l 1
 500 201 l 1
 500 499 l 1
 501 500 l 1
 599 500 l 1
 600 499 l 1
 600 1 l 1
 599 0 l 1
 501 0 l 1
 500 1 l 1
 500 99 l 1
 499 100 l 1
 201 100 l 1
EndSplineSet
EndChar

StartChar: uni0444
Encoding: 1092 1092 282
Width: 800
VWidth: 0
Flags: H
LayerCount: 2
Fore
SplineSet
499 100 m 1
 500 99 l 1
 500 1 l 1
 499 0 l 1
 401 0 l 1
 400 -1 l 1
 400 -99 l 1
 399 -100 l 1
 301 -100 l 1
 300 -99 l 1
 300 -1 l 1
 299 0 l 1
 201 0 l 1
 200 1 l 1
 200 99 l 1
 201 100 l 1
 299 100 l 1
 300 101 l 1
 300 399 l 1
 299 400 l 1
 201 400 l 1
 200 401 l 1
 200 499 l 1
 201 500 l 1
 299 500 l 1
 300 501 l 1
 300 599 l 1
 301 600 l 1
 399 600 l 1
 400 599 l 1
 400 501 l 1
 401 500 l 1
 499 500 l 1
 500 499 l 1
 500 401 l 1
 499 400 l 1
 401 400 l 1
 400 399 l 1
 400 101 l 1
 401 100 l 1
 499 100 l 1
500 399 m 1
 501 400 l 1
 599 400 l 1
 600 399 l 1
 600 101 l 1
 599 100 l 1
 501 100 l 1
 500 101 l 1
 500 399 l 1
100 399 m 1
 101 400 l 1
 199 400 l 1
 200 399 l 1
 200 101 l 1
 199 100 l 1
 101 100 l 1
 100 101 l 1
 100 399 l 1
EndSplineSet
EndChar

StartChar: uni0445
Encoding: 1093 1093 283
Width: 800
VWidth: 0
Flags: H
LayerCount: 2
Fore
SplineSet
101 0 m 1
 100 1 l 1
 100 99 l 1
 101 100 l 1
 199 100 l 1
 200 99 l 1
 200 1 l 1
 199 0 l 1
 101 0 l 1
201 100 m 1
 200 101 l 1
 200 199 l 1
 201 200 l 1
 299 200 l 1
 300 199 l 1
 300 101 l 1
 299 100 l 1
 201 100 l 1
301 200 m 1
 300 201 l 1
 300 299 l 1
 301 300 l 1
 399 300 l 1
 400 299 l 1
 400 201 l 1
 399 200 l 1
 301 200 l 1
401 300 m 1
 400 301 l 1
 400 399 l 1
 401 400 l 1
 499 400 l 1
 500 399 l 1
 500 301 l 1
 499 300 l 1
 401 300 l 1
501 400 m 1
 500 401 l 1
 500 499 l 1
 501 500 l 1
 599 500 l 1
 600 499 l 1
 600 401 l 1
 599 400 l 1
 501 400 l 1
501 0 m 1
 500 1 l 1
 500 99 l 1
 501 100 l 1
 599 100 l 1
 600 99 l 1
 600 1 l 1
 599 0 l 1
 501 0 l 1
401 100 m 1
 400 101 l 1
 400 199 l 1
 401 200 l 1
 499 200 l 1
 500 199 l 1
 500 101 l 1
 499 100 l 1
 401 100 l 1
201 300 m 1
 200 301 l 1
 200 399 l 1
 201 400 l 1
 299 400 l 1
 300 399 l 1
 300 301 l 1
 299 300 l 1
 201 300 l 1
101 400 m 1
 100 401 l 1
 100 499 l 1
 101 500 l 1
 199 500 l 1
 200 499 l 1
 200 401 l 1
 199 400 l 1
 101 400 l 1
EndSplineSet
EndChar

StartChar: uni0446
Encoding: 1094 1094 284
Width: 800
VWidth: 0
Flags: H
LayerCount: 2
Fore
SplineSet
100 499 m 1
 101 500 l 1
 199 500 l 1
 200 499 l 1
 200 101 l 1
 201 100 l 1
 399 100 l 1
 400 101 l 1
 400 499 l 1
 401 500 l 1
 499 500 l 1
 500 499 l 1
 500 101 l 1
 501 100 l 1
 599 100 l 1
 600 99 l 1
 600 -99 l 1
 599 -100 l 1
 501 -100 l 1
 500 -99 l 1
 500 -1 l 1
 499 0 l 1
 101 0 l 1
 100 1 l 1
 100 499 l 1
EndSplineSet
EndChar

StartChar: uni0447
Encoding: 1095 1095 285
Width: 800
VWidth: 0
Flags: H
LayerCount: 2
Fore
SplineSet
301 200 m 1
 300 201 l 1
 300 299 l 1
 301 300 l 1
 499 300 l 1
 500 301 l 1
 500 499 l 1
 501 500 l 1
 599 500 l 1
 600 499 l 1
 600 1 l 1
 599 0 l 1
 501 0 l 1
 500 1 l 1
 500 199 l 1
 499 200 l 1
 301 200 l 1
200 499 m 1
 201 500 l 1
 299 500 l 1
 300 499 l 1
 300 301 l 1
 299 300 l 1
 201 300 l 1
 200 301 l 1
 200 499 l 1
EndSplineSet
EndChar

StartChar: uni0448
Encoding: 1096 1096 286
Width: 800
VWidth: 0
Flags: H
LayerCount: 2
Fore
SplineSet
100 499 m 1
 101 500 l 1
 199 500 l 1
 200 499 l 1
 200 101 l 1
 201 100 l 1
 299 100 l 1
 300 101 l 1
 300 499 l 1
 301 500 l 1
 399 500 l 1
 400 499 l 1
 400 101 l 1
 401 100 l 1
 499 100 l 1
 500 101 l 1
 500 499 l 1
 501 500 l 1
 599 500 l 1
 600 499 l 1
 600 1 l 1
 599 0 l 1
 101 0 l 1
 100 1 l 1
 100 499 l 1
EndSplineSet
EndChar

StartChar: uni0449
Encoding: 1097 1097 287
Width: 800
VWidth: 0
Flags: H
LayerCount: 2
Fore
SplineSet
100 499 m 1
 101 500 l 1
 199 500 l 1
 200 499 l 1
 200 101 l 1
 201 100 l 1
 299 100 l 1
 300 101 l 1
 300 499 l 1
 301 500 l 1
 399 500 l 1
 400 499 l 1
 400 101 l 1
 401 100 l 1
 499 100 l 1
 500 101 l 1
 500 499 l 1
 501 500 l 1
 599 500 l 1
 600 499 l 1
 600 101 l 1
 601 100 l 1
 699 100 l 1
 700 99 l 1
 700 -99 l 1
 699 -100 l 1
 601 -100 l 1
 600 -99 l 1
 600 -1 l 1
 599 0 l 1
 101 0 l 1
 100 1 l 1
 100 499 l 1
EndSplineSet
EndChar

StartChar: uni044A
Encoding: 1098 1098 288
Width: 800
VWidth: 0
Flags: H
LayerCount: 2
Fore
SplineSet
499 0 m 1
 201 0 l 1
 200 1 l 1
 200 399 l 1
 199 400 l 1
 101 400 l 1
 100 401 l 1
 100 499 l 1
 101 500 l 1
 299 500 l 1
 300 499 l 1
 300 301 l 1
 301 300 l 1
 499 300 l 1
 500 299 l 1
 500 201 l 1
 499 200 l 1
 301 200 l 1
 300 199 l 1
 300 101 l 1
 301 100 l 1
 499 100 l 1
 500 99 l 1
 500 1 l 1
 499 0 l 1
501 100 m 1
 500 101 l 1
 500 199 l 1
 501 200 l 1
 599 200 l 1
 600 199 l 1
 600 101 l 1
 599 100 l 1
 501 100 l 1
EndSplineSet
EndChar

StartChar: uni044B
Encoding: 1099 1099 289
Width: 800
VWidth: 0
Flags: H
LayerCount: 2
Fore
SplineSet
299 0 m 1
 101 0 l 1
 100 1 l 1
 100 499 l 1
 101 500 l 1
 199 500 l 1
 200 499 l 1
 200 301 l 1
 201 300 l 1
 299 300 l 1
 300 299 l 1
 300 201 l 1
 299 200 l 1
 201 200 l 1
 200 199 l 1
 200 101 l 1
 201 100 l 1
 299 100 l 1
 300 99 l 1
 300 1 l 1
 299 0 l 1
500 499 m 1
 501 500 l 1
 599 500 l 1
 600 499 l 1
 600 1 l 1
 599 0 l 1
 501 0 l 1
 500 1 l 1
 500 499 l 1
301 100 m 1
 300 101 l 1
 300 199 l 1
 301 200 l 1
 399 200 l 1
 400 199 l 1
 400 101 l 1
 399 100 l 1
 301 100 l 1
EndSplineSet
EndChar

StartChar: uni044C
Encoding: 1100 1100 290
Width: 800
VWidth: 0
Flags: H
LayerCount: 2
Fore
SplineSet
499 0 m 1
 201 0 l 1
 200 1 l 1
 200 499 l 1
 201 500 l 1
 299 500 l 1
 300 499 l 1
 300 301 l 1
 301 300 l 1
 499 300 l 1
 500 299 l 1
 500 201 l 1
 499 200 l 1
 301 200 l 1
 300 199 l 1
 300 101 l 1
 301 100 l 1
 499 100 l 1
 500 99 l 1
 500 1 l 1
 499 0 l 1
501 100 m 1
 500 101 l 1
 500 199 l 1
 501 200 l 1
 599 200 l 1
 600 199 l 1
 600 101 l 1
 599 100 l 1
 501 100 l 1
EndSplineSet
EndChar

StartChar: uni044D
Encoding: 1101 1101 291
Width: 800
VWidth: 0
Flags: H
LayerCount: 2
Fore
SplineSet
101 100 m 1
 100 101 l 1
 100 199 l 1
 101 200 l 1
 199 200 l 1
 200 199 l 1
 200 101 l 1
 199 100 l 1
 101 100 l 1
499 100 m 1
 500 99 l 1
 500 1 l 1
 499 0 l 1
 201 0 l 1
 200 1 l 1
 200 99 l 1
 201 100 l 1
 499 100 l 1
499 500 m 1
 500 499 l 1
 500 401 l 1
 499 400 l 1
 201 400 l 1
 200 401 l 1
 200 499 l 1
 201 500 l 1
 499 500 l 1
101 300 m 1
 100 301 l 1
 100 399 l 1
 101 400 l 1
 199 400 l 1
 200 399 l 1
 200 301 l 1
 199 300 l 1
 101 300 l 1
401 200 m 1
 400 201 l 1
 400 299 l 1
 401 300 l 1
 499 300 l 1
 500 301 l 1
 500 399 l 1
 501 400 l 1
 599 400 l 1
 600 399 l 1
 600 101 l 1
 599 100 l 1
 501 100 l 1
 500 101 l 1
 500 199 l 1
 499 200 l 1
 401 200 l 1
EndSplineSet
EndChar

StartChar: uni044E
Encoding: 1102 1102 292
Width: 800
VWidth: 0
Flags: H
LayerCount: 2
Fore
SplineSet
100 499 m 1
 101 500 l 1
 199 500 l 1
 200 499 l 1
 200 301 l 1
 201 300 l 1
 299 300 l 1
 300 301 l 1
 300 399 l 1
 301 400 l 1
 399 400 l 1
 400 399 l 1
 400 101 l 1
 399 100 l 1
 301 100 l 1
 300 101 l 1
 300 199 l 1
 299 200 l 1
 201 200 l 1
 200 199 l 1
 200 1 l 1
 199 0 l 1
 101 0 l 1
 100 1 l 1
 100 499 l 1
599 500 m 1
 600 499 l 1
 600 401 l 1
 599 400 l 1
 401 400 l 1
 400 401 l 1
 400 499 l 1
 401 500 l 1
 599 500 l 1
599 100 m 1
 600 99 l 1
 600 1 l 1
 599 0 l 1
 401 0 l 1
 400 1 l 1
 400 99 l 1
 401 100 l 1
 599 100 l 1
600 399 m 1
 601 400 l 1
 699 400 l 1
 700 399 l 1
 700 101 l 1
 699 100 l 1
 601 100 l 1
 600 101 l 1
 600 399 l 1
EndSplineSet
EndChar

StartChar: uni044F
Encoding: 1103 1103 293
Width: 800
VWidth: 0
Flags: H
LayerCount: 2
Fore
SplineSet
199 0 m 1
 101 0 l 1
 100 1 l 1
 100 99 l 1
 101 100 l 1
 199 100 l 1
 200 99 l 1
 200 1 l 1
 199 0 l 1
201 500 m 1
 599 500 l 1
 600 499 l 1
 600 1 l 1
 599 0 l 1
 501 0 l 1
 500 1 l 1
 500 199 l 1
 499 200 l 1
 301 200 l 1
 300 199 l 1
 300 101 l 1
 299 100 l 1
 201 100 l 1
 200 101 l 1
 200 299 l 1
 201 300 l 1
 499 300 l 1
 500 301 l 1
 500 399 l 1
 499 400 l 1
 201 400 l 1
 200 401 l 1
 200 499 l 1
 201 500 l 1
199 300 m 1
 101 300 l 1
 100 301 l 1
 100 399 l 1
 101 400 l 1
 199 400 l 1
 200 399 l 1
 200 301 l 1
 199 300 l 1
EndSplineSet
EndChar

StartChar: uni0491
Encoding: 1169 1169 294
Width: 800
VWidth: 0
Flags: H
LayerCount: 2
Fore
SplineSet
300 1 m 1
 299 0 l 1
 201 0 l 1
 200 1 l 1
 200 499 l 1
 201 500 l 1
 599 500 l 1
 600 501 l 1
 600 599 l 1
 601 600 l 1
 699 600 l 1
 700 599 l 1
 700 401 l 1
 699 400 l 1
 301 400 l 1
 300 399 l 1
 300 1 l 1
EndSplineSet
EndChar

StartChar: uni0452
Encoding: 1106 1106 295
Width: 800
VWidth: 0
Flags: H
LayerCount: 2
Fore
SplineSet
499 400 m 1
 500 399 l 1
 500 301 l 1
 499 300 l 1
 301 300 l 1
 300 299 l 1
 300 1 l 1
 299 0 l 1
 201 0 l 1
 200 1 l 1
 200 499 l 1
 199 500 l 1
 101 500 l 1
 100 501 l 1
 100 599 l 1
 101 600 l 1
 199 600 l 1
 200 601 l 1
 200 699 l 1
 201 700 l 1
 299 700 l 1
 300 699 l 1
 300 601 l 1
 301 600 l 1
 399 600 l 1
 400 599 l 1
 400 501 l 1
 399 500 l 1
 301 500 l 1
 300 499 l 1
 300 401 l 1
 301 400 l 1
 499 400 l 1
500 299 m 1
 501 300 l 1
 599 300 l 1
 600 299 l 1
 600 1 l 1
 599 0 l 1
 501 0 l 1
 500 1 l 1
 500 299 l 1
401 -100 m 1
 400 -99 l 1
 400 -1 l 1
 401 0 l 1
 499 0 l 1
 500 -1 l 1
 500 -99 l 1
 499 -100 l 1
 401 -100 l 1
EndSplineSet
EndChar

StartChar: uni0453
Encoding: 1107 1107 296
Width: 800
VWidth: 0
Flags: H
LayerCount: 2
Fore
SplineSet
100 499 m 1
 101 500 l 1
 299 500 l 1
 300 501 l 1
 300 599 l 1
 301 600 l 1
 399 600 l 1
 400 599 l 1
 400 501 l 1
 401 500 l 1
 599 500 l 1
 600 499 l 1
 600 401 l 1
 599 400 l 1
 201 400 l 1
 200 399 l 1
 200 1 l 1
 199 0 l 1
 101 0 l 1
 100 1 l 1
 100 499 l 1
401 600 m 1
 400 601 l 1
 400 699 l 1
 401 700 l 1
 499 700 l 1
 500 699 l 1
 500 601 l 1
 499 600 l 1
 401 600 l 1
EndSplineSet
EndChar

StartChar: uni0454
Encoding: 1108 1108 297
Width: 800
VWidth: 0
Flags: H
LayerCount: 2
Fore
SplineSet
599 100 m 1
 501 100 l 1
 500 101 l 1
 500 199 l 1
 501 200 l 1
 599 200 l 1
 600 199 l 1
 600 101 l 1
 599 100 l 1
201 100 m 1
 499 100 l 1
 500 99 l 1
 500 1 l 1
 499 0 l 1
 201 0 l 1
 200 1 l 1
 200 99 l 1
 201 100 l 1
201 500 m 1
 499 500 l 1
 500 499 l 1
 500 401 l 1
 499 400 l 1
 201 400 l 1
 200 401 l 1
 200 499 l 1
 201 500 l 1
599 300 m 1
 501 300 l 1
 500 301 l 1
 500 399 l 1
 501 400 l 1
 599 400 l 1
 600 399 l 1
 600 301 l 1
 599 300 l 1
299 200 m 1
 201 200 l 1
 200 199 l 1
 200 101 l 1
 199 100 l 1
 101 100 l 1
 100 101 l 1
 100 399 l 1
 101 400 l 1
 199 400 l 1
 200 399 l 1
 200 301 l 1
 201 300 l 1
 299 300 l 1
 300 299 l 1
 300 201 l 1
 299 200 l 1
EndSplineSet
EndChar

StartChar: uni0455
Encoding: 1109 1109 298
Width: 800
VWidth: 0
Flags: H
LayerCount: 2
Fore
SplineSet
499 500 m 1
 500 499 l 1
 500 401 l 1
 499 400 l 1
 201 400 l 1
 200 401 l 1
 200 499 l 1
 201 500 l 1
 499 500 l 1
101 300 m 1
 100 301 l 1
 100 399 l 1
 101 400 l 1
 199 400 l 1
 200 399 l 1
 200 301 l 1
 199 300 l 1
 101 300 l 1
499 300 m 1
 500 299 l 1
 500 201 l 1
 499 200 l 1
 201 200 l 1
 200 201 l 1
 200 299 l 1
 201 300 l 1
 499 300 l 1
501 100 m 1
 500 101 l 1
 500 199 l 1
 501 200 l 1
 599 200 l 1
 600 199 l 1
 600 101 l 1
 599 100 l 1
 501 100 l 1
101 0 m 1
 100 1 l 1
 100 99 l 1
 101 100 l 1
 499 100 l 1
 500 99 l 1
 500 1 l 1
 499 0 l 1
 101 0 l 1
EndSplineSet
EndChar

StartChar: uni0456
Encoding: 1110 1110 299
Width: 800
VWidth: 0
Flags: H
LayerCount: 2
Fore
SplineSet
301 500 m 1
 300 501 l 1
 300 599 l 1
 301 600 l 1
 399 600 l 1
 400 599 l 1
 400 501 l 1
 399 500 l 1
 301 500 l 1
200 400 m 1
 201 401 l 1
 399 401 l 1
 400 400 l 1
 400 101 l 1
 401 100 l 1
 499 100 l 1
 500 99 l 1
 500 1 l 1
 499 0 l 1
 201 0 l 1
 200 1 l 1
 200 99 l 1
 201 100 l 1
 299 100 l 1
 300 101 l 1
 300 299 l 1
 299 300 l 1
 201 300 l 1
 200 301 l 1
 200 400 l 1
EndSplineSet
EndChar

StartChar: uni0457
Encoding: 1111 1111 300
Width: 800
VWidth: 0
Flags: H
LayerCount: 2
Fore
SplineSet
200 400 m 1
 201 401 l 1
 399 401 l 1
 400 400 l 1
 400 101 l 1
 401 100 l 1
 499 100 l 1
 500 99 l 1
 500 1 l 1
 499 0 l 1
 201 0 l 1
 200 1 l 1
 200 99 l 1
 201 100 l 1
 299 100 l 1
 300 101 l 1
 300 299 l 1
 299 300 l 1
 201 300 l 1
 200 301 l 1
 200 400 l 1
201 500 m 1
 200 501 l 1
 200 599 l 1
 201 600 l 1
 299 600 l 1
 300 599 l 1
 300 501 l 1
 299 500 l 1
 201 500 l 1
401 500 m 1
 400 501 l 1
 400 599 l 1
 401 600 l 1
 499 600 l 1
 500 599 l 1
 500 501 l 1
 499 500 l 1
 401 500 l 1
EndSplineSet
EndChar

